<?xml version="1.0" encoding="us-ascii" standalone="no"?><svg xmlns="http://www.w3.org/2000/svg" xmlns:xlink="http://www.w3.org/1999/xlink" contentStyleType="text/css" height="266px" preserveAspectRatio="none" style="width:1332px;height:266px;background:#FFFFFF;" version="1.1" viewBox="0 0 1332 266" width="1332px" zoomAndPan="magnify"><defs/><g><!--cluster Sistema Log?stico--><g id="cluster_Sistema Log&#237;stico"><rect fill="none" height="102" rx="2.5" ry="2.5" style="stroke:#181818;stroke-width:1.0;" width="1155.66" x="170.56" y="7"/><text fill="#000000" font-family="sans-serif" font-size="14" font-weight="bold" lengthAdjust="spacing" textLength="123" x="686.89" y="23.9659">Sistema Log&#237;stico</text></g><g id="elem_UC1_1"><ellipse cx="285.7637" cy="67.0007" fill="#F1F1F1" rx="99.2037" ry="22.2407" style="stroke:#181818;stroke-width:0.5;"/><text fill="#000000" font-family="sans-serif" font-size="14" lengthAdjust="spacing" textLength="153" x="206.2637" y="71.7337">Registrar Embarcaci&#243;n</text></g><g id="elem_UC1_2"><ellipse cx="611.9769" cy="69.9994" fill="#F1F1F1" rx="100.4469" ry="22.4894" style="stroke:#181818;stroke-width:0.5;"/><text fill="#000000" font-family="sans-serif" font-size="14" lengthAdjust="spacing" textLength="156" x="530.9769" y="74.7324">Consultar Embarcaci&#243;n</text></g><g id="elem_UC1_3"><ellipse cx="932.6997" cy="69.9959" fill="#F1F1F1" rx="101.2797" ry="22.6559" style="stroke:#181818;stroke-width:0.5;"/><text fill="#000000" font-family="sans-serif" font-size="14" lengthAdjust="spacing" textLength="158" x="850.6997" y="74.7289">Actualizar Embarcaci&#243;n</text></g><g id="elem_UC1_4"><ellipse cx="1202.5991" cy="69.0038" fill="#F1F1F1" rx="107.6191" ry="23.9238" style="stroke:#181818;stroke-width:0.5;"/><text fill="#000000" font-family="sans-serif" font-size="14" lengthAdjust="spacing" textLength="173" x="1113.0991" y="73.7368">Desagendar Embarcaci&#243;n</text></g><!--entity Administrador--><g id="elem_Administrador"><ellipse cx="62" cy="77.96" fill="#F1F1F1" rx="8" ry="8" style="stroke:#181818;stroke-width:0.5;"/><path d="M62,85.96 L62,112.96 M49,93.96 L75,93.96 M62,112.96 L49,127.96 M62,112.96 L75,127.96 " fill="none" style="stroke:#181818;stroke-width:0.5;"/><text fill="#000000" font-family="sans-serif" font-size="14" lengthAdjust="spacing" textLength="97" x="13.5" y="144.4259">Administrador</text></g><!--entity Gerente--><g id="elem_Gerente"><ellipse cx="62" cy="191.96" fill="#F1F1F1" rx="8" ry="8" style="stroke:#181818;stroke-width:0.5;"/><path d="M62,199.96 L62,226.96 M49,207.96 L75,207.96 M62,226.96 L49,241.96 M62,226.96 L75,241.96 " fill="none" style="stroke:#181818;stroke-width:0.5;"/><text fill="#000000" font-family="sans-serif" font-size="14" lengthAdjust="spacing" textLength="112" x="6" y="258.4259">Gerente de Sede</text></g><g id="elem_UC1"><ellipse cx="285.7649" cy="166.003" fill="#F1F1F1" rx="106.7649" ry="23.753" style="stroke:#181818;stroke-width:0.5;"/><text fill="#000000" font-family="sans-serif" font-size="14" lengthAdjust="spacing" textLength="171" x="197.2649" y="170.7359">Gestionar Embarcaciones</text></g><!--link UC1_1 to UC1_2--><!--link UC1_2 to UC1_3--><!--link UC1_3 to UC1_4--><!--link UC1 to UC1_1--><g id="link_UC1_UC1_1"><path d="M285.76,141.78 C285.76,125.86 285.76,111.18 285.76,95.61 " fill="none" id="UC1-to-UC1_1" style="stroke:#181818;stroke-width:1.0;stroke-dasharray:7.0,7.0;"/><polygon fill="#181818" points="285.76,89.61,281.76,98.61,285.76,94.61,289.76,98.61,285.76,89.61" style="stroke:#181818;stroke-width:1.0;"/><text fill="#000000" font-family="sans-serif" font-size="13" lengthAdjust="spacing" textLength="57" x="244.76" y="121.137">&#171;include&#187;</text></g><!--link UC1 to UC1_2--><g id="link_UC1_UC1_2"><path d="M351.21,146.91 C409.01,129.8 487.4667,106.5628 544.1967,89.7728 " fill="none" id="UC1-to-UC1_2" style="stroke:#181818;stroke-width:1.0;stroke-dasharray:7.0,7.0;"/><polygon fill="#181818" points="549.95,88.07,540.1849,86.7886,545.1556,89.489,542.4552,94.4597,549.95,88.07" style="stroke:#181818;stroke-width:1.0;"/><text fill="#000000" font-family="sans-serif" font-size="13" lengthAdjust="spacing" textLength="57" x="423.53" y="105.297">&#171;include&#187;</text></g><!--link UC1 to UC1_3--><g id="link_UC1_UC1_3"><path d="M391.52,162.03 C478.09,157.53 603.95,148.15 712.42,129 C767.75,119.23 823.679,103.7938 867.499,90.4838 " fill="none" id="UC1-to-UC1_3" style="stroke:#181818;stroke-width:1.0;stroke-dasharray:7.0,7.0;"/><polygon fill="#181818" points="873.24,88.74,863.466,87.5283,868.4558,90.1932,865.791,95.183,873.24,88.74" style="stroke:#181818;stroke-width:1.0;"/><text fill="#000000" font-family="sans-serif" font-size="13" lengthAdjust="spacing" textLength="57" x="583.48" y="124.897">&#171;include&#187;</text></g><!--link UC1 to UC1_4--><g id="link_UC1_UC1_4"><path d="M392.65,167.98 C421.48,168.27 452.7,168.37 481.53,168 C584.18,166.66 610.1,170.2 712.42,162 C856.73,150.43 892.25,139.48 1033.98,110 C1066.1,103.31 1095.5904,96.3103 1125.4804,88.8103 " fill="none" id="UC1-to-UC1_4" style="stroke:#181818;stroke-width:1.0;stroke-dasharray:7.0,7.0;"/><polygon fill="#181818" points="1131.3,87.35,1121.5971,85.6607,1126.4503,88.5669,1123.5441,93.4201,1131.3,87.35" style="stroke:#181818;stroke-width:1.0;"/><text fill="#000000" font-family="sans-serif" font-size="13" lengthAdjust="spacing" textLength="57" x="743.42" y="149.467">&#171;include&#187;</text></g><!--link Administrador to UC1--><g id="link_Administrador_UC1"><path d="M110.85,121.29 C141.15,129.08 175.0487,137.7972 208.8787,146.4872 " fill="none" id="Administrador-to-UC1" style="stroke:#181818;stroke-width:1.0;"/><polygon fill="#181818" points="214.69,147.98,206.9682,141.8666,209.8472,146.736,204.9778,149.6151,214.69,147.98" style="stroke:#181818;stroke-width:1.0;"/></g><!--link Gerente to UC1--><g id="link_Gerente_UC1"><path d="M118.39,208.76 C147.51,201.27 177.6987,193.513 208.7587,185.533 " fill="none" id="Gerente-to-UC1" style="stroke:#181818;stroke-width:1.0;"/><polygon fill="#181818" points="214.57,184.04,204.8577,182.4054,209.7273,185.2842,206.8485,190.1537,214.57,184.04" style="stroke:#181818;stroke-width:1.0;"/></g><!--SRC=[VPAnRi8m48RtUufJzbI2C5Ke4g9Lbqv5dL25hlRLM79ioNOMK1-f4u_0Y-64X19Gy7Ht_-V__k4C_qIC3hrMsuXIUnPHEmj08ZgF2rbfgqFq99tlPjaRUxQHKJAkM7A65B2R0TI11GLkgD0uaSVNwfky894w3YtzkPm0GBEBh389NgKTN16-EtNyI_-4ot0FWEbT33zOjKck38y7s_jj9aDwwMoeJHoZfqDw8M9DHk_6y6A8lt0WnLQEuRDpz3OMvkkjbfBjLrvUhMwhEwsuQCMTzc-AJsNd_OppkRR2r9BBybQUFfQBn_BiHlu565m3vkTSq9z3tvy0]--></g></svg>