<?xml version="1.0" encoding="us-ascii" standalone="no"?><svg xmlns="http://www.w3.org/2000/svg" xmlns:xlink="http://www.w3.org/1999/xlink" contentStyleType="text/css" height="740px" preserveAspectRatio="none" style="width:738px;height:740px;background:#FFFFFF;" version="1.1" viewBox="0 0 738 740" width="738px" zoomAndPan="magnify"><defs/><g><text fill="#000000" font-family="sans-serif" font-size="14" font-weight="bold" lengthAdjust="spacing" textLength="214" x="255" y="22.9951">RF-08 - Gestion de clientes</text><!--cluster Sistema Logistico--><g id="cluster_Sistema Logistico"><rect fill="none" height="433" rx="2.5" ry="2.5" style="stroke:#181818;stroke-width:1.0;" width="553" x="179" y="228.4369"/><text fill="#000000" font-family="sans-serif" font-size="14" font-weight="bold" lengthAdjust="spacing" textLength="138" x="386.5" y="243.432">Sistema Logistico</text></g><g id="elem_CU30"><ellipse cx="300.5305" cy="410.5078" fill="#F1F1F1" rx="105.5305" ry="37.5709" style="stroke:#181818;stroke-width:0.5;"/><text fill="#000000" font-family="sans-serif" font-size="14" lengthAdjust="spacing" textLength="43" x="279.0305" y="397.0576">CU-30</text><text fill="#000000" font-family="sans-serif" font-size="14" lengthAdjust="spacing" textLength="112" x="244.5305" y="413.3544">Registrar cliente</text><text fill="#000000" font-family="sans-serif" font-size="14" lengthAdjust="spacing" textLength="133" x="234.0305" y="429.6513">(persona/empresa)</text></g><g id="elem_CU31"><ellipse cx="622.5097" cy="300.4841" fill="#F1F1F1" rx="93.5097" ry="26.0473" style="stroke:#181818;stroke-width:0.5;"/><text fill="#000000" font-family="sans-serif" font-size="14" lengthAdjust="spacing" textLength="43" x="601.0097" y="295.1824">CU-31</text><text fill="#000000" font-family="sans-serif" font-size="14" lengthAdjust="spacing" textLength="116" x="564.5097" y="311.4793">Consultar cliente</text></g><g id="elem_CU32"><ellipse cx="300.5097" cy="619.4841" fill="#F1F1F1" rx="93.5097" ry="26.0473" style="stroke:#181818;stroke-width:0.5;"/><text fill="#000000" font-family="sans-serif" font-size="14" lengthAdjust="spacing" textLength="43" x="279.0097" y="614.1824">CU-32</text><text fill="#000000" font-family="sans-serif" font-size="14" lengthAdjust="spacing" textLength="116" x="242.5097" y="630.4793">Actualizar cliente</text></g><g id="elem_CU33"><ellipse cx="300.696" cy="300.5078" fill="#F1F1F1" rx="82.196" ry="37.5709" style="stroke:#181818;stroke-width:0.5;"/><text fill="#000000" font-family="sans-serif" font-size="14" lengthAdjust="spacing" textLength="43" x="279.196" y="287.0576">CU-33</text><text fill="#000000" font-family="sans-serif" font-size="14" lengthAdjust="spacing" textLength="100" x="250.696" y="303.3544">Asociar cliente</text><text fill="#000000" font-family="sans-serif" font-size="14" lengthAdjust="spacing" textLength="50" x="275.696" y="319.6513">a carga</text></g><g id="elem_CU34"><ellipse cx="300.696" cy="520.5078" fill="#F1F1F1" rx="82.196" ry="37.5709" style="stroke:#181818;stroke-width:0.5;"/><text fill="#000000" font-family="sans-serif" font-size="14" lengthAdjust="spacing" textLength="43" x="279.196" y="507.0576">CU-34</text><text fill="#000000" font-family="sans-serif" font-size="14" lengthAdjust="spacing" textLength="100" x="250.696" y="523.3544">Asociar cliente</text><text fill="#000000" font-family="sans-serif" font-size="14" lengthAdjust="spacing" textLength="70" x="265.696" y="539.6513">a contrato</text></g><!--entity Admin--><g id="elem_Admin"><ellipse cx="69" cy="490.9369" fill="#F1F1F1" rx="8" ry="8" style="stroke:#181818;stroke-width:0.5;"/><path d="M69,498.9369 L69,525.9369 M56,506.9369 L82,506.9369 M69,525.9369 L56,540.9369 M69,525.9369 L82,540.9369 " fill="none" style="stroke:#181818;stroke-width:0.5;"/><text fill="#000000" font-family="sans-serif" font-size="14" lengthAdjust="spacing" textLength="95" x="21.5" y="555.432">Administrador</text></g><!--entity Gerente--><g id="elem_Gerente"><ellipse cx="69" cy="298.9369" fill="#F1F1F1" rx="8" ry="8" style="stroke:#181818;stroke-width:0.5;"/><path d="M69,306.9369 L69,333.9369 M56,314.9369 L82,314.9369 M69,333.9369 L56,348.9369 M69,333.9369 L82,348.9369 " fill="none" style="stroke:#181818;stroke-width:0.5;"/><text fill="#000000" font-family="sans-serif" font-size="14" lengthAdjust="spacing" textLength="118" x="10" y="363.432">Gerente de sede</text></g><!--entity Operador--><g id="elem_Operador"><ellipse cx="69" cy="97.9369" fill="#F1F1F1" rx="8" ry="8" style="stroke:#181818;stroke-width:0.5;"/><path d="M69,105.9369 L69,132.9369 M56,113.9369 L82,113.9369 M69,132.9369 L56,147.9369 M69,132.9369 L82,147.9369 " fill="none" style="stroke:#181818;stroke-width:0.5;"/><text fill="#000000" font-family="sans-serif" font-size="14" lengthAdjust="spacing" textLength="126" x="6" y="162.432">Operador logistico</text></g><g id="elem_GMN25"><path d="M558,677.9369 L558,733.3353 L687,733.3353 L687,687.9369 L677,677.9369 L558,677.9369 " fill="#FEFFDD" style="stroke:#181818;stroke-width:0.5;"/><path d="M677,677.9369 L677,687.9369 L687,687.9369 L677,677.9369 " fill="#FEFFDD" style="stroke:#181818;stroke-width:1.0;"/><text fill="#000000" font-family="sans-serif" font-size="13" lengthAdjust="spacing" textLength="108" x="564" y="695.0038">Permite registrar</text><text fill="#000000" font-family="sans-serif" font-size="13" lengthAdjust="spacing" textLength="101" x="564" y="710.1366">persona natural</text><text fill="#000000" font-family="sans-serif" font-size="13" lengthAdjust="spacing" textLength="69" x="564" y="725.2694">o empresa</text></g><g id="elem_GMN28"><path d="M228.5,100.9369 L228.5,156.3353 L372.5,156.3353 L372.5,110.9369 L362.5,100.9369 L228.5,100.9369 " fill="#FEFFDD" style="stroke:#181818;stroke-width:0.5;"/><path d="M362.5,100.9369 L362.5,110.9369 L372.5,110.9369 L362.5,100.9369 " fill="#FEFFDD" style="stroke:#181818;stroke-width:1.0;"/><text fill="#000000" font-family="sans-serif" font-size="13" lengthAdjust="spacing" textLength="101" x="234.5" y="118.0038">Asociacion para</text><text fill="#000000" font-family="sans-serif" font-size="13" lengthAdjust="spacing" textLength="123" x="234.5" y="133.1366">gestion contractual</text><text fill="#000000" font-family="sans-serif" font-size="13" lengthAdjust="spacing" textLength="119" x="234.5" y="148.2694">y trazabilidad legal</text></g><!--link Operador to CU30--><g id="link_Operador_CU30"><path d="M86.5,165.6269 C114.19,229.6069 167.37,351.8469 171,355.4369 C184.3,368.5669 195.7638,376.2809 212.9238,384.1309 " fill="none" id="Operador-to-CU30" style="stroke:#181818;stroke-width:1.0;"/><polygon fill="#181818" points="218.38,386.6269,211.8597,379.2454,213.8332,384.5469,208.5317,386.5204,218.38,386.6269" style="stroke:#181818;stroke-width:1.0;"/></g><!--link Operador to CU31--><g id="link_Operador_CU31"><path d="M132.26,95.6169 C144.79,90.5669 158.08,86.1269 171,83.4369 C273.25,62.1369 309.58,43.2969 406,83.4369 C500.6,122.8169 571.8244,221.0977 602.7344,269.5777 " fill="none" id="Operador-to-CU31" style="stroke:#181818;stroke-width:1.0;"/><polygon fill="#181818" points="605.96,274.6369,604.4943,264.8977,603.272,270.4209,597.7488,269.1985,605.96,274.6369" style="stroke:#181818;stroke-width:1.0;"/></g><!--link Operador to CU33--><g id="link_Operador_CU33"><path d="M132.37,132.9869 C143.59,136.4069 154.43,141.5969 163,149.4369 C171.3,157.0269 165.06,163.8869 171,173.4369 C194.03,210.4569 225.3399,240.8528 253.3499,264.4328 " fill="none" id="Operador-to-CU33" style="stroke:#181818;stroke-width:1.0;"/><polygon fill="#181818" points="257.94,268.2969,253.631,259.4407,254.1149,265.0768,248.4788,265.5608,257.94,268.2969" style="stroke:#181818;stroke-width:1.0;"/></g><!--link Gerente to CU31--><g id="link_Gerente_CU31"><path d="M103.97,290.3869 C121.96,273.1169 145.57,254.5469 171,245.4369 C308.6,196.1469 477.7048,245.0794 563.5048,276.9194 " fill="none" id="Gerente-to-CU31" style="stroke:#181818;stroke-width:1.0;"/><polygon fill="#181818" points="569.13,279.0069,562.0839,272.1256,564.4424,277.2673,559.3006,279.6258,569.13,279.0069" style="stroke:#181818;stroke-width:1.0;"/></g><!--link Gerente to CU32--><g id="link_Gerente_CU32"><path d="M88.73,366.6369 C109.2,409.5469 141.88,481.6969 163,546.4369 C167.15,559.1469 161.84,565.6969 171,575.4369 C184.33,589.6069 196.7649,597.2019 215.1549,603.7219 " fill="none" id="Gerente-to-CU32" style="stroke:#181818;stroke-width:1.0;"/><polygon fill="#181818" points="220.81,605.7269,213.664,598.9494,216.0974,604.0561,210.9907,606.4895,220.81,605.7269" style="stroke:#181818;stroke-width:1.0;"/></g><!--link Gerente to CU33--><g id="link_Gerente_CU33"><path d="M128.21,321.3369 C156.36,317.8969 184.6141,314.4532 215.0341,310.7432 " fill="none" id="Gerente-to-CU33" style="stroke:#181818;stroke-width:1.0;"/><polygon fill="#181818" points="220.99,310.0169,211.5719,307.1359,216.0268,310.6222,212.5404,315.077,220.99,310.0169" style="stroke:#181818;stroke-width:1.0;"/></g><!--link Gerente to CU34--><g id="link_Gerente_CU34"><path d="M128.38,343.6069 C141.75,349.7969 154.51,358.4269 163,370.4369 C175.23,387.7369 158.6,448.2569 171,465.4369 C184.35,483.9369 199.6285,494.0808 220.6985,502.2808 " fill="none" id="Gerente-to-CU34" style="stroke:#181818;stroke-width:1.0;"/><polygon fill="#181818" points="226.29,504.4569,219.3535,497.4651,221.6304,502.6435,216.4521,504.9204,226.29,504.4569" style="stroke:#181818;stroke-width:1.0;"/></g><!--link Admin to CU30--><g id="link_Admin_CU30"><path d="M116.54,493.9069 C133.5,484.5469 152.95,474.1969 171,465.4369 C190,456.2269 205.4017,449.2725 224.7517,441.0125 " fill="none" id="Admin-to-CU30" style="stroke:#181818;stroke-width:1.0;"/><polygon fill="#181818" points="230.27,438.6569,220.4222,438.5114,225.6715,440.6199,223.563,445.8691,230.27,438.6569" style="stroke:#181818;stroke-width:1.0;"/></g><!--link Admin to CU31--><g id="link_Admin_CU31"><path d="M84.99,558.6069 C100.73,592.8069 129.06,640.7969 171,662.4369 C263.82,710.3169 315.2,714.0569 406,662.4369 C537.94,587.4369 596.0821,401.9995 613.9421,332.2295 " fill="none" id="Admin-to-CU31" style="stroke:#181818;stroke-width:1.0;"/><polygon fill="#181818" points="615.43,326.4169,609.3231,334.1438,614.1901,331.2607,617.0732,336.1277,615.43,326.4169" style="stroke:#181818;stroke-width:1.0;"/></g><!--link Admin to CU32--><g id="link_Admin_CU32"><path d="M116.7,548.0069 C133.51,557.3469 152.81,567.4369 171,575.4369 C192.05,584.6869 210.0092,591.3755 231.2292,598.4655 " fill="none" id="Admin-to-CU32" style="stroke:#181818;stroke-width:1.0;"/><polygon fill="#181818" points="236.92,600.3669,229.6515,593.721,232.1777,598.7824,227.1163,601.3086,236.92,600.3669" style="stroke:#181818;stroke-width:1.0;"/></g><!--link Admin to CU33--><g id="link_Admin_CU33"><path d="M85.11,482.3669 C101.43,445.5569 130.61,390.3669 171,355.4369 C188.35,340.4369 204.8361,331.2626 225.7461,322.8226 " fill="none" id="Admin-to-CU33" style="stroke:#181818;stroke-width:1.0;"/><polygon fill="#181818" points="231.31,320.5769,221.467,320.2363,226.6735,322.4483,224.4614,327.6548,231.31,320.5769" style="stroke:#181818;stroke-width:1.0;"/></g><!--link Admin to CU34--><g id="link_Admin_CU34"><path d="M116.72,520.4369 C145.95,520.4369 178.39,520.4369 212.47,520.4369 " fill="none" id="Admin-to-CU34" style="stroke:#181818;stroke-width:1.0;"/><polygon fill="#181818" points="218.47,520.4369,209.47,516.4369,213.47,520.4369,209.47,524.4369,218.47,520.4369" style="stroke:#181818;stroke-width:1.0;"/></g><!--link CU33 to CU31--><g id="link_CU33_CU31"><path d="M382.66,300.4369 C427.19,300.4369 476.59,300.4369 522.81,300.4369 " fill="none" id="CU33-to-CU31" style="stroke:#181818;stroke-width:1.0;stroke-dasharray:7.0,7.0;"/><polygon fill="#181818" points="528.81,300.4369,519.81,296.4369,523.81,300.4369,519.81,304.4369,528.81,300.4369" style="stroke:#181818;stroke-width:1.0;"/><text fill="#000000" font-family="sans-serif" font-size="13" lengthAdjust="spacing" textLength="61" x="437" y="296.5038">&#171;include&#187;</text></g><!--link CU34 to CU31--><g id="link_CU34_CU31"><path d="M357.27,493.3069 C373.31,484.9069 390.63,475.2669 406,465.4369 C476.07,420.6269 547.3519,363.0314 587.7319,329.1814 " fill="none" id="CU34-to-CU31" style="stroke:#181818;stroke-width:1.0;stroke-dasharray:7.0,7.0;"/><polygon fill="#181818" points="592.33,325.3269,582.8632,328.0433,588.4982,328.539,588.0025,334.1741,592.33,325.3269" style="stroke:#181818;stroke-width:1.0;"/><text fill="#000000" font-family="sans-serif" font-size="13" lengthAdjust="spacing" textLength="61" x="437" y="397.5038">&#171;include&#187;</text></g><!--link CU30 to GMN25--><g id="link_CU30_GMN25"><path d="M368.8,439.1269 C381.99,446.5369 395.1,455.3369 406,465.4369 C481.43,535.3469 452.17,593.0669 529,661.4369 C537.5,669.0069 547.53,675.5369 557.8,681.0769 " fill="none" id="CU30-GMN25" style="stroke:#181818;stroke-width:1.0;stroke-dasharray:7.0,7.0;"/></g><!--link CU34 to GMN28--><g id="link_CU34_GMN28"><path d="M224.97,505.4969 C195.06,495.0669 164.69,477.4869 151.5,447.9369 C129.13,397.8069 129.13,251.0669 151.5,200.9369 C165.16,170.3269 197.24,152.5669 228.15,142.2969 " fill="none" id="CU34-GMN28" style="stroke:#181818;stroke-width:1.0;stroke-dasharray:7.0,7.0;"/></g><!--SRC=[TLF1JYCn33sllyBg2Gu3RMSEAuGgeKfmGGA1kFLY4ZT4P98goGZ1Ql-TP6RIqW5kyVDxBqvi6zv6Z0wzLYyHfVOiedOMmgksE_BKuex4Aob-ZE-6CQV9AiDV2E65f7lJLk6MJ620g6EYFbnNyxzOuGs7x8YIKHZDDd80816TnzcLRBNL8Vhau6T80Nkaf6_OPtwM1fRS4qQiKEvst8lHE9MCj70zgy00-ufnzfW8t1BU7gZ_u4yNM518wVLJLSytze5LNv4lvMxiIN8Bpj8vjplFWKxxEzPFzNmYNspisjdGcNYG5-vYmbrkx9M87HdzyPsyd93hH0vEwAzL4GhoYegadaYQdoNEfhT5LrGD_0VOVs9LhOPdJP75DwG6AEtPSoR0SWhKKw01w1j-kFWeN1o7o-EmFWwJLmRnx6pGuWLUNcehJ2TvjSgvvhSSM9Tg6bR0ROT2xjctEgDb760S0hGKEqy678xZ06mbPelHwDd5wDhHgO6X2oBlG5uOKED23AteHm3UCHq_w5aRBKcYOPN0lUqd]--></g></svg>