<?plantuml 1.2026.2beta3?><svg xmlns="http://www.w3.org/2000/svg" xmlns:xlink="http://www.w3.org/1999/xlink" contentStyleType="text/css" data-diagram-type="DESCRIPTION" height="669px" preserveAspectRatio="none" style="width:3655px;height:669px;background:#FEFEFE;" version="1.1" viewBox="0 0 3655 669" width="3655px" zoomAndPan="magnify"><title>Casos de Uso Transversales (RNF)
Diagrama de Casos de Uso</title><defs/><g><rect fill="#FEFEFE" height="669" style="stroke:none;stroke-width:1;" width="3655" x="0" y="0"/><g class="title" data-source-line="10"><text fill="#000000" font-family="Verdana" font-size="22" font-weight="bold" lengthAdjust="spacing" textLength="423.2314" x="1611.6978" y="35.4209">Casos de Uso Transversales (RNF)</text><text fill="#000000" font-family="Verdana" font-size="22" font-weight="bold" lengthAdjust="spacing" textLength="330.2041" x="1658.2115" y="61.0303">Diagrama de Casos de Uso</text></g><!--cluster Sistema de Gesti?n Log?stico - Requisitos No Funcionales--><g class="cluster" data-qualified-name="Sistema de Gesti.n Log.stico - Requisitos No Funcionales" data-source-line="18" id="ent0007"><rect fill="#FFFFFF" height="440.79" rx="2.5" ry="2.5" style="stroke:#000000;stroke-width:1;" width="1684" x="425.13" y="222.5088"/><text fill="#000000" font-family="Verdana" font-size="14" font-weight="bold" lengthAdjust="spacing" textLength="452.8057" x="1040.7272" y="237.5039">Sistema de Gesti&#243;n Log&#237;stico - Requisitos No Funcionales</text></g><!--cluster RNF-01: Seguridad y Control de Acceso--><g class="cluster" data-qualified-name="Sistema de Gesti.n Log.stico - Requisitos No Funcionales.RNF-01. Seguridad y Control de Acceso" data-source-line="21" id="ent0008"><path d="M1209.63,270.3688 L1520.1066,270.3688 A3.75,3.75 0 0 1 1522.6066,272.8688 L1529.6066,292.6656 L1693.63,292.6656 A2.5,2.5 0 0 1 1696.13,295.1656 L1696.13,502.0688 A2.5,2.5 0 0 1 1693.63,504.5688 L1209.63,504.5688 A2.5,2.5 0 0 1 1207.13,502.0688 L1207.13,272.8688 A2.5,2.5 0 0 1 1209.63,270.3688" fill="#FFE4B5" style="stroke:#000000;stroke-width:1;"/><line style="stroke:#000000;stroke-width:1;" x1="1207.13" x2="1529.6066" y1="292.6656" y2="292.6656"/><text fill="#000000" font-family="Verdana" font-size="14" font-weight="bold" lengthAdjust="spacing" textLength="309.4766" x="1211.13" y="285.3639">RNF-01: Seguridad y Control de Acceso</text></g><!--cluster RNF-02/RNF-07: Integridad + Trazabilidad Auditable--><g class="cluster" data-qualified-name="Sistema de Gesti.n Log.stico - Requisitos No Funcionales.RNF-02.RNF-07. Integridad . Trazabilidad Auditable" data-source-line="29" id="ent0013"><path d="M757.63,266.8988 L1171.3361,266.8988 A3.75,3.75 0 0 1 1173.8361,269.3988 L1180.8361,289.1956 L1180.63,289.1956 A2.5,2.5 0 0 1 1183.13,291.6956 L1183.13,636.7988 A2.5,2.5 0 0 1 1180.63,639.2988 L757.63,639.2988 A2.5,2.5 0 0 1 755.13,636.7988 L755.13,269.3988 A2.5,2.5 0 0 1 757.63,266.8988" fill="#E0FFE0" style="stroke:#000000;stroke-width:1;"/><line style="stroke:#000000;stroke-width:1;" x1="755.13" x2="1180.8361" y1="289.1956" y2="289.1956"/><text fill="#000000" font-family="Verdana" font-size="14" font-weight="bold" lengthAdjust="spacing" textLength="412.7061" x="759.13" y="281.8939">RNF-02/RNF-07: Integridad + Trazabilidad Auditable</text></g><!--cluster RNF-05/RNF-09: Rendimiento y Consistencia--><g class="cluster" data-qualified-name="Sistema de Gesti.n Log.stico - Requisitos No Funcionales.RNF-05.RNF-09. Rendimiento y Consistencia" data-source-line="36" id="ent0017"><path d="M1722.63,265.5088 L2073.0421,265.5088 A3.75,3.75 0 0 1 2075.5421,268.0088 L2082.5421,287.8056 L2082.63,287.8056 A2.5,2.5 0 0 1 2085.13,290.3056 L2085.13,501.0388 A2.5,2.5 0 0 1 2082.63,503.5388 L1722.63,503.5388 A2.5,2.5 0 0 1 1720.13,501.0388 L1720.13,268.0088 A2.5,2.5 0 0 1 1722.63,265.5088" fill="#FFE0E0" style="stroke:#000000;stroke-width:1;"/><line style="stroke:#000000;stroke-width:1;" x1="1720.13" x2="2082.5421" y1="287.8056" y2="287.8056"/><text fill="#000000" font-family="Verdana" font-size="14" font-weight="bold" lengthAdjust="spacing" textLength="349.4121" x="1724.13" y="280.5039">RNF-05/RNF-09: Rendimiento y Consistencia</text></g><!--cluster RNF-10: Respaldo y Recuperaci?n--><g class="cluster" data-qualified-name="Sistema de Gesti.n Log.stico - Requisitos No Funcionales.RNF-10. Respaldo y Recuperaci.n" data-source-line="42" id="ent0020"><path d="M451.63,267.1388 L718.9376,267.1388 A3.75,3.75 0 0 1 721.4376,269.6388 L728.4376,289.4356 L728.63,289.4356 A2.5,2.5 0 0 1 731.13,291.9356 L731.13,501.6688 A2.5,2.5 0 0 1 728.63,504.1688 L451.63,504.1688 A2.5,2.5 0 0 1 449.13,501.6688 L449.13,269.6388 A2.5,2.5 0 0 1 451.63,267.1388" fill="#E0E0FF" style="stroke:#000000;stroke-width:1;"/><line style="stroke:#000000;stroke-width:1;" x1="449.13" x2="728.4376" y1="289.4356" y2="289.4356"/><text fill="#000000" font-family="Verdana" font-size="14" font-weight="bold" lengthAdjust="spacing" textLength="266.3076" x="453.13" y="282.1339">RNF-10: Respaldo y Recuperaci&#243;n</text></g><!--entity CU35--><g class="entity" data-qualified-name="Sistema de Gesti.n Log.stico - Requisitos No Funcionales.RNF-01. Seguridad y Control de Acceso.CU35" data-source-line="22" id="ent0009"><ellipse cx="1594.126" cy="328.58" fill="#FFF89A" rx="86.356" ry="19.6712" style="stroke:#333333;stroke-width:1;"/><text fill="#000000" font-family="Verdana" font-size="14" lengthAdjust="spacing" textLength="145.4414" x="1521.4053" y="333.2284">CU-35: Iniciar Sesi&#243;n</text></g><!--entity CU36--><g class="entity" data-qualified-name="Sistema de Gesti.n Log.stico - Requisitos No Funcionales.RNF-01. Seguridad y Control de Acceso.CU36" data-source-line="23" id="ent0010"><ellipse cx="1593.127" cy="461.3341" fill="#FFF89A" rx="86.977" ry="19.7954" style="stroke:#333333;stroke-width:1;"/><text fill="#000000" font-family="Verdana" font-size="14" lengthAdjust="spacing" textLength="146.8633" x="1519.6953" y="465.9826">CU-36: Cerrar Sesi&#243;n</text></g><!--entity CU37--><g class="entity" data-qualified-name="Sistema de Gesti.n Log.stico - Requisitos No Funcionales.RNF-01. Seguridad y Control de Acceso.CU37" data-source-line="24" id="ent0011"><ellipse cx="1347.1349" cy="328.5757" fill="#FFF89A" rx="104.0349" ry="23.207" style="stroke:#333333;stroke-width:1;"/><text fill="#000000" font-family="Verdana" font-size="14" lengthAdjust="spacing" textLength="184.9121" x="1254.6788" y="333.2242">CU-37: Gestionar Usuarios</text></g><!--entity CU38--><g class="entity" data-qualified-name="Sistema de Gesti.n Log.stico - Requisitos No Funcionales.RNF-01. Seguridad y Control de Acceso.CU38" data-source-line="25" id="ent0012"><ellipse cx="1347.1324" cy="461.3432" fill="#FFF89A" rx="124.1224" ry="27.2245" style="stroke:#333333;stroke-width:1;"/><text fill="#000000" font-family="Verdana" font-size="14" lengthAdjust="spacing" textLength="228.1289" x="1233.0679" y="465.9917">CU-38: Asignar Roles y Permisos</text></g><!--entity CU39--><g class="entity" data-qualified-name="Sistema de Gesti.n Log.stico - Requisitos No Funcionales.RNF-02.RNF-07. Integridad . Trazabilidad Auditable.CU39" data-source-line="30" id="ent0014"><ellipse cx="1042.1266" cy="461.3381" fill="#FFF89A" rx="113.2466" ry="25.0493" style="stroke:#333333;stroke-width:1;"/><text fill="#000000" font-family="Verdana" font-size="14" lengthAdjust="spacing" textLength="184.0029" x="950.1252" y="461.9858">CU-39: Registrar Auditor&#237;a</text><text fill="#000000" font-family="Verdana" font-size="14" lengthAdjust="spacing" textLength="82.5781" x="1000.8376" y="478.2827">de Cambios</text></g><!--entity CU40--><g class="entity" data-qualified-name="Sistema de Gesti.n Log.stico - Requisitos No Funcionales.RNF-02.RNF-07. Integridad . Trazabilidad Auditable.CU40" data-source-line="31" id="ent0015"><ellipse cx="1043.1274" cy="328.5822" fill="#FFF89A" rx="121.3674" ry="26.6735" style="stroke:#333333;stroke-width:1;"/><text fill="#000000" font-family="Verdana" font-size="14" lengthAdjust="spacing" textLength="191.8232" x="947.2158" y="327.5057">CU-40: Consultar Auditor&#237;a/</text><text fill="#000000" font-family="Verdana" font-size="14" lengthAdjust="spacing" textLength="144.9082" x="970.6733" y="343.8025">Historial de Cambios</text></g><!--entity CU41--><g class="entity" data-qualified-name="Sistema de Gesti.n Log.stico - Requisitos No Funcionales.RNF-02.RNF-07. Integridad . Trazabilidad Auditable.CU41" data-source-line="32" id="ent0016"><ellipse cx="1040.1255" cy="595.4259" fill="#FFF89A" rx="127.3355" ry="27.8671" style="stroke:#333333;stroke-width:1;"/><text fill="#000000" font-family="Verdana" font-size="14" lengthAdjust="spacing" textLength="206.8145" x="936.7183" y="594.4151">CU-41: Bloquear Modificaci&#243;n</text><text fill="#000000" font-family="Verdana" font-size="14" lengthAdjust="spacing" textLength="162.9277" x="958.6616" y="610.712">Directa de Trazabilidad</text></g><!--entity CU42--><g class="entity" data-qualified-name="Sistema de Gesti.n Log.stico - Requisitos No Funcionales.RNF-05.RNF-09. Rendimiento y Consistencia.CU42" data-source-line="37" id="ent0018"><ellipse cx="1941.1313" cy="328.583" fill="#FFF89A" rx="128.3213" ry="28.0643" style="stroke:#333333;stroke-width:1;"/><text fill="#000000" font-family="Verdana" font-size="14" lengthAdjust="spacing" textLength="220.1309" x="1831.0658" y="329.3949">CU-42: Actualizaci&#243;n Inmediata</text><text fill="#000000" font-family="Verdana" font-size="14" lengthAdjust="spacing" textLength="142.6523" x="1869.8051" y="345.6917">de Estado/Ubicaci&#243;n</text></g><!--entity CU43--><g class="entity" data-qualified-name="Sistema de Gesti.n Log.stico - Requisitos No Funcionales.RNF-05.RNF-09. Rendimiento y Consistencia.CU43" data-source-line="38" id="ent0019"><ellipse cx="1950.1262" cy="461.342" fill="#FFF89A" rx="119.0162" ry="26.2032" style="stroke:#333333;stroke-width:1;"/><text fill="#000000" font-family="Verdana" font-size="14" lengthAdjust="spacing" textLength="171.8418" x="1864.2053" y="458.5474">CU-43: Visualizar Estado</text><text fill="#000000" font-family="Verdana" font-size="14" lengthAdjust="spacing" textLength="157.8965" x="1871.1779" y="474.8443">Actual en Tiempo Real</text></g><!--entity CU44--><g class="entity" data-qualified-name="Sistema de Gesti.n Log.stico - Requisitos No Funcionales.RNF-10. Respaldo y Recuperaci.n.CU44" data-source-line="43" id="ent0021"><ellipse cx="590.1268" cy="328.5741" fill="#FFF89A" rx="120.1768" ry="26.4354" style="stroke:#333333;stroke-width:1;"/><text fill="#000000" font-family="Verdana" font-size="14" lengthAdjust="spacing" textLength="178.6914" x="500.7811" y="326.2082">CU-44: Ejecutar Respaldo</text><text fill="#000000" font-family="Verdana" font-size="14" lengthAdjust="spacing" textLength="156.6455" x="511.8041" y="342.5051">Peri&#243;tico (Autom&#225;tico)</text></g><!--entity CU45--><g class="entity" data-qualified-name="Sistema de Gesti.n Log.stico - Requisitos No Funcionales.RNF-10. Respaldo y Recuperaci.n.CU45" data-source-line="44" id="ent0022"><ellipse cx="590.1324" cy="461.3412" fill="#FFF89A" rx="122.1624" ry="26.8325" style="stroke:#333333;stroke-width:1;"/><text fill="#000000" font-family="Verdana" font-size="14" lengthAdjust="spacing" textLength="208.667" x="485.7989" y="462.6243">CU-45: Restaurar Informaci&#243;n</text><text fill="#000000" font-family="Verdana" font-size="14" lengthAdjust="spacing" textLength="111.1865" x="534.5392" y="478.9212">desde Respaldo</text></g><!--entity Administrador--><g class="entity" data-qualified-name="Administrador" data-source-line="12" id="ent0002"><ellipse cx="443.13" cy="91.2188" fill="#87CEEB" rx="8" ry="8" style="stroke:#333333;stroke-width:1;"/><path d="M443.13,99.2188 L443.13,126.2188 M430.13,107.2188 L456.13,107.2188 M443.13,126.2188 L430.13,141.2188 M443.13,126.2188 L456.13,141.2188" fill="none" style="stroke:#333333;stroke-width:1;"/><text fill="#000000" font-family="Verdana" font-size="14" lengthAdjust="spacing" textLength="99.0801" x="393.59" y="156.2139">Administrador</text></g><!--entity GerenteSede--><g class="entity" data-qualified-name="GerenteSede" data-source-line="13" id="ent0003"><ellipse cx="3519.1335" cy="91.2188" fill="#87CEEB" rx="8" ry="8" style="stroke:#333333;stroke-width:1;"/><path d="M3519.1335,99.2188 L3519.1335,126.2188 M3506.1335,107.2188 L3532.1335,107.2188 M3519.1335,126.2188 L3506.1335,141.2188 M3519.1335,126.2188 L3532.1335,141.2188" fill="none" style="stroke:#333333;stroke-width:1;"/><text fill="#000000" font-family="Verdana" font-size="14" lengthAdjust="spacing" textLength="118.207" x="3460.03" y="156.2139">Gerente de Sede</text></g><!--entity OperadorLogistico--><g class="entity" data-qualified-name="OperadorLogistico" data-source-line="14" id="ent0004"><ellipse cx="3273.1349" cy="91.2188" fill="#87CEEB" rx="8" ry="8" style="stroke:#333333;stroke-width:1;"/><path d="M3273.1349,99.2188 L3273.1349,126.2188 M3260.1349,107.2188 L3286.1349,107.2188 M3273.1349,126.2188 L3260.1349,141.2188 M3273.1349,126.2188 L3286.1349,141.2188" fill="none" style="stroke:#333333;stroke-width:1;"/><text fill="#000000" font-family="Verdana" font-size="14" lengthAdjust="spacing" textLength="132.5898" x="3206.84" y="156.2139">Operador Log&#237;stico</text></g><!--entity Auditor--><g class="entity" data-qualified-name="Auditor" data-source-line="15" id="ent0005"><ellipse cx="1594.1286" cy="91.2188" fill="#87CEEB" rx="8" ry="8" style="stroke:#333333;stroke-width:1;"/><path d="M1594.1286,99.2188 L1594.1286,126.2188 M1581.1286,107.2188 L1607.1286,107.2188 M1594.1286,126.2188 L1581.1286,141.2188 M1594.1286,126.2188 L1607.1286,141.2188" fill="none" style="stroke:#333333;stroke-width:1;"/><text fill="#000000" font-family="Verdana" font-size="14" lengthAdjust="spacing" textLength="51.0371" x="1568.61" y="156.2139">Auditor</text></g><!--entity SistemaAuth--><g class="entity" data-qualified-name="SistemaAuth" data-source-line="16" id="ent0006"><ellipse cx="1801.1282" cy="91.2188" fill="#87CEEB" rx="8" ry="8" style="stroke:#333333;stroke-width:1;"/><path d="M1801.1282,99.2188 L1801.1282,126.2188 M1788.1282,107.2188 L1814.1282,107.2188 M1801.1282,126.2188 L1788.1282,141.2188 M1801.1282,126.2188 L1814.1282,141.2188" fill="none" style="stroke:#333333;stroke-width:1;"/><text fill="#000000" font-family="Verdana" font-size="14" lengthAdjust="spacing" textLength="178.8965" x="1711.68" y="156.2139">Sistema de Autenticaci&#243;n</text></g><g class="entity" data-qualified-name="GMN48" data-source-line="89" id="ent0049"><path d="M2835.03,300.8788 L2835.03,356.2772 L2989.2356,356.2772 L2989.2356,310.8788 L2979.2356,300.8788 L2835.03,300.8788" fill="#FFFFFF" style="stroke:#000000;stroke-width:1;"/><path d="M2979.2356,300.8788 L2979.2356,310.8788 L2989.2356,310.8788 L2979.2356,300.8788" fill="#FFFFFF" style="stroke:#000000;stroke-width:1;"/><text fill="#000000" font-family="Verdana" font-size="13" lengthAdjust="spacing" textLength="133.2056" x="2841.03" y="317.9456">Usuario inicia sesi&#243;n</text><text fill="#000000" font-family="Verdana" font-size="13" lengthAdjust="spacing" textLength="114.4673" x="2841.03" y="333.0785">en el sistema con</text><text fill="#000000" font-family="Verdana" font-size="13" lengthAdjust="spacing" textLength="132.0947" x="2841.03" y="348.2113">credenciales v&#225;lidas</text></g><g class="entity" data-qualified-name="GMN51" data-source-line="95" id="ent0052"><path d="M2316.16,300.8788 L2316.16,356.2772 L2478.1034,356.2772 L2478.1034,310.8788 L2468.1034,300.8788 L2316.16,300.8788" fill="#FFFFFF" style="stroke:#000000;stroke-width:1;"/><path d="M2468.1034,300.8788 L2468.1034,310.8788 L2478.1034,310.8788 L2468.1034,300.8788" fill="#FFFFFF" style="stroke:#000000;stroke-width:1;"/><text fill="#000000" font-family="Verdana" font-size="13" lengthAdjust="spacing" textLength="140.9434" x="2322.16" y="317.9456">Admin crea, actualiza</text><text fill="#000000" font-family="Verdana" font-size="13" lengthAdjust="spacing" textLength="135.7637" x="2322.16" y="333.0785">o elimina cuentas de</text><text fill="#000000" font-family="Verdana" font-size="13" lengthAdjust="spacing" textLength="54.9009" x="2322.16" y="348.2113">usuarios</text></g><g class="entity" data-qualified-name="GMN54" data-source-line="101" id="ent0055"><path d="M2553.16,433.6388 L2553.16,489.0372 L2737.1107,489.0372 L2737.1107,443.6388 L2727.1107,433.6388 L2553.16,433.6388" fill="#FFFFFF" style="stroke:#000000;stroke-width:1;"/><path d="M2727.1107,433.6388 L2727.1107,443.6388 L2737.1107,443.6388 L2727.1107,433.6388" fill="#FFFFFF" style="stroke:#000000;stroke-width:1;"/><text fill="#000000" font-family="Verdana" font-size="13" lengthAdjust="spacing" textLength="162.9507" x="2559.16" y="450.7056">Definir niveles de acceso</text><text fill="#000000" font-family="Verdana" font-size="13" lengthAdjust="spacing" textLength="153.2134" x="2559.16" y="465.8385">y permisos asignados a</text><text fill="#000000" font-family="Verdana" font-size="13" lengthAdjust="spacing" textLength="52.3745" x="2559.16" y="480.9713">cada rol</text></g><g class="entity" data-qualified-name="GMN57" data-source-line="107" id="ent0058"><path d="M2331.94,433.6388 L2331.94,489.0372 L2518.3218,489.0372 L2518.3218,443.6388 L2508.3218,433.6388 L2331.94,433.6388" fill="#FFFFFF" style="stroke:#000000;stroke-width:1;"/><path d="M2508.3218,433.6388 L2508.3218,443.6388 L2518.3218,443.6388 L2508.3218,433.6388" fill="#FFFFFF" style="stroke:#000000;stroke-width:1;"/><text fill="#000000" font-family="Verdana" font-size="13" lengthAdjust="spacing" textLength="165.3818" x="2337.94" y="450.7056">Sistema registra cambios</text><text fill="#000000" font-family="Verdana" font-size="13" lengthAdjust="spacing" textLength="147.9512" x="2337.94" y="465.8385">realizados en registros</text><text fill="#000000" font-family="Verdana" font-size="13" lengthAdjust="spacing" textLength="68.6436" x="2337.94" y="480.9713">operativos</text></g><g class="entity" data-qualified-name="GMN60" data-source-line="113" id="ent0061"><path d="M2513.38,300.8788 L2513.38,356.2772 L2670.8863,356.2772 L2670.8863,310.8788 L2660.8863,300.8788 L2513.38,300.8788" fill="#FFFFFF" style="stroke:#000000;stroke-width:1;"/><path d="M2660.8863,300.8788 L2660.8863,310.8788 L2670.8863,310.8788 L2660.8863,300.8788" fill="#FFFFFF" style="stroke:#000000;stroke-width:1;"/><text fill="#000000" font-family="Verdana" font-size="13" lengthAdjust="spacing" textLength="120.8022" x="2519.38" y="317.9456">Consultar cambios</text><text fill="#000000" font-family="Verdana" font-size="13" lengthAdjust="spacing" textLength="136.5063" x="2519.38" y="333.0785">hist&#243;ricos y auditor&#237;a</text><text fill="#000000" font-family="Verdana" font-size="13" lengthAdjust="spacing" textLength="99.6201" x="2519.38" y="348.2113">de operaciones</text></g><g class="entity" data-qualified-name="GMN63" data-source-line="119" id="ent0064"><path d="M2125.22,567.7288 L2125.22,591.4288 L1167.73,595.4288 L2125.22,599.4288 L2125.22,623.1272 A0,0 0 0 0 2125.22,623.1272 L2283.0437,623.1272 A0,0 0 0 0 2283.0437,623.1272 L2283.0437,577.7288 L2273.0437,567.7288 L2125.22,567.7288 A0,0 0 0 0 2125.22,567.7288" fill="#FFFFFF" style="stroke:#000000;stroke-width:1;"/><path d="M2273.0437,567.7288 L2273.0437,577.7288 L2283.0437,577.7288 L2273.0437,567.7288" fill="#FFFFFF" style="stroke:#000000;stroke-width:1;"/><text fill="#000000" font-family="Verdana" font-size="13" lengthAdjust="spacing" textLength="136.8237" x="2131.22" y="584.7956">Impedir modificaci&#243;n</text><text fill="#000000" font-family="Verdana" font-size="13" lengthAdjust="spacing" textLength="126.3564" x="2131.22" y="599.9285">directa de datos de</text><text fill="#000000" font-family="Verdana" font-size="13" lengthAdjust="spacing" textLength="76.7559" x="2131.22" y="615.0613">trazabilidad</text></g><g class="entity" data-qualified-name="GMN66" data-source-line="125" id="ent0067"><path d="M3024.69,300.8788 L3024.69,356.2772 L3209.5674,356.2772 L3209.5674,310.8788 L3199.5674,300.8788 L3024.69,300.8788" fill="#FFFFFF" style="stroke:#000000;stroke-width:1;"/><path d="M3199.5674,300.8788 L3199.5674,310.8788 L3209.5674,310.8788 L3199.5674,300.8788" fill="#FFFFFF" style="stroke:#000000;stroke-width:1;"/><text fill="#000000" font-family="Verdana" font-size="13" lengthAdjust="spacing" textLength="114.9243" x="3030.69" y="317.9456">Sistema actualiza</text><text fill="#000000" font-family="Verdana" font-size="13" lengthAdjust="spacing" textLength="163.8774" x="3030.69" y="333.0785">autom&#225;ticamente estado</text><text fill="#000000" font-family="Verdana" font-size="13" lengthAdjust="spacing" textLength="74.293" x="3030.69" y="348.2113">tras evento</text></g><g class="entity" data-qualified-name="GMN69" data-source-line="131" id="ent0070"><path d="M2772.28,433.6388 L2772.28,489.0372 L2919.9792,489.0372 L2919.9792,443.6388 L2909.9792,433.6388 L2772.28,433.6388" fill="#FFFFFF" style="stroke:#000000;stroke-width:1;"/><path d="M2909.9792,433.6388 L2909.9792,443.6388 L2919.9792,443.6388 L2909.9792,433.6388" fill="#FFFFFF" style="stroke:#000000;stroke-width:1;"/><text fill="#000000" font-family="Verdana" font-size="13" lengthAdjust="spacing" textLength="109.9985" x="2778.28" y="450.7056">Mostrar estado e</text><text fill="#000000" font-family="Verdana" font-size="13" lengthAdjust="spacing" textLength="126.6992" x="2778.28" y="465.8385">ubicaci&#243;n actual en</text><text fill="#000000" font-family="Verdana" font-size="13" lengthAdjust="spacing" textLength="74.6294" x="2778.28" y="480.9713">tiempo real</text></g><g class="entity" data-qualified-name="GMN72" data-source-line="137" id="ent0073"><path d="M2124.77,300.8788 L2124.77,356.2772 L2281.5019,356.2772 L2281.5019,310.8788 L2271.5019,300.8788 L2124.77,300.8788" fill="#FFFFFF" style="stroke:#000000;stroke-width:1;"/><path d="M2271.5019,300.8788 L2271.5019,310.8788 L2281.5019,310.8788 L2271.5019,300.8788" fill="#FFFFFF" style="stroke:#000000;stroke-width:1;"/><text fill="#000000" font-family="Verdana" font-size="13" lengthAdjust="spacing" textLength="119.8374" x="2130.77" y="317.9456">Ejecutar copias de</text><text fill="#000000" font-family="Verdana" font-size="13" lengthAdjust="spacing" textLength="135.7319" x="2130.77" y="333.0785">seguridad peri&#243;dicas</text><text fill="#000000" font-family="Verdana" font-size="13" lengthAdjust="spacing" textLength="96.3765" x="2130.77" y="348.2113">automatizadas</text></g><g class="entity" data-qualified-name="GMN75" data-source-line="143" id="ent0076"><path d="M2125.18,433.6388 L2125.18,489.0372 L2297.0828,489.0372 L2297.0828,443.6388 L2287.0828,433.6388 L2125.18,433.6388" fill="#FFFFFF" style="stroke:#000000;stroke-width:1;"/><path d="M2287.0828,433.6388 L2287.0828,443.6388 L2297.0828,443.6388 L2287.0828,433.6388" fill="#FFFFFF" style="stroke:#000000;stroke-width:1;"/><text fill="#000000" font-family="Verdana" font-size="13" lengthAdjust="spacing" textLength="150.9028" x="2131.18" y="450.7056">Recuperar datos desde</text><text fill="#000000" font-family="Verdana" font-size="13" lengthAdjust="spacing" textLength="147.2466" x="2131.18" y="465.8385">respaldos ante errores</text><text fill="#000000" font-family="Verdana" font-size="13" lengthAdjust="spacing" textLength="75.061" x="2131.18" y="480.9713">o desastres</text></g><!--link SistemaAuth to CU35--><g class="link" data-entity-1="ent0006" data-entity-2="ent0009" data-link-type="dependency" data-source-line="49" id="lnk23"><path d="M1763.17,159.5988 C1718.7,203.7888 1651.0664,271 1617.1864,304.66" fill="none" id="SistemaAuth-to-CU35" style="stroke:#000000;stroke-width:1;"/><polygon fill="#000000" points="1612.93,308.8888,1622.1339,305.3832,1616.477,305.3648,1616.4955,299.7079,1612.93,308.8888" style="stroke:#000000;stroke-width:1;"/><text fill="#000000" font-family="Verdana" font-size="13" lengthAdjust="spacing" textLength="62.2896" x="1729.13" y="202.5756">Autentica</text></g><!--link Administrador to CU35--><g class="link" data-entity-1="ent0002" data-entity-2="ent0009" data-link-type="dependency" data-source-line="50" id="lnk24"><path d="M492.88,121.9188 C673.41,122.7988 1292.67,131.9088 1469.13,214.5088 C1516.57,236.7188 1554.9921,278.4956 1576.0921,304.4156" fill="none" id="Administrador-to-CU35" style="stroke:#000000;stroke-width:1;"/><polygon fill="#000000" points="1579.88,309.0688,1577.3003,299.5637,1576.7234,305.1911,1571.0961,304.6143,1579.88,309.0688" style="stroke:#000000;stroke-width:1;"/><text fill="#000000" font-family="Verdana" font-size="13" lengthAdjust="spacing" textLength="34.4106" x="1442.13" y="202.5756">Inicia</text></g><!--link GerenteSede to CU35--><g class="link" data-entity-1="ent0003" data-entity-2="ent0009" data-link-type="dependency" data-source-line="51" id="lnk25"><path d="M3459.62,138.5188 C3429.21,146.3088 3391.47,154.8688 3357.13,159.5088 C2846.69,228.5588 2713.99,190.9388 2199.13,206.5088 C2154.48,207.8588 1840.26,202.8488 1797.13,214.5088 C1726.45,233.6188 1658.7721,278.8984 1622.5621,305.7084" fill="none" id="GerenteSede-to-CU35" style="stroke:#000000;stroke-width:1;"/><polygon fill="#000000" points="1617.74,309.2788,1627.3534,307.138,1621.7584,306.3035,1622.593,300.7085,1617.74,309.2788" style="stroke:#000000;stroke-width:1;"/><text fill="#000000" font-family="Verdana" font-size="13" lengthAdjust="spacing" textLength="34.4106" x="3067.13" y="202.5756">Inicia</text></g><!--link OperadorLogistico to CU35--><g class="link" data-entity-1="ent0004" data-entity-2="ent0009" data-link-type="dependency" data-source-line="52" id="lnk26"><path d="M3206.57,125.9888 C2919.49,143.8088 1801.43,213.2488 1797.13,214.5088 C1727.26,235.0188 1659.8628,279.3041 1623.3228,305.7141" fill="none" id="OperadorLogistico-to-CU35" style="stroke:#000000;stroke-width:1;"/><polygon fill="#000000" points="1618.46,309.2288,1628.0973,307.1986,1622.5123,306.2998,1623.4111,300.7148,1618.46,309.2288" style="stroke:#000000;stroke-width:1;"/><text fill="#000000" font-family="Verdana" font-size="13" lengthAdjust="spacing" textLength="34.4106" x="2156.13" y="202.5756">Inicia</text></g><!--link Auditor to CU35--><g class="link" data-entity-1="ent0005" data-entity-2="ent0009" data-link-type="dependency" data-source-line="53" id="lnk27"><path d="M1594.13,159.5988 C1594.13,203.6688 1594.13,268.8488 1594.13,302.6288" fill="none" id="Auditor-to-CU35" style="stroke:#000000;stroke-width:1;"/><polygon fill="#000000" points="1594.13,308.6288,1598.13,299.6288,1594.13,303.6288,1590.13,299.6288,1594.13,308.6288" style="stroke:#000000;stroke-width:1;"/><text fill="#000000" font-family="Verdana" font-size="13" lengthAdjust="spacing" textLength="34.4106" x="1595.13" y="202.5756">Inicia</text></g><!--link Administrador to CU36--><g class="link" data-entity-1="ent0002" data-entity-2="ent0010" data-link-type="dependency" data-source-line="55" id="lnk28"><path d="M426.8,159.8788 C420.57,176.3488 414.23,196.0488 411.13,214.5088 C396.9,299.3388 374.36,366.9088 452.13,403.6388 C556.36,452.8688 1374.99,417.5388 1489.13,433.6388 C1506.67,436.1188 1519.7107,438.8899 1536.4807,443.3399" fill="none" id="Administrador-to-CU36" style="stroke:#000000;stroke-width:1;"/><polygon fill="#000000" points="1542.28,444.8788,1534.607,438.7042,1537.4473,443.5964,1532.5551,446.4366,1542.28,444.8788" style="stroke:#000000;stroke-width:1;"/><text fill="#000000" font-family="Verdana" font-size="13" lengthAdjust="spacing" textLength="39.3428" x="412.13" y="333.1456">Cierra</text></g><!--link GerenteSede to CU36--><g class="link" data-entity-1="ent0003" data-entity-2="ent0010" data-link-type="dependency" data-source-line="56" id="lnk29"><path d="M3514.07,159.5888 C3504.84,212.5688 3480.04,307.9488 3417.13,356.6388 C3311.1,438.7088 3252.68,391.6488 3119.13,403.6388 C2533.78,456.2088 2383.12,388.7788 1797.13,433.6388 C1752.44,437.0588 1708.4773,442.6837 1669.2173,448.4037" fill="none" id="GerenteSede-to-CU36" style="stroke:#000000;stroke-width:1;"/><polygon fill="#000000" points="1663.28,449.2688,1672.7627,451.9294,1668.2278,448.5479,1671.6093,444.013,1663.28,449.2688" style="stroke:#000000;stroke-width:1;"/><text fill="#000000" font-family="Verdana" font-size="13" lengthAdjust="spacing" textLength="39.3428" x="3501.13" y="333.1456">Cierra</text></g><!--link OperadorLogistico to CU36--><g class="link" data-entity-1="ent0004" data-entity-2="ent0010" data-link-type="dependency" data-source-line="57" id="lnk30"><path d="M3271.2,159.7188 C3267.3,219.4488 3256.21,331.3688 3227.13,356.6388 C3107.04,461.0288 1955.58,419.0288 1797.13,433.6388 C1752.85,437.7288 1709.331,443.3092 1670.201,448.8392" fill="none" id="OperadorLogistico-to-CU36" style="stroke:#000000;stroke-width:1;"/><polygon fill="#000000" points="1664.26,449.6788,1673.7312,452.38,1669.2108,448.9791,1672.6117,444.4587,1664.26,449.6788" style="stroke:#000000;stroke-width:1;"/><text fill="#000000" font-family="Verdana" font-size="13" lengthAdjust="spacing" textLength="39.3428" x="3267.13" y="333.1456">Cierra</text></g><!--link Administrador to CU37--><g class="link" data-entity-1="ent0002" data-entity-2="ent0011" data-link-type="dependency" data-source-line="59" id="lnk31"><path d="M493.08,127.9588 C657.98,148.0988 1175,211.4088 1183.13,214.5088 C1238.55,235.6288 1288.8123,275.2388 1318.9323,301.6988" fill="none" id="Administrador-to-CU37" style="stroke:#000000;stroke-width:1;"/><polygon fill="#000000" points="1323.44,305.6588,1319.3185,296.7138,1319.6836,302.3588,1314.0386,302.724,1323.44,305.6588" style="stroke:#000000;stroke-width:1;"/><text fill="#000000" font-family="Verdana" font-size="13" lengthAdjust="spacing" textLength="57.7129" x="1117.13" y="202.5756">Gestiona</text></g><!--link Administrador to CU38--><g class="link" data-entity-1="ent0002" data-entity-2="ent0012" data-link-type="dependency" data-source-line="60" id="lnk32"><path d="M393.1,140.5988 C361.37,155.4088 322.88,179.4788 304.13,214.5088 C262.39,292.4988 282.82,373.9188 366.13,403.6388 C451.69,434.1588 1092.74,424.6588 1183.13,433.6388 C1206.1,435.9188 1224.7953,438.4412 1247.8053,442.1212" fill="none" id="Administrador-to-CU38" style="stroke:#000000;stroke-width:1;"/><polygon fill="#000000" points="1253.73,443.0688,1245.4746,437.6976,1248.7927,442.2791,1244.2112,445.5972,1253.73,443.0688" style="stroke:#000000;stroke-width:1;"/><text fill="#000000" font-family="Verdana" font-size="13" lengthAdjust="spacing" textLength="43.7354" x="305.13" y="333.1456">Asigna</text></g><!--link CU35 to CU36--><g class="link" data-entity-1="ent0009" data-entity-2="ent0010" data-link-type="dependency" data-source-line="62" id="lnk33"><path d="M1593.99,348.5888 C1593.8,373.3788 1593.516,410.4989 1593.326,435.2989" fill="none" id="CU35-to-CU36" style="stroke:#000000;stroke-width:1;stroke-dasharray:7,7;"/><polygon fill="#000000" points="1593.28,441.2988,1597.3488,432.3297,1593.3183,436.2989,1589.3491,432.2684,1593.28,441.2988" style="stroke:#000000;stroke-width:1;"/><text fill="#000000" font-family="Verdana" font-size="13" lengthAdjust="spacing" textLength="68.8975" x="1594.13" y="399.7056">&#171;precede&#187;</text></g><!--link CU37 to CU38--><g class="link" data-entity-1="ent0011" data-entity-2="ent0012" data-link-type="dependency" data-source-line="63" id="lnk34"><path d="M1347.13,352.0588 C1347.13,374.6888 1347.13,403.6088 1347.13,427.6488" fill="none" id="CU37-to-CU38" style="stroke:#000000;stroke-width:1;stroke-dasharray:7,7;"/><polygon fill="#000000" points="1347.13,433.6488,1351.13,424.6488,1347.13,428.6488,1343.13,424.6488,1347.13,433.6488" style="stroke:#000000;stroke-width:1;"/><text fill="#000000" font-family="Verdana" font-size="13" lengthAdjust="spacing" textLength="63.0068" x="1348.13" y="399.7056">&#171;include&#187;</text></g><!--link Administrador to CU39--><g class="link" data-entity-1="ent0002" data-entity-2="ent0014" data-link-type="dependency" data-source-line="66" id="lnk35"><path d="M393.29,123.0588 C331.1,127.5588 227,145.6588 178.13,214.5088 C141.57,266.0288 147.88,301.1888 178.13,356.6388 C196.61,390.5188 214.47,391.5988 251.13,403.6388 C352.04,436.7888 622.21,425.8088 728.13,433.6388 C798.38,438.8388 871.4132,445.0313 932.6032,450.4313" fill="none" id="Administrador-to-CU39" style="stroke:#000000;stroke-width:1;"/><polygon fill="#000000" points="938.58,450.9588,929.9665,446.1831,933.5994,450.5192,929.2632,454.1521,938.58,450.9588" style="stroke:#000000;stroke-width:1;"/><text fill="#000000" font-family="Verdana" font-size="13" lengthAdjust="spacing" textLength="54.0757" x="179.13" y="333.1456">Registra</text></g><!--link Auditor to CU40--><g class="link" data-entity-1="ent0005" data-entity-2="ent0015" data-link-type="dependency" data-source-line="67" id="lnk36"><path d="M1568.27,122.7188 C1507.01,125.5688 1349.22,137.7688 1230.13,189.5088 C1166.1,217.3288 1107.6066,266.5159 1073.5566,298.1359" fill="none" id="Auditor-to-CU40" style="stroke:#000000;stroke-width:1;"/><polygon fill="#000000" points="1069.16,302.2188,1078.4768,299.0255,1072.8239,298.8164,1073.033,293.1634,1069.16,302.2188" style="stroke:#000000;stroke-width:1;"/><text fill="#000000" font-family="Verdana" font-size="13" lengthAdjust="spacing" textLength="56.9575" x="1231.13" y="202.5756">Consulta</text></g><!--link Administrador to CU40--><g class="link" data-entity-1="ent0002" data-entity-2="ent0015" data-link-type="dependency" data-source-line="68" id="lnk37"><path d="M492.97,137.5588 C549.97,155.6288 646.04,186.4488 728.13,214.5088 C816.92,244.8688 913.4167,279.8632 976.7167,303.0732" fill="none" id="Administrador-to-CU40" style="stroke:#000000;stroke-width:1;"/><polygon fill="#000000" points="982.35,305.1388,975.2771,298.285,977.6556,303.4175,972.5231,305.796,982.35,305.1388" style="stroke:#000000;stroke-width:1;"/><text fill="#000000" font-family="Verdana" font-size="13" lengthAdjust="spacing" textLength="56.9575" x="698.13" y="202.5756">Consulta</text></g><!--link CU39 to CU41--><g class="link" data-entity-1="ent0014" data-entity-2="ent0016" data-link-type="dependency" data-source-line="70" id="lnk38"><path d="M1041.76,486.8788 C1041.42,509.7088 1040.9914,537.6694 1040.6314,561.2994" fill="none" id="CU39-to-CU41" style="stroke:#000000;stroke-width:1;stroke-dasharray:7,7;"/><polygon fill="#000000" points="1040.54,567.2988,1044.6766,558.3607,1040.6162,562.2993,1036.6776,558.2389,1040.54,567.2988" style="stroke:#000000;stroke-width:1;"/><text fill="#000000" font-family="Verdana" font-size="13" lengthAdjust="spacing" textLength="68.8975" x="1042.13" y="533.6356">&#171;precede&#187;</text></g><!--link CU40 to CU39--><g class="link" data-entity-1="ent0015" data-entity-2="ent0014" data-link-type="dependency" data-source-line="71" id="lnk39"><path d="M1042.93,355.7288 C1042.75,379.1288 1042.5347,407.1689 1042.3647,430.0089" fill="none" id="CU40-to-CU39" style="stroke:#000000;stroke-width:1;stroke-dasharray:7,7;"/><polygon fill="#000000" points="1042.32,436.0088,1046.3869,427.0388,1042.3572,431.0089,1038.3871,426.9792,1042.32,436.0088" style="stroke:#000000;stroke-width:1;"/><text fill="#000000" font-family="Verdana" font-size="13" lengthAdjust="spacing" textLength="63.0068" x="1043.13" y="399.7056">&#171;include&#187;</text></g><!--link SistemaAuth to CU42--><g class="link" data-entity-1="ent0006" data-entity-2="ent0018" data-link-type="dependency" data-source-line="74" id="lnk40"><path d="M1826.81,159.5988 C1854.6,200.4188 1894.834,259.5486 1919.384,295.6186" fill="none" id="SistemaAuth-to-CU42" style="stroke:#000000;stroke-width:1;"/><polygon fill="#000000" points="1922.76,300.5788,1921.0028,290.8879,1919.9467,296.4453,1914.3893,295.3892,1922.76,300.5788" style="stroke:#000000;stroke-width:1;"/><text fill="#000000" font-family="Verdana" font-size="13" lengthAdjust="spacing" textLength="48.2739" x="1859.13" y="202.5756">Ejecuta</text></g><!--link OperadorLogistico to CU43--><g class="link" data-entity-1="ent0004" data-entity-2="ent0019" data-link-type="dependency" data-source-line="75" id="lnk41"><path d="M3300.06,159.6588 C3333.05,210.9788 3378.69,302.4788 3328.13,356.6388 C3235.45,455.9288 2243.11,418.5188 2108.13,433.6388 C2085.6,436.1688 2067.3177,438.7981 2044.7977,442.5681" fill="none" id="OperadorLogistico-to-CU43" style="stroke:#000000;stroke-width:1;"/><polygon fill="#000000" points="2038.88,443.5588,2048.4169,446.0179,2043.8114,442.7332,2047.096,438.1277,2038.88,443.5588" style="stroke:#000000;stroke-width:1;"/><text fill="#000000" font-family="Verdana" font-size="13" lengthAdjust="spacing" textLength="57.4971" x="3351.13" y="333.1456">Visualiza</text></g><!--link GerenteSede to CU43--><g class="link" data-entity-1="ent0003" data-entity-2="ent0019" data-link-type="dependency" data-source-line="76" id="lnk42"><path d="M3544.31,159.6688 C3574.76,210.5688 3616.31,301.1388 3568.13,356.6388 C3470.73,468.8488 3385.2,391.1988 3237.13,403.6388 C2736.94,445.6588 2607.73,385.0388 2108.13,433.6388 C2085.15,435.8788 2066.3772,438.4752 2043.5072,442.3152" fill="none" id="GerenteSede-to-CU43" style="stroke:#000000;stroke-width:1;"/><polygon fill="#000000" points="2037.59,443.3088,2047.1281,445.7632,2042.521,442.4808,2045.8034,437.8737,2037.59,443.3088" style="stroke:#000000;stroke-width:1;"/><text fill="#000000" font-family="Verdana" font-size="13" lengthAdjust="spacing" textLength="57.4971" x="3590.13" y="333.1456">Visualiza</text></g><!--link Auditor to CU43--><g class="link" data-entity-1="ent0005" data-entity-2="ent0019" data-link-type="dependency" data-source-line="77" id="lnk43"><path d="M1619.8,134.0188 C1639.62,142.7788 1667.99,154.0088 1694.13,159.5088 C1802.37,182.3188 2612.11,134.1688 2688.13,214.5088 C2731.55,260.3988 2729.76,309.1288 2688.13,356.6388 C2602.46,454.4388 2236.7,414.2488 2108.13,433.6388 C2086.68,436.8788 2069.5472,439.6253 2047.8672,443.2653" fill="none" id="Auditor-to-CU43" style="stroke:#000000;stroke-width:1;"/><polygon fill="#000000" points="2041.95,444.2588,2051.4881,446.7133,2046.881,443.4309,2050.1635,438.8238,2041.95,444.2588" style="stroke:#000000;stroke-width:1;"/><text fill="#000000" font-family="Verdana" font-size="13" lengthAdjust="spacing" textLength="57.4971" x="2720.13" y="333.1456">Visualiza</text></g><!--link CU42 to CU43--><g class="link" data-entity-1="ent0018" data-entity-2="ent0019" data-link-type="dependency" data-source-line="79" id="lnk44"><path d="M1943.02,356.9888 C1944.6,379.9088 1946.4183,406.3629 1947.9583,428.7529" fill="none" id="CU42-to-CU43" style="stroke:#000000;stroke-width:1;stroke-dasharray:7,7;"/><polygon fill="#000000" points="1948.37,434.7388,1951.743,425.4855,1948.0269,429.7505,1943.7619,426.0344,1948.37,434.7388" style="stroke:#000000;stroke-width:1;"/><text fill="#000000" font-family="Verdana" font-size="13" lengthAdjust="spacing" textLength="63.0068" x="1947.13" y="399.7056">&#171;include&#187;</text></g><!--link Administrador to CU44--><g class="link" data-entity-1="ent0002" data-entity-2="ent0021" data-link-type="dependency" data-source-line="82" id="lnk45"><path d="M470.09,159.5988 C499.69,200.9988 542.881,261.4575 568.441,297.2175" fill="none" id="Administrador-to-CU44" style="stroke:#000000;stroke-width:1;"/><polygon fill="#000000" points="571.93,302.0988,569.9507,292.4508,569.0225,298.031,563.4423,297.1028,571.93,302.0988" style="stroke:#000000;stroke-width:1;"/><text fill="#000000" font-family="Verdana" font-size="13" lengthAdjust="spacing" textLength="48.2739" x="504.13" y="202.5756">Ejecuta</text></g><!--link Administrador to CU45--><g class="link" data-entity-1="ent0002" data-entity-2="ent0022" data-link-type="dependency" data-source-line="83" id="lnk46"><path d="M393.42,125.6788 C296.56,134.2788 88.51,158.9588 48.13,214.5088 C11,265.6088 17.22,301.5588 48.13,356.6388 C88.69,428.9088 315.9561,450.588 462.9461,457.228" fill="none" id="Administrador-to-CU45" style="stroke:#000000;stroke-width:1;"/><polygon fill="#000000" points="468.94,457.4988,460.1297,453.0967,463.9451,457.2731,459.7687,461.0885,468.94,457.4988" style="stroke:#000000;stroke-width:1;"/><text fill="#000000" font-family="Verdana" font-size="13" lengthAdjust="spacing" textLength="58.4175" x="49.13" y="333.1456">Restaura</text></g><!--link CU44 to CU45--><g class="link" data-entity-1="ent0021" data-entity-2="ent0022" data-link-type="dependency" data-source-line="85" id="lnk47"><path d="M590.13,355.4088 C590.13,378.1888 590.13,405.2188 590.13,428.1088" fill="none" id="CU44-to-CU45" style="stroke:#000000;stroke-width:1;stroke-dasharray:7,7;"/><polygon fill="#000000" points="590.13,434.1088,594.13,425.1088,590.13,429.1088,586.13,425.1088,590.13,434.1088" style="stroke:#000000;stroke-width:1;"/><text fill="#000000" font-family="Verdana" font-size="13" lengthAdjust="spacing" textLength="68.8975" x="591.13" y="399.7056">&#171;precede&#187;</text></g><!--link CU35 to GMN48--><g class="link" data-entity-1="ent0009" data-entity-2="ent0049" data-link-type="association" data-source-line="89" id="lnk50"><path d="M1615.17,309.0188 C1652.12,276.1488 1732.57,211.0888 1814.63,187.0088 C1866.66,171.7488 2741.36,164.3688 2790.63,187.0088 C2841.4,210.3388 2878.92,266.5088 2897.99,300.6688" fill="none" id="CU35-GMN48" style="stroke:#000000;stroke-width:1;stroke-dasharray:7,7;"/></g><!--link CU37 to GMN51--><g class="link" data-entity-1="ent0011" data-entity-2="ent0052" data-link-type="association" data-source-line="95" id="lnk53"><path d="M1364.19,305.3688 C1390.54,271.7088 1444.73,210.7888 1507.63,187.0088 C1588.08,156.6088 2203.94,150.1288 2281.63,187.0088 C2330.92,210.4088 2366.12,266.2688 2383.91,300.4088" fill="none" id="CU37-GMN51" style="stroke:#000000;stroke-width:1;stroke-dasharray:7,7;"/></g><!--link CU38 to GMN54--><g class="link" data-entity-1="ent0012" data-entity-2="ent0055" data-link-type="association" data-source-line="101" id="lnk56"><path d="M1394.78,435.7488 C1425.69,420.6288 1467.38,402.9588 1506.63,395.1388 C1727.18,351.1888 2300.25,341.4488 2518.63,395.1388 C2548.96,402.5988 2580.08,418.7488 2603.86,433.2288" fill="none" id="CU38-GMN54" style="stroke:#000000;stroke-width:1;stroke-dasharray:7,7;"/></g><!--link CU39 to GMN57--><g class="link" data-entity-1="ent0014" data-entity-2="ent0058" data-link-type="association" data-source-line="107" id="lnk59"><path d="M1090.81,438.4088 C1126.86,422.7488 1177.66,403.3988 1224.63,395.1388 C1459.26,353.8988 2065.12,339.0088 2296.63,395.1388 C2327.36,402.5888 2358.97,418.7488 2383.15,433.2288" fill="none" id="CU39-GMN57" style="stroke:#000000;stroke-width:1;stroke-dasharray:7,7;"/></g><!--link CU40 to GMN60--><g class="link" data-entity-1="ent0015" data-entity-2="ent0061" data-link-type="association" data-source-line="113" id="lnk62"><path d="M1066.01,302.1488 C1097.62,267.8888 1158.31,209.8188 1224.63,187.0088 C1290.46,164.3788 2414.81,157.0288 2477.63,187.0088 C2526.7,210.4288 2561.52,266.2888 2579.09,300.4188" fill="none" id="CU40-GMN60" style="stroke:#000000;stroke-width:1;stroke-dasharray:7,7;"/></g><!--link CU42 to GMN66--><g class="link" data-entity-1="ent0018" data-entity-2="ent0067" data-link-type="association" data-source-line="125" id="lnk68"><path d="M1965.72,300.6688 C1998.11,266.2288 2058.75,209.4688 2124.63,187.0088 C2215.6,155.9988 2901.83,147.9288 2989.63,187.0088 C3041.76,210.2188 3081.53,266.4288 3101.92,300.6288" fill="none" id="CU42-GMN66" style="stroke:#000000;stroke-width:1;stroke-dasharray:7,7;"/></g><!--link CU43 to GMN69--><g class="link" data-entity-1="ent0019" data-entity-2="ent0070" data-link-type="association" data-source-line="131" id="lnk71"><path d="M1999.82,437.0788 C2034.22,421.6788 2081.58,403.1688 2125.63,395.1388 C2259.21,370.7888 2605.84,358.6788 2736.63,395.1388 C2763.59,402.6588 2790.54,418.8088 2810.96,433.2788" fill="none" id="CU43-GMN69" style="stroke:#000000;stroke-width:1;stroke-dasharray:7,7;"/></g><!--link CU44 to GMN72--><g class="link" data-entity-1="ent0021" data-entity-2="ent0073" data-link-type="association" data-source-line="137" id="lnk74"><path d="M632.32,303.3788 C692.49,269.0688 807.53,209.3588 914.63,187.0088 C977.34,173.9288 2008.72,161.8488 2067.63,187.0088 C2121.6,210.0588 2164.36,266.3288 2186.52,300.5788" fill="none" id="CU44-GMN72" style="stroke:#000000;stroke-width:1;stroke-dasharray:7,7;"/></g><!--link CU45 to GMN75--><g class="link" data-entity-1="ent0022" data-entity-2="ent0076" data-link-type="association" data-source-line="143" id="lnk77"><path d="M669.46,440.4988 C734.74,424.4788 829.97,403.6888 914.63,395.1388 C1169.56,369.3988 1817.37,340.1988 2067.63,395.1388 C2101.4,402.5588 2136.69,418.7088 2163.82,433.1988" fill="none" id="CU45-GMN75" style="stroke:#000000;stroke-width:1;stroke-dasharray:7,7;"/></g><?plantuml-src bLVDRjiu4BxhAMQpXssncyQnvSGnYW29wxG1jjb5skmf5qPY76ubKYKf0-cY3zC7wAcFu1VR6OgqbOXMKWK8R77ccvblVZZ-nTxnaaDLC24Jyqd8YcbMmWtBFYsqgcK-KuNIyElPdFvQ4bd1Z3djYBcd8wPqphKN6Rcd9S8ogtG7QN8ucyzFEsAzIBNX6JCyvjNaw2GY645BhB05Xnapoa3EuSee-AYPD4kk3IkuWHUN5sSlh-KRmHQ8nKYeBPqapbCuoKiXXR6QvKhxTpjlkURISXBzm7E-0yo0VqVVWzXV5NTgyATQhBuRApBbHCDxV2tSss2hpeNTMFc0XxpnxAIs22uobedL3-b0_2cUt2M9vfbbSe4HjxNUSaH7-PPzs8LB_haM1WqPk51mLijCA4cKxC1_2U3Z_lq6oC_kO7-A4IvgBNAMmptCbBHQ5SwbBED84ybMc2csGDlFKjcXJCxJqx4tHu_F9EpChdP7uocSIv49fX78h0EUNOt6SOM3ASourbtvWxZyuRIX1iFMcEkQQQ5Cq3cCwqocS6B4WZGk5TNFFVpDTIdCHdFYDBzsE1p2NlFXa0ApVD5GypiLv1Ts8mhtrIMVtHGyGkbmxoVqaT_v01aUREFtQ8eri70rlQwvrNTsBLqBb3SjCewY2EbWIcarTM4V8EnTotS8gxHW1NJ0qa4S3Elbj52VQuvOxrKkRaEPKtEwmYQiTgm1S7yBuUD0k8jKvg8Ks3sgAKP3_O4rpu1B-2XuMIaKOaM4zl7UqoXDDG-sifqEiN0oMxD2V6d2mXoMF1VCDepFZSLPi7Tryw2xCRfX76yqXN-4QV2qrxwMZOb78GMaKPod_G45PYfMv1JL9Szg6apEYIuRVTAkvAZejf6GJc7-BsfGlGIGQuaDXDfkBBt0EQRArJVwyZBudSR1niuHosggttDvgtGP2YRd1YaD5WBEsCV_DKamSbumcdZOmi-RSAr12xkxnsuEmNGpafC7LqHRf9bYIUjcY9nsBeE8Z6-no4dS-04Ap0IDn9ZnrkbMuosPk8b3s0pHkCG4miXC4kVqgrThwDUlA-nizEduE75W_cpYpeJCYjgTHVBrizCqwjiHR6RW8tRJ0MocMrJxeKJYu1h_q_rER2ZiOpjwEhRd3Qv8HQP3M7VOrgIc8sZDZaXbF19unCl3myGPzM6FdWojTzP4IKvR4KK5nh2P0ywTDBWpVfG5TET2MKQhdScqgAnOCfD8XHkS5eix2-esR1T-6m3XsWjCiq_W0KvMNe3norMcw5sc4PyoGll0SlMDIiyac3SWxAHhWNOB5mkfiZze6VPq0YZ4ntnB1AynByxRX2PVivxqmTBYyORVeiyQf5XoSWUJoiA6TW-LNrLm8593vlI90c0v0vnsVU2q0eITKlkMGKLti-CHna41429Iv0NSYQ848zMzlhkbOBDBR73l46VrGsFrqgh5rZi67c5egYaUAgy-S5eGpiiARriDPNkr89JDRf4pgppTjZL4-f27BLRQMMJhQuoLxYS2TnTqWumKBQcV-u3fhdwlcjsiqGLN1klrm9j3jWcqkUmf2NsWT96kxzzCLI9KbrdVV9MxYtEqOa8Oc3nCR6z5kwirDBDU4saSkFRzZhNccD1QuIjNwYZ2CCPMzlu7?></g></svg>