<?xml version="1.0" encoding="us-ascii" standalone="no"?><svg xmlns="http://www.w3.org/2000/svg" xmlns:xlink="http://www.w3.org/1999/xlink" contentStyleType="text/css" height="571px" preserveAspectRatio="none" style="width:828px;height:571px;background:#FFFFFF;" version="1.1" viewBox="0 0 828 571" width="828px" zoomAndPan="magnify"><defs/><g><text fill="#000000" font-family="sans-serif" font-size="14" font-weight="bold" lengthAdjust="spacing" textLength="263" x="275.5" y="22.9951">RF-02 - Gestion de contenedores</text><!--cluster Sistema Logistico--><g id="cluster_Sistema Logistico"><rect fill="none" height="323" rx="2.5" ry="2.5" style="stroke:#181818;stroke-width:1.0;" width="643" x="179" y="154.7969"/><text fill="#000000" font-family="sans-serif" font-size="14" font-weight="bold" lengthAdjust="spacing" textLength="138" x="431.5" y="169.792">Sistema Logistico</text></g><g id="elem_CU05"><ellipse cx="320.93" cy="325.8441" fill="#F1F1F1" rx="115.43" ry="26.0473" style="stroke:#181818;stroke-width:0.5;"/><text fill="#000000" font-family="sans-serif" font-size="14" lengthAdjust="spacing" textLength="43" x="299.43" y="320.5424">CU-05</text><text fill="#000000" font-family="sans-serif" font-size="14" lengthAdjust="spacing" textLength="147" x="247.43" y="336.8393">Registrar contenedor</text></g><g id="elem_CU06"><ellipse cx="688.2474" cy="226.8463" fill="#F1F1F1" rx="118.2474" ry="26.0495" style="stroke:#181818;stroke-width:0.5;"/><text fill="#000000" font-family="sans-serif" font-size="14" lengthAdjust="spacing" textLength="43" x="666.7474" y="221.5446">CU-06</text><text fill="#000000" font-family="sans-serif" font-size="14" lengthAdjust="spacing" textLength="151" x="612.7474" y="237.8415">Consultar contenedor</text></g><g id="elem_CU07"><ellipse cx="321.0366" cy="424.8678" fill="#F1F1F1" rx="126.0366" ry="37.5709" style="stroke:#181818;stroke-width:0.5;"/><text fill="#000000" font-family="sans-serif" font-size="14" lengthAdjust="spacing" textLength="43" x="299.5366" y="411.4176">CU-07</text><text fill="#000000" font-family="sans-serif" font-size="14" lengthAdjust="spacing" textLength="162" x="240.0366" y="427.7144">Actualizar datos/estado</text><text fill="#000000" font-family="sans-serif" font-size="14" lengthAdjust="spacing" textLength="103" x="269.5366" y="444.0113">de contenedor</text></g><g id="elem_CU08"><ellipse cx="320.9594" cy="226.8678" fill="#F1F1F1" rx="98.4594" ry="37.5709" style="stroke:#181818;stroke-width:0.5;"/><text fill="#000000" font-family="sans-serif" font-size="14" lengthAdjust="spacing" textLength="43" x="299.4594" y="213.4176">CU-08</text><text fill="#000000" font-family="sans-serif" font-size="14" lengthAdjust="spacing" textLength="123" x="259.4594" y="229.7144">Consultar historial</text><text fill="#000000" font-family="sans-serif" font-size="14" lengthAdjust="spacing" textLength="106" x="267.9594" y="246.0113">del contenedor</text></g><!--entity Admin--><g id="elem_Admin"><ellipse cx="69" cy="315.2969" fill="#F1F1F1" rx="8" ry="8" style="stroke:#181818;stroke-width:0.5;"/><path d="M69,323.2969 L69,350.2969 M56,331.2969 L82,331.2969 M69,350.2969 L56,365.2969 M69,350.2969 L82,365.2969 " fill="none" style="stroke:#181818;stroke-width:0.5;"/><text fill="#000000" font-family="sans-serif" font-size="14" lengthAdjust="spacing" textLength="95" x="21.5" y="379.792">Administrador</text></g><!--entity Gerente--><g id="elem_Gerente"><ellipse cx="69" cy="51.2969" fill="#F1F1F1" rx="8" ry="8" style="stroke:#181818;stroke-width:0.5;"/><path d="M69,59.2969 L69,86.2969 M56,67.2969 L82,67.2969 M69,86.2969 L56,101.2969 M69,86.2969 L82,101.2969 " fill="none" style="stroke:#181818;stroke-width:0.5;"/><text fill="#000000" font-family="sans-serif" font-size="14" lengthAdjust="spacing" textLength="118" x="10" y="115.792">Gerente de sede</text></g><!--entity Operador--><g id="elem_Operador"><ellipse cx="69" cy="432.2969" fill="#F1F1F1" rx="8" ry="8" style="stroke:#181818;stroke-width:0.5;"/><path d="M69,440.2969 L69,467.2969 M56,448.2969 L82,448.2969 M69,467.2969 L56,482.2969 M69,467.2969 L82,482.2969 " fill="none" style="stroke:#181818;stroke-width:0.5;"/><text fill="#000000" font-family="sans-serif" font-size="14" lengthAdjust="spacing" textLength="126" x="6" y="496.792">Operador logistico</text></g><!--entity Auditor--><g id="elem_Auditor"><ellipse cx="69" cy="197.2969" fill="#F1F1F1" rx="8" ry="8" style="stroke:#181818;stroke-width:0.5;"/><path d="M69,205.2969 L69,232.2969 M56,213.2969 L82,213.2969 M69,232.2969 L56,247.2969 M69,232.2969 L82,247.2969 " fill="none" style="stroke:#181818;stroke-width:0.5;"/><text fill="#000000" font-family="sans-serif" font-size="14" lengthAdjust="spacing" textLength="49" x="44.5" y="261.792">Auditor</text></g><g id="elem_GMN21"><path d="M614.5,494.2969 L614.5,504.8869 L412.22,450.7569 L614.5,512.8869 L614.5,564.8281 A0,0 0 0 0 614.5,564.8281 L761.5,564.8281 A0,0 0 0 0 761.5,564.8281 L761.5,504.2969 L751.5,494.2969 L614.5,494.2969 A0,0 0 0 0 614.5,494.2969 " fill="#FEFFDD" style="stroke:#181818;stroke-width:0.5;"/><path d="M751.5,494.2969 L751.5,504.2969 L761.5,504.2969 L751.5,494.2969 " fill="#FEFFDD" style="stroke:#181818;stroke-width:0.5;"/><text fill="#000000" font-family="sans-serif" font-size="13" lengthAdjust="spacing" textLength="126" x="620.5" y="511.3638">Incluye cambios en:</text><text fill="#000000" font-family="sans-serif" font-size="13" lengthAdjust="spacing" textLength="53" x="620.5" y="526.4966">- estado</text><text fill="#000000" font-family="sans-serif" font-size="13" lengthAdjust="spacing" textLength="74" x="620.5" y="541.6294">- capacidad</text><text fill="#000000" font-family="sans-serif" font-size="13" lengthAdjust="spacing" textLength="112" x="620.5" y="556.7622">- ubicacion actual</text></g><g id="elem_GMN24"><path d="M241,98.7969 L241,139.0625 A0,0 0 0 0 241,139.0625 L317,139.0625 L321,189.2469 L325,139.0625 L401,139.0625 A0,0 0 0 0 401,139.0625 L401,108.7969 L391,98.7969 L241,98.7969 A0,0 0 0 0 241,98.7969 " fill="#FEFFDD" style="stroke:#181818;stroke-width:0.5;"/><path d="M391,98.7969 L391,108.7969 L401,108.7969 L391,98.7969 " fill="#FEFFDD" style="stroke:#181818;stroke-width:0.5;"/><text fill="#000000" font-family="sans-serif" font-size="13" lengthAdjust="spacing" textLength="139" x="247" y="115.8638">Muestra movimientos</text><text fill="#000000" font-family="sans-serif" font-size="13" lengthAdjust="spacing" textLength="112" x="247" y="130.9966">y estados previos</text></g><!--link Operador to CU05--><g id="link_Operador_CU05"><path d="M132.38,435.3969 C144.02,427.9769 155.01,418.8369 163,407.7969 C173.11,393.8069 159.29,382.4769 171,369.7969 C184.36,355.3269 196.553,347.5365 215.253,340.9265 " fill="none" id="Operador-to-CU05" style="stroke:#181818;stroke-width:1.0;"/><polygon fill="#181818" points="220.91,338.9269,211.0914,338.155,216.1958,340.5932,213.7576,345.6976,220.91,338.9269" style="stroke:#181818;stroke-width:1.0;"/></g><!--link Operador to CU06--><g id="link_Operador_CU06"><path d="M132.02,480.7969 C209.25,500.9369 343.6,524.2269 447,479.7969 C557.13,432.4669 637.421,312.1744 669.531,257.7544 " fill="none" id="Operador-to-CU06" style="stroke:#181818;stroke-width:1.0;"/><polygon fill="#181818" points="672.58,252.5869,664.5614,258.3055,670.0391,256.8931,671.4514,262.3709,672.58,252.5869" style="stroke:#181818;stroke-width:1.0;"/></g><!--link Operador to CU07--><g id="link_Operador_CU07"><path d="M132.05,453.2369 C142.39,451.7769 153,450.2569 163,448.7969 C177.87,446.6169 187.5873,445.1827 203.0173,442.8527 " fill="none" id="Operador-to-CU07" style="stroke:#181818;stroke-width:1.0;"/><polygon fill="#181818" points="208.95,441.9569,199.4536,439.3455,204.006,442.7034,200.6481,447.2558,208.95,441.9569" style="stroke:#181818;stroke-width:1.0;"/></g><!--link Operador to CU08--><g id="link_Operador_CU08"><path d="M113.69,423.4769 C120.46,416.1169 126.89,408.0869 132,399.7969 C160.98,352.7769 132.62,321.5169 171,281.7969 C187.86,264.3469 205.0936,254.4262 227.8536,246.2462 " fill="none" id="Operador-to-CU08" style="stroke:#181818;stroke-width:1.0;"/><polygon fill="#181818" points="233.5,244.2169,223.6775,243.4966,228.7947,245.908,226.3833,251.0251,233.5,244.2169" style="stroke:#181818;stroke-width:1.0;"/></g><!--link Gerente to CU06--><g id="link_Gerente_CU06"><path d="M128.16,71.2469 C203.36,61.0469 337.66,50.1469 447,80.7969 C531.06,104.3569 610.2725,162.5398 653.1025,197.6998 " fill="none" id="Gerente-to-CU06" style="stroke:#181818;stroke-width:1.0;"/><polygon fill="#181818" points="657.74,201.5069,653.3217,192.7047,653.8754,198.3344,648.2457,198.888,657.74,201.5069" style="stroke:#181818;stroke-width:1.0;"/></g><!--link Gerente to CU08--><g id="link_Gerente_CU08"><path d="M117.23,118.8169 C133.76,131.3269 152.75,144.8169 171,155.7969 C197.39,171.6769 222.434,184.2504 248.944,196.3804 " fill="none" id="Gerente-to-CU08" style="stroke:#181818;stroke-width:1.0;"/><polygon fill="#181818" points="254.4,198.8769,247.8803,191.4949,249.8534,196.7965,244.5517,198.7695,254.4,198.8769" style="stroke:#181818;stroke-width:1.0;"/></g><!--link Admin to CU05--><g id="link_Admin_CU05"><path d="M116.62,335.2669 C131.1,332.6869 147.15,330.2169 162,328.7969 C175.93,327.4569 184.5855,326.7927 199.1155,326.1727 " fill="none" id="Admin-to-CU05" style="stroke:#181818;stroke-width:1.0;"/><polygon fill="#181818" points="205.11,325.9169,195.9477,322.3042,200.1145,326.13,196.2887,330.2969,205.11,325.9169" style="stroke:#181818;stroke-width:1.0;"/></g><!--link Admin to CU07--><g id="link_Admin_CU07"><path d="M116.73,359.7469 C149.8,370.3369 189.3854,382.9983 228.8254,395.6183 " fill="none" id="Admin-to-CU07" style="stroke:#181818;stroke-width:1.0;"/><polygon fill="#181818" points="234.54,397.4469,227.1872,390.8943,229.7779,395.9231,224.7491,398.5138,234.54,397.4469" style="stroke:#181818;stroke-width:1.0;"/></g><!--link Auditor to CU08--><g id="link_Auditor_CU08"><path d="M93.52,226.7969 C123,226.7969 169.36,226.7969 216.31,226.7969 " fill="none" id="Auditor-to-CU08" style="stroke:#181818;stroke-width:1.0;"/><polygon fill="#181818" points="222.31,226.7969,213.31,222.7969,217.31,226.7969,213.31,230.7969,222.31,226.7969" style="stroke:#181818;stroke-width:1.0;"/></g><!--link CU08 to CU06--><g id="link_CU08_CU06"><path d="M419.81,226.7969 C465.95,226.7969 515.37,226.7969 563.75,226.7969 " fill="none" id="CU08-to-CU06" style="stroke:#181818;stroke-width:1.0;stroke-dasharray:7.0,7.0;"/><polygon fill="#181818" points="569.75,226.7969,560.75,222.7969,564.75,226.7969,560.75,230.7969,569.75,226.7969" style="stroke:#181818;stroke-width:1.0;"/><text fill="#000000" font-family="sans-serif" font-size="13" lengthAdjust="spacing" textLength="61" x="478" y="222.8638">&#171;include&#187;</text></g><!--SRC=[RP9DQ-D038RFgryXSdStBEI3KW8bqB3Gij3IMoxAZE8C7O_2pBXBMlhVAzjnahgzcB7qlez6qdZUPio2qPMxZDP5Djb9WFJYmfuYLRWdyq8bF-M3PspI54hF5uAq8ol_NIXnIpunG7PPfOztnVWF5hZYr13HCXe9cGDRYPm0o6I9EBgrbGikvQYKE49As4Rwz8eZgwkn9xRS2ewnNl9lpwqPlPGASaPQLHy-5Qgjots9xWnmQWX7J-hbYl3-J7c7NtLYGqdJo-TYF5c7HoxRoyQBRbhayday6SYdwx2Ka6gVVvHF1_BPEjoQN9DtRwgtb2Nzrk5f3-lmPNezO3O0p2_hxVIQ4Xtvnkn_SC_X0-0qkw9OT2qC8zDlaTcto1oWtzF9DGYefDthkT2NtvcckvrS69elNbrrGBp6cniNZAyjBnO0GHJUFLlPTeY_JVQWaw9guoGXXsiei1kX7WpfMtQMh9xhZJFwe- -Isf431uiDyWZUICvI7SbpUAYvMJfMykegftr9WiEHd70V-LNhdHcV]--></g></svg>