<?xml version="1.0" encoding="us-ascii" standalone="no"?><svg xmlns="http://www.w3.org/2000/svg" xmlns:xlink="http://www.w3.org/1999/xlink" contentStyleType="text/css" height="495px" preserveAspectRatio="none" style="width:816px;height:495px;background:#FFFFFF;" version="1.1" viewBox="0 0 816 495" width="816px" zoomAndPan="magnify"><defs/><g><text fill="#000000" font-family="sans-serif" font-size="14" font-weight="bold" lengthAdjust="spacing" textLength="284" x="259" y="22.9951">RF-06 - Asignacion de responsables</text><!--cluster Sistema Logistico--><g id="cluster_Sistema Logistico"><rect fill="none" height="235" rx="2.5" ry="2.5" style="stroke:#181818;stroke-width:1.0;" width="631" x="179" y="181.7969"/><text fill="#000000" font-family="sans-serif" font-size="14" font-weight="bold" lengthAdjust="spacing" textLength="138" x="425.5" y="196.792">Sistema Logistico</text></g><g id="elem_CU22"><ellipse cx="683.1873" cy="304.8678" fill="#F1F1F1" rx="111.1873" ry="37.5709" style="stroke:#181818;stroke-width:0.5;"/><text fill="#000000" font-family="sans-serif" font-size="14" lengthAdjust="spacing" textLength="43" x="661.6873" y="291.4176">CU-22</text><text fill="#000000" font-family="sans-serif" font-size="14" lengthAdjust="spacing" textLength="141" x="612.6873" y="307.7144">Asignar responsable</text><text fill="#000000" font-family="sans-serif" font-size="14" lengthAdjust="spacing" textLength="60" x="653.1873" y="324.0113">a evento</text></g><g id="elem_CU23"><ellipse cx="322.7229" cy="363.8678" fill="#F1F1F1" rx="114.7229" ry="37.5709" style="stroke:#181818;stroke-width:0.5;"/><text fill="#000000" font-family="sans-serif" font-size="14" lengthAdjust="spacing" textLength="43" x="301.2229" y="350.4176">CU-23</text><text fill="#000000" font-family="sans-serif" font-size="14" lengthAdjust="spacing" textLength="146" x="249.7229" y="366.7144">Cambiar responsable</text><text fill="#000000" font-family="sans-serif" font-size="14" lengthAdjust="spacing" textLength="70" x="287.7229" y="383.0113">de evento</text></g><g id="elem_CU24"><ellipse cx="322.4508" cy="253.8678" fill="#F1F1F1" rx="127.4508" ry="37.5709" style="stroke:#181818;stroke-width:0.5;"/><text fill="#000000" font-family="sans-serif" font-size="14" lengthAdjust="spacing" textLength="43" x="300.9508" y="240.4176">CU-24</text><text fill="#000000" font-family="sans-serif" font-size="14" lengthAdjust="spacing" textLength="164" x="240.4508" y="256.7144">Consultar responsables</text><text fill="#000000" font-family="sans-serif" font-size="14" lengthAdjust="spacing" textLength="137" x="253.9508" y="273.0113">por evento/proceso</text></g><!--entity Admin--><g id="elem_Admin"><ellipse cx="69" cy="162.2969" fill="#F1F1F1" rx="8" ry="8" style="stroke:#181818;stroke-width:0.5;"/><path d="M69,170.2969 L69,197.2969 M56,178.2969 L82,178.2969 M69,197.2969 L56,212.2969 M69,197.2969 L82,212.2969 " fill="none" style="stroke:#181818;stroke-width:0.5;"/><text fill="#000000" font-family="sans-serif" font-size="14" lengthAdjust="spacing" textLength="95" x="21.5" y="226.792">Administrador</text></g><!--entity Gerente--><g id="elem_Gerente"><ellipse cx="69" cy="384.2969" fill="#F1F1F1" rx="8" ry="8" style="stroke:#181818;stroke-width:0.5;"/><path d="M69,392.2969 L69,419.2969 M56,400.2969 L82,400.2969 M69,419.2969 L56,434.2969 M69,419.2969 L82,434.2969 " fill="none" style="stroke:#181818;stroke-width:0.5;"/><text fill="#000000" font-family="sans-serif" font-size="14" lengthAdjust="spacing" textLength="118" x="10" y="448.792">Gerente de sede</text></g><!--entity Operador--><g id="elem_Operador"><ellipse cx="69" cy="51.2969" fill="#F1F1F1" rx="8" ry="8" style="stroke:#181818;stroke-width:0.5;"/><path d="M69,59.2969 L69,86.2969 M56,67.2969 L82,67.2969 M69,86.2969 L56,101.2969 M69,86.2969 L82,101.2969 " fill="none" style="stroke:#181818;stroke-width:0.5;"/><text fill="#000000" font-family="sans-serif" font-size="14" lengthAdjust="spacing" textLength="126" x="6" y="115.792">Operador logistico</text></g><!--entity Auditor--><g id="elem_Auditor"><ellipse cx="69" cy="273.2969" fill="#F1F1F1" rx="8" ry="8" style="stroke:#181818;stroke-width:0.5;"/><path d="M69,281.2969 L69,308.2969 M56,289.2969 L82,289.2969 M69,308.2969 L56,323.2969 M69,308.2969 L82,323.2969 " fill="none" style="stroke:#181818;stroke-width:0.5;"/><text fill="#000000" font-family="sans-serif" font-size="14" lengthAdjust="spacing" textLength="49" x="44.5" y="337.792">Auditor</text></g><g id="elem_GMN20"><path d="M603,433.2969 L603,435.3769 L411.2,387.5269 L603,443.3769 L603,488.6953 A0,0 0 0 0 603,488.6953 L763,488.6953 A0,0 0 0 0 763,488.6953 L763,443.2969 L753,433.2969 L603,433.2969 A0,0 0 0 0 603,433.2969 " fill="#FEFFDD" style="stroke:#181818;stroke-width:0.5;"/><path d="M753,433.2969 L753,443.2969 L763,443.2969 L753,433.2969 " fill="#FEFFDD" style="stroke:#181818;stroke-width:0.5;"/><text fill="#000000" font-family="sans-serif" font-size="13" lengthAdjust="spacing" textLength="82" x="609" y="450.3638">Aplica solo si</text><text fill="#000000" font-family="sans-serif" font-size="13" lengthAdjust="spacing" textLength="139" x="609" y="465.4966">las reglas del proceso</text><text fill="#000000" font-family="sans-serif" font-size="13" lengthAdjust="spacing" textLength="124" x="609" y="480.6294">permiten el cambio</text></g><!--link Operador to CU22--><g id="link_Operador_CU22"><path d="M132.04,85.5169 C225.83,94.8169 407.08,121.3469 542,193.7969 C580.12,214.2669 613.8063,241.3775 640.6263,265.4675 " fill="none" id="Operador-to-CU22" style="stroke:#181818;stroke-width:1.0;"/><polygon fill="#181818" points="645.09,269.4769,641.0673,260.487,641.3702,266.1357,635.7215,266.4386,645.09,269.4769" style="stroke:#181818;stroke-width:1.0;"/></g><!--link Operador to CU24--><g id="link_Operador_CU24"><path d="M125.5,118.9769 C169.05,148.9269 224.1866,186.8565 266.3166,215.8365 " fill="none" id="Operador-to-CU24" style="stroke:#181818;stroke-width:1.0;"/><polygon fill="#181818" points="271.26,219.2369,266.1119,210.8407,267.1405,216.4032,261.578,217.4318,271.26,219.2369" style="stroke:#181818;stroke-width:1.0;"/></g><!--link Gerente to CU22--><g id="link_Gerente_CU22"><path d="M128.22,423.0969 C203.59,433.2069 338.5,444.7069 450,418.7969 C516.66,403.3069 581.1133,368.9505 626.4733,341.1705 " fill="none" id="Gerente-to-CU22" style="stroke:#181818;stroke-width:1.0;"/><polygon fill="#181818" points="631.59,338.0369,621.8259,339.3262,627.3261,340.6482,626.0041,346.1484,631.59,338.0369" style="stroke:#181818;stroke-width:1.0;"/></g><!--link Gerente to CU23--><g id="link_Gerente_CU23"><path d="M128.01,402.2669 C156.45,396.6069 185.5852,390.8169 217.9752,384.3769 " fill="none" id="Gerente-to-CU23" style="stroke:#181818;stroke-width:1.0;"/><polygon fill="#181818" points="223.86,383.2069,214.2527,381.0388,218.956,384.1819,215.8128,388.8852,223.86,383.2069" style="stroke:#181818;stroke-width:1.0;"/></g><!--link Gerente to CU24--><g id="link_Gerente_CU24"><path d="M114.21,375.5069 C120.34,369.7269 126.44,363.7169 132,357.7969 C151.06,337.5069 148.42,325.0669 171,308.7969 C187.93,296.5969 202.2629,289.0141 221.9829,281.2941 " fill="none" id="Gerente-to-CU24" style="stroke:#181818;stroke-width:1.0;"/><polygon fill="#181818" points="227.57,279.1069,217.7311,278.663,222.9141,280.9296,220.6475,286.1125,227.57,279.1069" style="stroke:#181818;stroke-width:1.0;"/></g><!--link Admin to CU22--><g id="link_Admin_CU22"><path d="M116.7,186.3869 C189.19,179.3869 332.64,171.1069 450,198.7969 C513.79,213.8469 576.1084,244.025 621.7684,269.255 " fill="none" id="Admin-to-CU22" style="stroke:#181818;stroke-width:1.0;"/><polygon fill="#181818" points="627.02,272.1569,621.0772,264.303,622.6437,269.7387,617.208,271.3052,627.02,272.1569" style="stroke:#181818;stroke-width:1.0;"/></g><!--link Admin to CU23--><g id="link_Admin_CU23"><path d="M116.15,230.0369 C121.73,235.4369 127.16,241.0869 132,246.7969 C153.05,271.6269 145.68,288.3269 171,308.7969 C188.31,322.7869 203.8826,331.272 224.8426,339.252 " fill="none" id="Admin-to-CU23" style="stroke:#181818;stroke-width:1.0;"/><polygon fill="#181818" points="230.45,341.3869,223.4622,334.4464,225.7772,339.6078,220.6157,341.9228,230.45,341.3869" style="stroke:#181818;stroke-width:1.0;"/></g><!--link Admin to CU24--><g id="link_Admin_CU24"><path d="M116.72,203.3169 C146.9,210.7569 181.4845,219.2802 218.4245,228.3902 " fill="none" id="Admin-to-CU24" style="stroke:#181818;stroke-width:1.0;"/><polygon fill="#181818" points="224.25,229.8269,216.4696,223.7883,219.3954,228.6297,214.554,231.5555,224.25,229.8269" style="stroke:#181818;stroke-width:1.0;"/></g><!--link Auditor to CU24--><g id="link_Auditor_CU24"><path d="M93.66,298.1869 C121.78,292.7069 164.7308,284.3445 209.9908,275.5245 " fill="none" id="Auditor-to-CU24" style="stroke:#181818;stroke-width:1.0;"/><polygon fill="#181818" points="215.88,274.3769,206.2811,272.1722,210.9723,275.3333,207.8113,280.0245,215.88,274.3769" style="stroke:#181818;stroke-width:1.0;"/></g><!--link CU23 to CU22--><g id="link_CU23_CU22"><path d="M425.27,347.0469 C474.64,338.9269 527.8097,330.1713 576.8397,322.1013 " fill="none" id="CU23-to-CU22" style="stroke:#181818;stroke-width:1.0;stroke-dasharray:7.0,7.0;"/><polygon fill="#181818" points="582.76,321.1269,573.2299,318.6417,577.8264,321.9389,574.5291,326.5354,582.76,321.1269" style="stroke:#181818;stroke-width:1.0;"/><text fill="#000000" font-family="sans-serif" font-size="13" lengthAdjust="spacing" textLength="60" x="481" y="325.8638">&#171;extend&#187;</text></g><!--SRC=[NPBDQiCm48JFtQTOSdTQxD13AO4GQ2-5GaDkkIZInX6H9ICf_Q7qtRkoOYVsoTPelbcDR4E7YD6Xr_KnejAUPDJEGZXfsmel6co5F8cQDl774APjOMj3DuPm5CfzQLlZGPX00557jdwy50-FME0gwDeAoQ6eKa1edGrYRoW021cTnzbADThg43q7-HcAW9tIRx-I9nifuO4KTOQBrblUM-fWDAxc82rTv-hbOT1PwTYFoEy0GoUSRPYbHk3RDUKNxiw1f0YylTuMPRcpkP6_xRAp0kcJJvJdhhTbEU6gdLsBPg-d79SQWzK4N338xhE9OpJiRCkTCdpVUYSf324B-0COBgKeblb8KsK1q5_ku9a8rLHWfliwLsAqhCRBvCuNVQCa6yxd6SSdV7wcxqXMBPS0rl6e_3UwmoMmDLeA3Cuu31eCL_HKfuSYWvVcmDKQpId8camtxO0ZCUN1Fm00]--></g></svg>