<?xml version="1.0" encoding="us-ascii" standalone="no"?><svg xmlns="http://www.w3.org/2000/svg" xmlns:xlink="http://www.w3.org/1999/xlink" contentStyleType="text/css" height="408px" preserveAspectRatio="none" style="width:1042px;height:408px;background:#FFFFFF;" version="1.1" viewBox="0 0 1042 408" width="1042px" zoomAndPan="magnify"><defs/><g><text fill="#000000" font-family="sans-serif" font-size="14" font-weight="bold" lengthAdjust="spacing" textLength="478" x="275" y="22.9951">RNF-05 / RNF-09 - Rendimiento y consistencia en tiempo real</text><!--cluster Sistema Logistico--><g id="cluster_Sistema Logistico"><rect fill="none" height="149" rx="2.5" ry="2.5" style="stroke:#181818;stroke-width:1.0;" width="657" x="179" y="169.7969"/><text fill="#000000" font-family="sans-serif" font-size="14" font-weight="bold" lengthAdjust="spacing" textLength="138" x="438.5" y="184.792">Sistema Logistico</text></g><g id="elem_CU42"><ellipse cx="694.3295" cy="253.8914" fill="#F1F1F1" rx="125.3295" ry="49.0945" style="stroke:#181818;stroke-width:0.5;"/><text fill="#000000" font-family="sans-serif" font-size="14" lengthAdjust="spacing" textLength="43" x="672.8295" y="232.2928">CU-42</text><text fill="#000000" font-family="sans-serif" font-size="14" lengthAdjust="spacing" textLength="161" x="613.8295" y="248.5896">Actualizacion inmediata</text><text fill="#000000" font-family="sans-serif" font-size="14" lengthAdjust="spacing" textLength="141" x="623.8295" y="264.8865">de estado/ubicacion</text><text fill="#000000" font-family="sans-serif" font-size="14" lengthAdjust="spacing" textLength="139" x="624.8295" y="281.1834">tras registrar evento</text></g><g id="elem_CU43"><ellipse cx="320.3295" cy="253.8914" fill="#F1F1F1" rx="125.3295" ry="49.0945" style="stroke:#181818;stroke-width:0.5;"/><text fill="#000000" font-family="sans-serif" font-size="14" lengthAdjust="spacing" textLength="43" x="298.8295" y="232.2928">CU-43</text><text fill="#000000" font-family="sans-serif" font-size="14" lengthAdjust="spacing" textLength="161" x="239.8295" y="248.5896">Visualizar estado actual</text><text fill="#000000" font-family="sans-serif" font-size="14" lengthAdjust="spacing" textLength="99" x="270.8295" y="264.8865">en tiempo real</text><text fill="#000000" font-family="sans-serif" font-size="14" lengthAdjust="spacing" textLength="158" x="241.3295" y="281.1834">(panel/consulta rapida)</text></g><!--entity Admin--><g id="elem_Admin"><ellipse cx="69" cy="113.2969" fill="#F1F1F1" rx="8" ry="8" style="stroke:#181818;stroke-width:0.5;"/><path d="M69,121.2969 L69,148.2969 M56,129.2969 L82,129.2969 M69,148.2969 L56,163.2969 M69,148.2969 L82,163.2969 " fill="none" style="stroke:#181818;stroke-width:0.5;"/><text fill="#000000" font-family="sans-serif" font-size="14" lengthAdjust="spacing" textLength="95" x="21.5" y="177.792">Administrador</text></g><!--entity Gerente--><g id="elem_Gerente"><ellipse cx="69" cy="224.2969" fill="#F1F1F1" rx="8" ry="8" style="stroke:#181818;stroke-width:0.5;"/><path d="M69,232.2969 L69,259.2969 M56,240.2969 L82,240.2969 M69,259.2969 L56,274.2969 M69,259.2969 L82,274.2969 " fill="none" style="stroke:#181818;stroke-width:0.5;"/><text fill="#000000" font-family="sans-serif" font-size="14" lengthAdjust="spacing" textLength="118" x="10" y="288.792">Gerente de sede</text></g><!--entity Operador--><g id="elem_Operador"><ellipse cx="69" cy="335.2969" fill="#F1F1F1" rx="8" ry="8" style="stroke:#181818;stroke-width:0.5;"/><path d="M69,343.2969 L69,370.2969 M56,351.2969 L82,351.2969 M69,370.2969 L56,385.2969 M69,370.2969 L82,385.2969 " fill="none" style="stroke:#181818;stroke-width:0.5;"/><text fill="#000000" font-family="sans-serif" font-size="14" lengthAdjust="spacing" textLength="126" x="6" y="399.792">Operador logistico</text></g><g id="elem_GMN14"><path d="M883,226.2969 L883,249.7969 L820.22,253.7969 L883,257.7969 L883,281.6953 A0,0 0 0 0 883,281.6953 L1035,281.6953 A0,0 0 0 0 1035,281.6953 L1035,236.2969 L1025,226.2969 L883,226.2969 A0,0 0 0 0 883,226.2969 " fill="#FEFFDD" style="stroke:#181818;stroke-width:0.5;"/><path d="M1025,226.2969 L1025,236.2969 L1035,236.2969 L1025,226.2969 " fill="#FEFFDD" style="stroke:#181818;stroke-width:0.5;"/><text fill="#000000" font-family="sans-serif" font-size="13" lengthAdjust="spacing" textLength="125" x="889" y="243.3638">Sincroniza estado y</text><text fill="#000000" font-family="sans-serif" font-size="13" lengthAdjust="spacing" textLength="131" x="889" y="258.4966">ubicacion al instante</text><text fill="#000000" font-family="sans-serif" font-size="13" lengthAdjust="spacing" textLength="125" x="889" y="273.6294">despues del evento</text></g><g id="elem_GMN17"><path d="M238.5,43.2969 L238.5,98.6953 A0,0 0 0 0 238.5,98.6953 L316.5,98.6953 L320.5,204.4769 L324.5,98.6953 L402.5,98.6953 A0,0 0 0 0 402.5,98.6953 L402.5,53.2969 L392.5,43.2969 L238.5,43.2969 A0,0 0 0 0 238.5,43.2969 " fill="#FEFFDD" style="stroke:#181818;stroke-width:0.5;"/><path d="M392.5,43.2969 L392.5,53.2969 L402.5,53.2969 L392.5,43.2969 " fill="#FEFFDD" style="stroke:#181818;stroke-width:0.5;"/><text fill="#000000" font-family="sans-serif" font-size="13" lengthAdjust="spacing" textLength="133" x="244.5" y="60.3638">Consulta rapida para</text><text fill="#000000" font-family="sans-serif" font-size="13" lengthAdjust="spacing" textLength="143" x="244.5" y="75.4966">seguimiento operativo</text><text fill="#000000" font-family="sans-serif" font-size="13" lengthAdjust="spacing" textLength="45" x="244.5" y="90.6294">en vivo</text></g><!--link Operador to CU42--><g id="link_Operador_CU42"><path d="M132.29,360.0569 C207.21,353.7369 336.57,340.8269 446,319.7969 C495.46,310.2969 543.8146,297.903 588.8146,285.233 " fill="none" id="Operador-to-CU42" style="stroke:#181818;stroke-width:1.0;"/><polygon fill="#181818" points="594.59,283.6069,584.8428,282.1957,589.7771,284.962,587.0109,289.8963,594.59,283.6069" style="stroke:#181818;stroke-width:1.0;"/></g><!--link Operador to CU43--><g id="link_Operador_CU43"><path d="M132.32,337.0769 C163.93,323.0069 197.2582,308.1861 231.3282,293.0261 " fill="none" id="Operador-to-CU43" style="stroke:#181818;stroke-width:1.0;"/><polygon fill="#181818" points="236.81,290.5869,226.9611,290.5912,232.2418,292.6196,230.2134,297.9002,236.81,290.5869" style="stroke:#181818;stroke-width:1.0;"/></g><!--link Gerente to CU43--><g id="link_Gerente_CU43"><path d="M128.18,253.7969 C148.27,253.7969 165.61,253.7969 188.95,253.7969 " fill="none" id="Gerente-to-CU43" style="stroke:#181818;stroke-width:1.0;"/><polygon fill="#181818" points="194.95,253.7969,185.95,249.7969,189.95,253.7969,185.95,257.7969,194.95,253.7969" style="stroke:#181818;stroke-width:1.0;"/></g><!--link Admin to CU42--><g id="link_Admin_CU42"><path d="M116.65,146.0269 C188.05,151.4669 328.55,164.1569 446,186.7969 C495.72,196.3769 544.3523,209.0237 589.4623,221.9537 " fill="none" id="Admin-to-CU42" style="stroke:#181818;stroke-width:1.0;"/><polygon fill="#181818" points="595.23,223.6069,587.6805,217.2819,590.4235,222.2292,585.4762,224.9722,595.23,223.6069" style="stroke:#181818;stroke-width:1.0;"/></g><!--link Admin to CU43--><g id="link_Admin_CU43"><path d="M116.64,163.5469 C150.42,178.5769 191.4983,196.8475 231.4983,214.6475 " fill="none" id="Admin-to-CU43" style="stroke:#181818;stroke-width:1.0;"/><polygon fill="#181818" points="236.98,217.0869,230.3836,209.7733,232.4119,215.0541,227.1311,217.0823,236.98,217.0869" style="stroke:#181818;stroke-width:1.0;"/></g><!--link CU43 to CU42--><g id="link_CU43_CU42"><path d="M446.15,253.7969 C485.63,253.7969 523.27,253.7969 562.76,253.7969 " fill="none" id="CU43-to-CU42" style="stroke:#181818;stroke-width:1.0;stroke-dasharray:7.0,7.0;"/><polygon fill="#181818" points="568.76,253.7969,559.76,249.7969,563.76,253.7969,559.76,257.7969,568.76,253.7969" style="stroke:#181818;stroke-width:1.0;"/><text fill="#000000" font-family="sans-serif" font-size="13" lengthAdjust="spacing" textLength="61" x="477" y="249.8638">&#171;include&#187;</text></g><!--SRC=[NLBBRXin33n7Nq7ur1ms3kBqa28m41XeBaKBn4XFUs4aUaD4IoqahGktwB-7seSTvx8FpcZ86T7JBaCE4BbvpU0uaiqSnAGtbWuZjj2XVSE6jldW2GgCqdZwG4YlwC8VbWPsw1CPapahzUddz-hwAop7Zpkeu8d4SSiasky0DaZYb4ai8v10Pcex7OJG6uCsXmYB1zUoA2bgXxW0J31KPlYHeeeHE894ZWR2L9iflpeQ3eCFZGgn3GDhBXjpT0IBRHcdHVXnelup5tqYYqdXpNDrUrFBWyqzUlwBLdC2bfOSOyPQT0fAMLMN_GlR0Qv5Hq_ggHbCHA1zSJ-Ci7c-lVcalghbDwTHFKvYW4E_MiuZgkLBXq9-MMBiVKQ8sB73orbxPVuRStHVLUknuUVAofWvnLDb2FbqvknNuVA4gwiHXMzmVyzYVUzelJP6WagDsnHsu_cjmZ68cfez7Smn8a2l8MgvN9gZrFMKz4Bz59NHdO6YEIc_X9n3EqclpERSFPIDD8cQVjwpKFnctXSXs8_lIV0T]--></g></svg>