<?xml version="1.0" encoding="us-ascii" standalone="no"?><svg xmlns="http://www.w3.org/2000/svg" xmlns:xlink="http://www.w3.org/1999/xlink" contentStyleType="text/css" height="565px" preserveAspectRatio="none" style="width:792px;height:565px;background:#FFFFFF;" version="1.1" viewBox="0 0 792 565" width="792px" zoomAndPan="magnify"><defs/><g><text fill="#000000" font-family="sans-serif" font-size="14" font-weight="bold" lengthAdjust="spacing" textLength="355" x="211.5" y="22.9951">RF-04 - Gestion de rutas maritimas y puertos</text><!--cluster Sistema Logistico--><g id="cluster_Sistema Logistico"><rect fill="none" height="368" rx="2.5" ry="2.5" style="stroke:#181818;stroke-width:1.0;" width="595" x="191" y="103.7969"/><text fill="#000000" font-family="sans-serif" font-size="14" font-weight="bold" lengthAdjust="spacing" textLength="138" x="419.5" y="118.792">Sistema Logistico</text></g><g id="elem_CU13"><ellipse cx="328.1812" cy="164.8441" fill="#F1F1F1" rx="90.6812" ry="26.0473" style="stroke:#181818;stroke-width:0.5;"/><text fill="#000000" font-family="sans-serif" font-size="14" lengthAdjust="spacing" textLength="43" x="306.6812" y="159.5424">CU-13</text><text fill="#000000" font-family="sans-serif" font-size="14" lengthAdjust="spacing" textLength="112" x="272.1812" y="175.8393">Registrar puerto</text></g><g id="elem_CU14"><ellipse cx="671.1665" cy="252.8441" fill="#F1F1F1" rx="99.1665" ry="26.0473" style="stroke:#181818;stroke-width:0.5;"/><text fill="#000000" font-family="sans-serif" font-size="14" lengthAdjust="spacing" textLength="43" x="649.6665" y="247.5424">CU-14</text><text fill="#000000" font-family="sans-serif" font-size="14" lengthAdjust="spacing" textLength="124" x="609.1665" y="263.8393">Consultar puertos</text></g><g id="elem_CU15"><ellipse cx="328.1703" cy="428.6309" fill="#F1F1F1" rx="119.6703" ry="26.3341" style="stroke:#181818;stroke-width:0.5;"/><text fill="#000000" font-family="sans-serif" font-size="14" lengthAdjust="spacing" textLength="43" x="306.6703" y="423.3292">CU-15</text><text fill="#000000" font-family="sans-serif" font-size="14" lengthAdjust="spacing" textLength="155" x="250.6703" y="439.626">Registrar ruta maritima</text></g><g id="elem_CU16"><ellipse cx="328.1099" cy="252.9189" fill="#F1F1F1" rx="121.1099" ry="26.622" style="stroke:#181818;stroke-width:0.5;"/><text fill="#000000" font-family="sans-serif" font-size="14" lengthAdjust="spacing" textLength="43" x="306.6099" y="247.6171">CU-16</text><text fill="#000000" font-family="sans-serif" font-size="14" lengthAdjust="spacing" textLength="159" x="248.6099" y="263.914">Consultar ruta maritima</text></g><g id="elem_CU17"><ellipse cx="328.1099" cy="340.9189" fill="#F1F1F1" rx="121.1099" ry="26.622" style="stroke:#181818;stroke-width:0.5;"/><text fill="#000000" font-family="sans-serif" font-size="14" lengthAdjust="spacing" textLength="43" x="306.6099" y="335.6171">CU-17</text><text fill="#000000" font-family="sans-serif" font-size="14" lengthAdjust="spacing" textLength="159" x="248.6099" y="351.914">Actualizar ruta maritima</text></g><!--entity Admin--><g id="elem_Admin"><ellipse cx="75" cy="253.2969" fill="#F1F1F1" rx="8" ry="8" style="stroke:#181818;stroke-width:0.5;"/><path d="M75,261.2969 L75,288.2969 M62,269.2969 L88,269.2969 M75,288.2969 L62,303.2969 M75,288.2969 L88,303.2969 " fill="none" style="stroke:#181818;stroke-width:0.5;"/><text fill="#000000" font-family="sans-serif" font-size="14" lengthAdjust="spacing" textLength="95" x="27.5" y="317.792">Administrador</text></g><!--entity Gerente--><g id="elem_Gerente"><ellipse cx="75" cy="51.2969" fill="#F1F1F1" rx="8" ry="8" style="stroke:#181818;stroke-width:0.5;"/><path d="M75,59.2969 L75,86.2969 M62,67.2969 L88,67.2969 M75,86.2969 L62,101.2969 M75,86.2969 L88,101.2969 " fill="none" style="stroke:#181818;stroke-width:0.5;"/><text fill="#000000" font-family="sans-serif" font-size="14" lengthAdjust="spacing" textLength="118" x="16" y="115.792">Gerente de sede</text></g><!--entity Operador--><g id="elem_Operador"><ellipse cx="75" cy="383.2969" fill="#F1F1F1" rx="8" ry="8" style="stroke:#181818;stroke-width:0.5;"/><path d="M75,391.2969 L75,418.2969 M62,399.2969 L88,399.2969 M75,418.2969 L62,433.2969 M75,418.2969 L88,433.2969 " fill="none" style="stroke:#181818;stroke-width:0.5;"/><text fill="#000000" font-family="sans-serif" font-size="14" lengthAdjust="spacing" textLength="126" x="12" y="447.792">Operador logistico</text></g><g id="elem_GMN21"><path d="M590.5,488.2969 L590.5,558.8281 L751.5,558.8281 L751.5,498.2969 L741.5,488.2969 L590.5,488.2969 " fill="#FEFFDD" style="stroke:#181818;stroke-width:0.5;"/><path d="M741.5,488.2969 L741.5,498.2969 L751.5,498.2969 L741.5,488.2969 " fill="#FEFFDD" style="stroke:#181818;stroke-width:1.0;"/><text fill="#000000" font-family="sans-serif" font-size="13" lengthAdjust="spacing" textLength="62" x="596.5" y="505.3638">Actualiza:</text><text fill="#000000" font-family="sans-serif" font-size="13" lengthAdjust="spacing" textLength="123" x="596.5" y="520.4966">- puertos de la ruta</text><text fill="#000000" font-family="sans-serif" font-size="13" lengthAdjust="spacing" textLength="132" x="596.5" y="535.6294">- tiempos estimados</text><text fill="#000000" font-family="sans-serif" font-size="13" lengthAdjust="spacing" textLength="140" x="596.5" y="550.7622">- ubicacion geografica</text></g><g id="elem_GMN24"><path d="M6,154.2969 L6,209.6953 A0,0 0 0 0 6,209.6953 L144,209.6953 A0,0 0 0 0 144,209.6953 L144,181.1769 L239.86,170.6969 L144,173.1769 L144,164.2969 L134,154.2969 L6,154.2969 A0,0 0 0 0 6,154.2969 " fill="#FEFFDD" style="stroke:#181818;stroke-width:0.5;"/><path d="M134,154.2969 L134,164.2969 L144,164.2969 L134,154.2969 " fill="#FEFFDD" style="stroke:#181818;stroke-width:0.5;"/><text fill="#000000" font-family="sans-serif" font-size="13" lengthAdjust="spacing" textLength="108" x="12" y="171.3638">Aplicable cuando</text><text fill="#000000" font-family="sans-serif" font-size="13" lengthAdjust="spacing" textLength="117" x="12" y="186.4966">no exista catalogo</text><text fill="#000000" font-family="sans-serif" font-size="13" lengthAdjust="spacing" textLength="112" x="12" y="201.6294">de puertos previo</text></g><!--link Operador to CU14--><g id="link_Operador_CU14"><path d="M131.44,450.9069 C147.39,459.8769 165.28,468.1669 183,472.7969 C297.38,502.6769 339.73,517.9169 449,472.7969 C545.83,432.8169 619.2816,332.625 650.9716,283.625 " fill="none" id="Operador-to-CU14" style="stroke:#181818;stroke-width:1.0;"/><polygon fill="#181818" points="654.23,278.5869,645.9837,283.9719,651.5147,282.7853,652.7012,288.3164,654.23,278.5869" style="stroke:#181818;stroke-width:1.0;"/></g><!--link Operador to CU15--><g id="link_Operador_CU15"><path d="M138.04,416.7569 C160.69,418.1969 181.0921,419.4955 206.8421,421.1355 " fill="none" id="Operador-to-CU15" style="stroke:#181818;stroke-width:1.0;"/><polygon fill="#181818" points="212.83,421.5169,204.1024,416.9529,207.8401,421.1991,203.594,424.9367,212.83,421.5169" style="stroke:#181818;stroke-width:1.0;"/></g><!--link Operador to CU16--><g id="link_Operador_CU16"><path d="M110.9,374.4969 C141.25,341.2569 180.73,298.2269 183,296.7969 C200.37,285.8769 214.9174,279.3516 234.6574,273.0116 " fill="none" id="Operador-to-CU16" style="stroke:#181818;stroke-width:1.0;"/><polygon fill="#181818" points="240.37,271.1769,230.5779,270.1206,235.6095,272.7058,233.0243,277.7374,240.37,271.1769" style="stroke:#181818;stroke-width:1.0;"/></g><!--link Operador to CU17--><g id="link_Operador_CU17"><path d="M138.04,394.9969 C173.03,384.9669 211.1825,374.021 247.8625,363.501 " fill="none" id="Operador-to-CU17" style="stroke:#181818;stroke-width:1.0;"/><polygon fill="#181818" points="253.63,361.8469,243.876,360.4831,248.8238,363.2253,246.0815,368.1731,253.63,361.8469" style="stroke:#181818;stroke-width:1.0;"/></g><!--link Gerente to CU14--><g id="link_Gerente_CU14"><path d="M134.18,79.4169 C208.98,79.3469 341.99,85.0169 449,120.7969 C522.54,145.3769 593.1204,193.663 634.0604,224.553 " fill="none" id="Gerente-to-CU14" style="stroke:#181818;stroke-width:1.0;"/><polygon fill="#181818" points="638.85,228.1669,634.0748,219.5531,634.8587,225.1553,629.2564,225.9392,638.85,228.1669" style="stroke:#181818;stroke-width:1.0;"/></g><!--link Gerente to CU16--><g id="link_Gerente_CU16"><path d="M126.71,118.8169 C132.88,124.4969 138.83,130.5569 144,136.7969 C166.97,164.5169 155.13,184.9969 183,207.7969 C198.1,220.1569 210.9461,227.1468 229.5961,233.6668 " fill="none" id="Gerente-to-CU16" style="stroke:#181818;stroke-width:1.0;"/><polygon fill="#181818" points="235.26,235.6469,228.0843,228.9009,230.5401,233.9968,225.4442,236.4527,235.26,235.6469" style="stroke:#181818;stroke-width:1.0;"/></g><!--link Admin to CU13--><g id="link_Admin_CU13"><path d="M122.54,245.9569 C140.65,232.8869 162.06,218.9369 183,208.7969 C206.41,197.4669 227.6146,189.9584 251.8346,182.9784 " fill="none" id="Admin-to-CU13" style="stroke:#181818;stroke-width:1.0;"/><polygon fill="#181818" points="257.6,181.3169,247.8443,179.9656,252.7955,182.7015,250.0597,187.6527,257.6,181.3169" style="stroke:#181818;stroke-width:1.0;"/></g><!--link Admin to CU15--><g id="link_Admin_CU15"><path d="M107.77,320.8669 C127.47,342.3169 154.42,368.0869 183,384.7969 C201.28,395.4869 216.6858,402.0186 237.0258,408.4086 " fill="none" id="Admin-to-CU15" style="stroke:#181818;stroke-width:1.0;"/><polygon fill="#181818" points="242.75,410.2069,235.3626,403.6933,237.9799,408.7083,232.9649,411.3255,242.75,410.2069" style="stroke:#181818;stroke-width:1.0;"/></g><!--link Admin to CU17--><g id="link_Admin_CU17"><path d="M122.52,281.2369 C139.49,282.0269 158.55,284.5669 175,290.7969 C179.16,292.3669 179.04,294.7869 183,296.7969 C202.46,306.6869 218.8171,313.0266 239.7371,319.4866 " fill="none" id="Admin-to-CU17" style="stroke:#181818;stroke-width:1.0;"/><polygon fill="#181818" points="245.47,321.2569,238.0509,314.7795,240.6926,319.7816,235.6905,322.4234,245.47,321.2569" style="stroke:#181818;stroke-width:1.0;"/></g><!--link CU16 to CU14--><g id="link_CU16_CU14"><path d="M449.22,252.7969 C489.4,252.7969 527.66,252.7969 565.93,252.7969 " fill="none" id="CU16-to-CU14" style="stroke:#181818;stroke-width:1.0;stroke-dasharray:7.0,7.0;"/><polygon fill="#181818" points="571.93,252.7969,562.93,248.7969,566.93,252.7969,562.93,256.7969,571.93,252.7969" style="stroke:#181818;stroke-width:1.0;"/><text fill="#000000" font-family="sans-serif" font-size="13" lengthAdjust="spacing" textLength="61" x="480" y="248.8638">&#171;include&#187;</text></g><!--link CU17 to GMN21--><g id="link_CU17_GMN21"><path d="M397.94,362.5369 C415.01,368.8769 432.99,376.3869 449,384.7969 C508.28,415.9269 514.98,436.6969 572,471.7969 C581.02,477.3469 590.69,482.9169 600.31,488.2369 " fill="none" id="CU17-GMN21" style="stroke:#181818;stroke-width:1.0;stroke-dasharray:7.0,7.0;"/></g><!--SRC=[TLDDQzn033rNlqBitQ5Xlo24XR3GN0g1XDpseeorpf3nZ9cHqwQb_xqQUyVPEEtDUdhlIHh9Ze-24Z3Qvbcmjf6DsE0XlLZVKQGMEp8lrF23l3d6d2RVE3uZf6Ugmm_h6poIImmWLfHw_wtwki8ARpbbHwnLtGibR2bQiQr-lM7NSvIG0CX8YBYugLlhRPAebd61oXcGahxbo5uuUoMkUI2Si4AvwtWGemkD6baJ1bQ10QOHSF6W16u9lxzJVyENFh6XfEdzOtMvFFXxReQEugdRmM__UBcSKLS7lmy-zKucQYhSrOoxFhVDppAzIb6iPuhDkVi_5PkPOdlmDqPwSlRN_oHR-0CmlLXLxSPUvyZw4xBvX6m1odOcdncm0HYsMUBbnt3zCLJ3hC6BYz4Dh_3wsdhZ-fftEm0Vr7ayst0S1TEuLr2L3UHRSJIChw1ORZi5yqsssdvIh7-oXam-qOP34-ce8R2lCLSurN7vDndBQDUTKygJNf3foTT1ASW_TPc4XeJqy09erT905_dLXdV7lm00]--></g></svg>