<?xml version="1.0" encoding="us-ascii" standalone="no"?><svg xmlns="http://www.w3.org/2000/svg" xmlns:xlink="http://www.w3.org/1999/xlink" contentStyleType="text/css" height="761px" preserveAspectRatio="none" style="width:825px;height:761px;background:#FFFFFF;" version="1.1" viewBox="0 0 825 761" width="825px" zoomAndPan="magnify"><defs/><g><text fill="#000000" font-family="sans-serif" font-size="14" font-weight="bold" lengthAdjust="spacing" textLength="233" x="289" y="22.9951">RF-05 - Trazabilidad del envio</text><!--cluster Sistema Logistico--><g id="cluster_Sistema Logistico"><rect fill="none" height="345" rx="2.5" ry="2.5" style="stroke:#181818;stroke-width:1.0;" width="640" x="179" y="337.7969"/><text fill="#000000" font-family="sans-serif" font-size="14" font-weight="bold" lengthAdjust="spacing" textLength="138" x="430" y="352.792">Sistema Logistico</text></g><g id="elem_CU18"><ellipse cx="321.5955" cy="629.8678" fill="#F1F1F1" rx="92.0955" ry="37.5709" style="stroke:#181818;stroke-width:0.5;"/><text fill="#000000" font-family="sans-serif" font-size="14" lengthAdjust="spacing" textLength="43" x="300.0955" y="616.4176">CU-18</text><text fill="#000000" font-family="sans-serif" font-size="14" lengthAdjust="spacing" textLength="114" x="264.5955" y="632.7144">Registrar evento</text><text fill="#000000" font-family="sans-serif" font-size="14" lengthAdjust="spacing" textLength="100" x="271.5955" y="649.0113">de trazabilidad</text></g><g id="elem_CU19"><ellipse cx="687.1371" cy="421.8914" fill="#F1F1F1" rx="116.1371" ry="49.0945" style="stroke:#181818;stroke-width:0.5;"/><text fill="#000000" font-family="sans-serif" font-size="14" lengthAdjust="spacing" textLength="43" x="665.6371" y="400.2928">CU-19</text><text fill="#000000" font-family="sans-serif" font-size="14" lengthAdjust="spacing" textLength="148" x="613.1371" y="416.5896">Consultar eventos de</text><text fill="#000000" font-family="sans-serif" font-size="14" lengthAdjust="spacing" textLength="105" x="634.6371" y="432.8865">trazabilidad por</text><text fill="#000000" font-family="sans-serif" font-size="14" lengthAdjust="spacing" textLength="123" x="625.6371" y="449.1834">contenedor/envio</text></g><g id="elem_CU20"><ellipse cx="321.2523" cy="409.8678" fill="#F1F1F1" rx="97.7523" ry="37.5709" style="stroke:#181818;stroke-width:0.5;"/><text fill="#000000" font-family="sans-serif" font-size="14" lengthAdjust="spacing" textLength="43" x="299.7523" y="396.4176">CU-20</text><text fill="#000000" font-family="sans-serif" font-size="14" lengthAdjust="spacing" textLength="122" x="260.2523" y="412.7144">Visualizar linea de</text><text fill="#000000" font-family="sans-serif" font-size="14" lengthAdjust="spacing" textLength="114" x="264.2523" y="429.0113">tiempo del envio</text></g><g id="elem_CU21"><ellipse cx="321.7437" cy="519.8678" fill="#F1F1F1" rx="126.7437" ry="37.5709" style="stroke:#181818;stroke-width:0.5;"/><text fill="#000000" font-family="sans-serif" font-size="14" lengthAdjust="spacing" textLength="43" x="300.2437" y="506.4176">CU-21</text><text fill="#000000" font-family="sans-serif" font-size="14" lengthAdjust="spacing" textLength="163" x="240.2437" y="522.7144">Consultar estado actual</text><text fill="#000000" font-family="sans-serif" font-size="14" lengthAdjust="spacing" textLength="106" x="268.7437" y="539.0113">del contenedor</text></g><!--entity Admin--><g id="elem_Admin"><ellipse cx="69" cy="401.2969" fill="#F1F1F1" rx="8" ry="8" style="stroke:#181818;stroke-width:0.5;"/><path d="M69,409.2969 L69,436.2969 M56,417.2969 L82,417.2969 M69,436.2969 L56,451.2969 M69,436.2969 L82,451.2969 " fill="none" style="stroke:#181818;stroke-width:0.5;"/><text fill="#000000" font-family="sans-serif" font-size="14" lengthAdjust="spacing" textLength="95" x="21.5" y="465.792">Administrador</text></g><!--entity Gerente--><g id="elem_Gerente"><ellipse cx="69" cy="290.2969" fill="#F1F1F1" rx="8" ry="8" style="stroke:#181818;stroke-width:0.5;"/><path d="M69,298.2969 L69,325.2969 M56,306.2969 L82,306.2969 M69,325.2969 L56,340.2969 M69,325.2969 L82,340.2969 " fill="none" style="stroke:#181818;stroke-width:0.5;"/><text fill="#000000" font-family="sans-serif" font-size="14" lengthAdjust="spacing" textLength="118" x="10" y="354.792">Gerente de sede</text></g><!--entity Operador--><g id="elem_Operador"><ellipse cx="69" cy="574.2969" fill="#F1F1F1" rx="8" ry="8" style="stroke:#181818;stroke-width:0.5;"/><path d="M69,582.2969 L69,609.2969 M56,590.2969 L82,590.2969 M69,609.2969 L56,624.2969 M69,609.2969 L82,624.2969 " fill="none" style="stroke:#181818;stroke-width:0.5;"/><text fill="#000000" font-family="sans-serif" font-size="14" lengthAdjust="spacing" textLength="126" x="6" y="638.792">Operador logistico</text></g><!--entity Auditor--><g id="elem_Auditor"><ellipse cx="69" cy="51.2969" fill="#F1F1F1" rx="8" ry="8" style="stroke:#181818;stroke-width:0.5;"/><path d="M69,59.2969 L69,86.2969 M56,67.2969 L82,67.2969 M69,86.2969 L56,101.2969 M69,86.2969 L82,101.2969 " fill="none" style="stroke:#181818;stroke-width:0.5;"/><text fill="#000000" font-family="sans-serif" font-size="14" lengthAdjust="spacing" textLength="49" x="44.5" y="115.792">Auditor</text></g><g id="elem_GMN25"><path d="M621,699.2969 L621,754.6953 L753,754.6953 L753,709.2969 L743,699.2969 L621,699.2969 " fill="#FEFFDD" style="stroke:#181818;stroke-width:0.5;"/><path d="M743,699.2969 L743,709.2969 L753,709.2969 L743,699.2969 " fill="#FEFFDD" style="stroke:#181818;stroke-width:1.0;"/><text fill="#000000" font-family="sans-serif" font-size="13" lengthAdjust="spacing" textLength="103" x="627" y="716.3638">Estado derivado</text><text fill="#000000" font-family="sans-serif" font-size="13" lengthAdjust="spacing" textLength="111" x="627" y="731.4966">del ultimo evento</text><text fill="#000000" font-family="sans-serif" font-size="13" lengthAdjust="spacing" textLength="65" x="627" y="746.6294">registrado</text></g><g id="elem_GMN28"><path d="M243,266.2969 L243,321.6953 L400,321.6953 L400,276.2969 L390,266.2969 L243,266.2969 " fill="#FEFFDD" style="stroke:#181818;stroke-width:0.5;"/><path d="M390,266.2969 L390,276.2969 L400,276.2969 L390,266.2969 " fill="#FEFFDD" style="stroke:#181818;stroke-width:1.0;"/><text fill="#000000" font-family="sans-serif" font-size="13" lengthAdjust="spacing" textLength="136" x="249" y="283.3638">Dispara actualizacion</text><text fill="#000000" font-family="sans-serif" font-size="13" lengthAdjust="spacing" textLength="132" x="249" y="298.4966">inmediata de estado</text><text fill="#000000" font-family="sans-serif" font-size="13" lengthAdjust="spacing" textLength="71" x="249" y="313.6294">y ubicacion</text></g><!--link Operador to CU18--><g id="link_Operador_CU18"><path d="M132.24,610.2569 C162.38,613.3869 193.132,616.578 226.112,619.998 " fill="none" id="Operador-to-CU18" style="stroke:#181818;stroke-width:1.0;"/><polygon fill="#181818" points="232.08,620.6169,223.5406,615.7099,227.1067,620.1011,222.7154,623.6672,232.08,620.6169" style="stroke:#181818;stroke-width:1.0;"/></g><!--link Operador to CU19--><g id="link_Operador_CU19"><path d="M105.51,642.2169 C123.36,658.7069 146.4,676.1469 171,684.7969 C287.15,725.6169 335.47,734.7269 448,684.7969 C547.21,640.7769 619.5617,537.8689 656.9217,474.8089 " fill="none" id="Operador-to-CU19" style="stroke:#181818;stroke-width:1.0;"/><polygon fill="#181818" points="659.98,469.6469,651.9512,475.3511,657.4314,473.9486,658.834,479.4288,659.98,469.6469" style="stroke:#181818;stroke-width:1.0;"/></g><!--link Operador to CU20--><g id="link_Operador_CU20"><path d="M89.43,565.6069 C106.96,534.5869 135.43,491.6969 171,464.7969 C190.96,449.6969 209.8357,440.4142 233.2157,432.1142 " fill="none" id="Operador-to-CU20" style="stroke:#181818;stroke-width:1.0;"/><polygon fill="#181818" points="238.87,430.1069,229.0504,429.3483,234.1581,431.7796,231.7268,436.8873,238.87,430.1069" style="stroke:#181818;stroke-width:1.0;"/></g><!--link Operador to CU21--><g id="link_Operador_CU21"><path d="M132.24,582.9269 C163.83,572.3369 196.9616,561.2252 231.1216,549.7652 " fill="none" id="Operador-to-CU21" style="stroke:#181818;stroke-width:1.0;"/><polygon fill="#181818" points="236.81,547.8569,227.0051,546.9271,232.0696,549.4472,229.5496,554.5117,236.81,547.8569" style="stroke:#181818;stroke-width:1.0;"/></g><!--link Gerente to CU19--><g id="link_Gerente_CU19"><path d="M90.47,281.7069 C107.8,253.8369 135.48,218.1469 171,201.7969 C282.83,150.3169 328.74,171.2469 448,201.7969 C541.75,225.8169 613.5634,311.9208 652.8234,369.0908 " fill="none" id="Gerente-to-CU19" style="stroke:#181818;stroke-width:1.0;"/><polygon fill="#181818" points="656.22,374.0369,654.4225,364.3534,653.3895,369.9152,647.8278,368.8822,656.22,374.0369" style="stroke:#181818;stroke-width:1.0;"/></g><!--link Gerente to CU20--><g id="link_Gerente_CU20"><path d="M128.06,340.3369 C139.64,344.4469 151.71,348.7469 163,352.7969 C191.33,362.9469 216.8594,372.1614 243.9394,381.9814 " fill="none" id="Gerente-to-CU20" style="stroke:#181818;stroke-width:1.0;"/><polygon fill="#181818" points="249.58,384.0269,242.4828,377.1983,244.8795,382.3223,239.7555,384.7191,249.58,384.0269" style="stroke:#181818;stroke-width:1.0;"/></g><!--link Gerente to CU21--><g id="link_Gerente_CU21"><path d="M117.04,357.8869 C122.42,363.2669 127.55,368.9569 132,374.7969 C150.92,399.6169 151.64,408.7369 163,437.7969 C167.56,449.4569 162.44,455.6669 171,464.7969 C184.34,479.0169 196.1538,487.1932 214.2638,495.0332 " fill="none" id="Gerente-to-CU21" style="stroke:#181818;stroke-width:1.0;"/><polygon fill="#181818" points="219.77,497.4169,213.0998,490.1706,215.1815,495.4305,209.9216,497.5121,219.77,497.4169" style="stroke:#181818;stroke-width:1.0;"/></g><!--link Admin to CU19--><g id="link_Admin_CU19"><path d="M116.71,393.8769 C122.4,387.9369 127.71,381.5169 132,374.7969 C163.54,325.3869 123.82,283.5869 171,248.7969 C270.09,175.7369 330.92,210.7369 448,248.7969 C525,273.8269 593.5502,330.0337 637.9002,372.3737 " fill="none" id="Admin-to-CU19" style="stroke:#181818;stroke-width:1.0;"/><polygon fill="#181818" points="642.24,376.5169,638.4923,367.4089,638.6235,373.0642,632.9681,373.1954,642.24,376.5169" style="stroke:#181818;stroke-width:1.0;"/></g><!--link Admin to CU20--><g id="link_Admin_CU20"><path d="M116.53,426.8969 C147.16,424.3269 182.381,421.3779 219.731,418.2479 " fill="none" id="Admin-to-CU20" style="stroke:#181818;stroke-width:1.0;"/><polygon fill="#181818" points="225.71,417.7469,216.4074,414.5124,220.7275,418.1644,217.0755,422.4845,225.71,417.7469" style="stroke:#181818;stroke-width:1.0;"/></g><!--link Admin to CU21--><g id="link_Admin_CU21"><path d="M116.53,447.3269 C151.05,459.5969 193.3462,474.6183 234.0762,489.0883 " fill="none" id="Admin-to-CU21" style="stroke:#181818;stroke-width:1.0;"/><polygon fill="#181818" points="239.73,491.0969,232.5884,484.3148,235.0185,489.423,229.9102,491.8532,239.73,491.0969" style="stroke:#181818;stroke-width:1.0;"/></g><!--link Auditor to CU19--><g id="link_Auditor_CU19"><path d="M93.57,80.1269 C168.46,79.2769 404.15,86.5269 541,203.7969 C596.57,251.4169 636.907,320.0052 661.177,368.3252 " fill="none" id="Auditor-to-CU19" style="stroke:#181818;stroke-width:1.0;"/><polygon fill="#181818" points="663.87,373.6869,663.4049,363.849,661.6258,369.2188,656.256,367.4397,663.87,373.6869" style="stroke:#181818;stroke-width:1.0;"/></g><!--link Auditor to CU20--><g id="link_Auditor_CU20"><path d="M83.2,118.9969 C106.82,186.6469 155.34,321.9969 171,338.7969 C190.79,360.0269 212.7064,373.2139 238.6864,384.2339 " fill="none" id="Auditor-to-CU20" style="stroke:#181818;stroke-width:1.0;"/><polygon fill="#181818" points="244.21,386.5769,237.4865,379.38,239.607,384.6244,234.3626,386.7448,244.21,386.5769" style="stroke:#181818;stroke-width:1.0;"/></g><!--link CU20 to CU19--><g id="link_CU20_CU19"><path d="M419.43,412.9969 C466.12,414.5369 516.4433,416.1991 565.2633,417.8091 " fill="none" id="CU20-to-CU19" style="stroke:#181818;stroke-width:1.0;stroke-dasharray:7.0,7.0;"/><polygon fill="#181818" points="571.26,418.0069,562.3967,413.7124,566.2627,417.8421,562.133,421.7081,571.26,418.0069" style="stroke:#181818;stroke-width:1.0;"/><text fill="#000000" font-family="sans-serif" font-size="13" lengthAdjust="spacing" textLength="61" x="479" y="411.8638">&#171;include&#187;</text></g><!--link CU21 to CU19--><g id="link_CU21_CU19"><path d="M415.64,494.6869 C468.65,480.3969 529.177,464.0792 582.867,449.5992 " fill="none" id="CU21-to-CU19" style="stroke:#181818;stroke-width:1.0;stroke-dasharray:7.0,7.0;"/><polygon fill="#181818" points="588.66,448.0369,578.9289,446.5184,583.8325,449.3388,581.012,454.2424,588.66,448.0369" style="stroke:#181818;stroke-width:1.0;"/><text fill="#000000" font-family="sans-serif" font-size="13" lengthAdjust="spacing" textLength="61" x="479" y="458.8638">&#171;include&#187;</text></g><!--link CU21 to GMN25--><g id="link_CU21_GMN25"><path d="M400.08,549.3369 C416.4,556.7569 433.15,565.3469 448,574.7969 C509.37,613.8569 508.71,645.2069 571,682.7969 C586.37,692.0769 604.04,699.9969 620.84,706.4669 " fill="none" id="CU21-GMN25" style="stroke:#181818;stroke-width:1.0;stroke-dasharray:7.0,7.0;"/></g><!--link CU18 to GMN28--><g id="link_CU18_GMN28"><path d="M234.09,617.8069 C200.21,607.9369 166.08,589.9669 151.5,557.2969 C134.93,520.1569 134.93,411.4369 151.5,374.2969 C167.6,338.2169 206.46,318.2569 242.97,307.2369 " fill="none" id="CU18-GMN28" style="stroke:#181818;stroke-width:1.0;stroke-dasharray:7.0,7.0;"/></g><!--SRC=[TLDDRzim33rFluB8FLrSO40p5066xECoO42xxkIBOZ4kKPao93b3E-o_Zx9inpQmYo4_yZsIZvB5SuJem5Fz7C6GnogIOnLUY5ljTGEjhbvqZO_nrIAaiERQuYmXF6lZVXFNSDOse5AHegG-VDtkFi0MVdhzfazaoMW31YqWNyWffQleF6m-cOQOGlGYuZUW0_J86Fw67ZcY426WmJvXmCQK7otsPB2k5Y6gN9yrmbEXpb0SI-IpKceQ23QFGiP6m_Uhp1_rhWjOwI3XuzEsk2lv0Uk-MmzuaIvSoT9QdCtO5pW-5NShxhxae-FGsJXnWunLyfmChVCbLqx6OvJct_TcZPBxfUJjhkHV53fjwKqqBJ7gh4ZOjEvgzi2_tQtunQAb4CKk4BT4C4rbuTh7g52elsBQvFXsUyYZhf7z6f7QQwHGQjpkn5e2Gbe1mkclnvKn_vNynM_ApfkUvIy0OQZqXPkR78UFS7zFNDdEuE6GOiN_OegTD9OVZZldUb-oYGOzNUIWaejYBpLkMBbSk7guxGhPGD8Ob4ukHjTaAR7qCuNqleQ5o8Qhz2w96pIaOrhqi3Br2js9gXoVDFy1]--></g></svg>