<?xml version="1.0" encoding="us-ascii" standalone="no"?><svg xmlns="http://www.w3.org/2000/svg" xmlns:xlink="http://www.w3.org/1999/xlink" contentStyleType="text/css" height="909px" preserveAspectRatio="none" style="width:1462px;height:909px;background:#F8F9FA;" version="1.1" viewBox="0 0 1462 909" width="1462px" zoomAndPan="magnify"><defs><filter height="300%" id="fg8rn6rzrfi29" width="300%" x="-1" y="-1"><feGaussianBlur result="blurOut" stdDeviation="2.0"/><feColorMatrix in="blurOut" result="blurOut2" type="matrix" values="0 0 0 0 0 0 0 0 0 0 0 0 0 0 0 0 0 0 .4 0"/><feOffset dx="4.0" dy="4.0" in="blurOut2" result="blurOut3"/><feBlend in="SourceGraphic" in2="blurOut3" mode="normal"/></filter></defs><g><rect fill="#F8F9FA" height="909" style="stroke:none;stroke-width:1.0;" width="1462" x="0" y="0"/><text fill="#000000" font-family="Arial" font-size="14" font-weight="bold" lengthAdjust="spacing" textLength="240" x="604.25" y="22.9951">Gateway Database ER Diagram</text><!--class users--><g id="elem_users"><rect codeLine="17" fill="#F1F1F1" filter="url(#fg8rn6rzrfi29)" height="227.2656" id="users" rx="2.5" ry="2.5" style="stroke:#181818;stroke-width:0.5;" width="247" x="666" y="175.2969"/><ellipse cx="765.75" cy="191.2969" fill="#ADD1B2" rx="11" ry="11" style="stroke:#181818;stroke-width:1.0;"/><path d="M769.8594,197.2969 L762.1406,197.2969 L762.1406,184.9063 L769.8594,184.9063 L769.8594,187.0625 L764.5938,187.0625 L764.5938,189.7344 L769.3594,189.7344 L769.3594,191.8906 L764.5938,191.8906 L764.5938,195.1406 L769.8594,195.1406 L769.8594,197.2969 Z " fill="#000000"/><text fill="#000000" font-family="Arial" font-size="14" lengthAdjust="spacing" textLength="39" x="786.25" y="196.1436">users</text><line style="stroke:#181818;stroke-width:0.5;" x1="667" x2="912" y1="207.2969" y2="207.2969"/><ellipse cx="677" cy="220.9453" fill="#000000" rx="3" ry="3" style="stroke:#000000;stroke-width:1.0;"/><text fill="#000000" font-family="Arial" font-size="14" lengthAdjust="spacing" textLength="77" x="686" y="224.292">id: UUID PK</text><line style="stroke:#181818;stroke-width:1.0;" x1="667" x2="912" y1="231.5938" y2="231.5938"/><ellipse cx="677" cy="245.2422" fill="#000000" rx="3" ry="3" style="stroke:#000000;stroke-width:1.0;"/><text fill="#000000" font-family="Arial" font-size="14" lengthAdjust="spacing" textLength="197" x="686" y="248.5889">username: VARCHAR(50) UK</text><ellipse cx="677" cy="261.5391" fill="#000000" rx="3" ry="3" style="stroke:#000000;stroke-width:1.0;"/><text fill="#000000" font-family="Arial" font-size="14" lengthAdjust="spacing" textLength="172" x="686" y="264.8857">email: VARCHAR(100) UK</text><ellipse cx="677" cy="277.8359" fill="#000000" rx="3" ry="3" style="stroke:#000000;stroke-width:1.0;"/><text fill="#000000" font-family="Arial" font-size="14" lengthAdjust="spacing" textLength="221" x="686" y="281.1826">password_hash: VARCHAR(255)</text><ellipse cx="677" cy="294.1328" fill="#000000" rx="3" ry="3" style="stroke:#000000;stroke-width:1.0;"/><text fill="#000000" font-family="Arial" font-size="14" lengthAdjust="spacing" textLength="134" x="686" y="297.4795">is_active: BOOLEAN</text><ellipse cx="677" cy="310.4297" fill="#000000" rx="3" ry="3" style="stroke:#000000;stroke-width:1.0;"/><text fill="#000000" font-family="Arial" font-size="14" lengthAdjust="spacing" textLength="136" x="686" y="313.7764">is_admin: BOOLEAN</text><text fill="#000000" font-family="Arial" font-size="14" lengthAdjust="spacing" textLength="194" x="686" y="330.0732">full_name: TEXT (encrypted)</text><text fill="#000000" font-family="Arial" font-size="14" lengthAdjust="spacing" textLength="174" x="686" y="346.3701">phone: TEXT (encrypted)</text><text fill="#000000" font-family="Arial" font-size="14" lengthAdjust="spacing" textLength="185" x="686" y="362.667">address: TEXT (encrypted)</text><text fill="#000000" font-family="Arial" font-size="14" lengthAdjust="spacing" textLength="163" x="686" y="378.9639">created_at: TIMESTAMP</text><text fill="#000000" font-family="Arial" font-size="14" lengthAdjust="spacing" textLength="168" x="686" y="395.2607">updated_at: TIMESTAMP</text></g><!--class roles--><g id="elem_roles"><rect codeLine="32" fill="#F1F1F1" filter="url(#fg8rn6rzrfi29)" height="145.7813" id="roles" rx="2.5" ry="2.5" style="stroke:#181818;stroke-width:0.5;" width="207" x="7" y="215.7969"/><ellipse cx="89.25" cy="231.7969" fill="#ADD1B2" rx="11" ry="11" style="stroke:#181818;stroke-width:1.0;"/><path d="M93.3594,237.7969 L85.6406,237.7969 L85.6406,225.4063 L93.3594,225.4063 L93.3594,227.5625 L88.0938,227.5625 L88.0938,230.2344 L92.8594,230.2344 L92.8594,232.3906 L88.0938,232.3906 L88.0938,235.6406 L93.3594,235.6406 L93.3594,237.7969 Z " fill="#000000"/><text fill="#000000" font-family="Arial" font-size="14" lengthAdjust="spacing" textLength="34" x="109.75" y="236.6436">roles</text><line style="stroke:#181818;stroke-width:0.5;" x1="8" x2="213" y1="247.7969" y2="247.7969"/><ellipse cx="18" cy="261.4453" fill="#000000" rx="3" ry="3" style="stroke:#000000;stroke-width:1.0;"/><text fill="#000000" font-family="Arial" font-size="14" lengthAdjust="spacing" textLength="77" x="27" y="264.792">id: UUID PK</text><line style="stroke:#181818;stroke-width:1.0;" x1="8" x2="213" y1="272.0938" y2="272.0938"/><ellipse cx="18" cy="285.7422" fill="#000000" rx="3" ry="3" style="stroke:#000000;stroke-width:1.0;"/><text fill="#000000" font-family="Arial" font-size="14" lengthAdjust="spacing" textLength="181" x="27" y="289.0889">nombre: VARCHAR(50) UK</text><text fill="#000000" font-family="Arial" font-size="14" lengthAdjust="spacing" textLength="125" x="27" y="305.3857">descripcion: TEXT</text><ellipse cx="18" cy="318.3359" fill="#000000" rx="3" ry="3" style="stroke:#000000;stroke-width:1.0;"/><text fill="#000000" font-family="Arial" font-size="14" lengthAdjust="spacing" textLength="116" x="27" y="321.6826">activo: BOOLEAN</text><text fill="#000000" font-family="Arial" font-size="14" lengthAdjust="spacing" textLength="163" x="27" y="337.9795">created_at: TIMESTAMP</text><text fill="#000000" font-family="Arial" font-size="14" lengthAdjust="spacing" textLength="168" x="27" y="354.2764">updated_at: TIMESTAMP</text></g><!--class permissions--><g id="elem_permissions"><rect codeLine="42" fill="#F1F1F1" filter="url(#fg8rn6rzrfi29)" height="194.6719" id="permissions" rx="2.5" ry="2.5" style="stroke:#181818;stroke-width:0.5;" width="360" x="1090.5" y="191.2969"/><ellipse cx="1224.25" cy="207.2969" fill="#ADD1B2" rx="11" ry="11" style="stroke:#181818;stroke-width:1.0;"/><path d="M1228.3594,213.2969 L1220.6406,213.2969 L1220.6406,200.9063 L1228.3594,200.9063 L1228.3594,203.0625 L1223.0938,203.0625 L1223.0938,205.7344 L1227.8594,205.7344 L1227.8594,207.8906 L1223.0938,207.8906 L1223.0938,211.1406 L1228.3594,211.1406 L1228.3594,213.2969 Z " fill="#000000"/><text fill="#000000" font-family="Arial" font-size="14" lengthAdjust="spacing" textLength="84" x="1244.75" y="212.1436">permissions</text><line style="stroke:#181818;stroke-width:0.5;" x1="1091.5" x2="1449.5" y1="223.2969" y2="223.2969"/><ellipse cx="1101.5" cy="236.9453" fill="#000000" rx="3" ry="3" style="stroke:#000000;stroke-width:1.0;"/><text fill="#000000" font-family="Arial" font-size="14" lengthAdjust="spacing" textLength="77" x="1110.5" y="240.292">id: UUID PK</text><line style="stroke:#181818;stroke-width:1.0;" x1="1091.5" x2="1449.5" y1="247.5938" y2="247.5938"/><ellipse cx="1101.5" cy="261.2422" fill="#000000" rx="3" ry="3" style="stroke:#000000;stroke-width:1.0;"/><text fill="#000000" font-family="Arial" font-size="14" lengthAdjust="spacing" textLength="184" x="1110.5" y="264.5889">endpoint: VARCHAR(1000)</text><ellipse cx="1101.5" cy="277.5391" fill="#000000" rx="3" ry="3" style="stroke:#000000;stroke-width:1.0;"/><text fill="#000000" font-family="Arial" font-size="14" lengthAdjust="spacing" textLength="259" x="1110.5" y="280.8857">type: ENUM(read,write,delete,update)</text><ellipse cx="1101.5" cy="293.8359" fill="#000000" rx="3" ry="3" style="stroke:#000000;stroke-width:1.0;"/><text fill="#000000" font-family="Arial" font-size="14" lengthAdjust="spacing" textLength="334" x="1110.5" y="297.1826">httpType: ENUM(GET,POST,PUT,DELETE,PATCH)</text><text fill="#000000" font-family="Arial" font-size="14" lengthAdjust="spacing" textLength="199" x="1110.5" y="313.4795">description: VARCHAR(1000)</text><text fill="#000000" font-family="Arial" font-size="14" lengthAdjust="spacing" textLength="144" x="1110.5" y="329.7764">tag: VARCHAR(1000)</text><text fill="#000000" font-family="Arial" font-size="14" lengthAdjust="spacing" textLength="200" x="1110.5" y="346.0732">operationId: VARCHAR(1000)</text><text fill="#000000" font-family="Arial" font-size="14" lengthAdjust="spacing" textLength="163" x="1110.5" y="362.3701">created_at: TIMESTAMP</text><text fill="#000000" font-family="Arial" font-size="14" lengthAdjust="spacing" textLength="168" x="1110.5" y="378.667">updated_at: TIMESTAMP</text></g><!--class rol_user--><g id="elem_rol_user"><rect codeLine="55" fill="#F1F1F1" filter="url(#fg8rn6rzrfi29)" height="145.7813" id="rol_user" rx="2.5" ry="2.5" style="stroke:#181818;stroke-width:0.5;" width="194" x="13.5" y="552.2969"/><ellipse cx="78.75" cy="568.2969" fill="#ADD1B2" rx="11" ry="11" style="stroke:#181818;stroke-width:1.0;"/><path d="M82.8594,574.2969 L75.1406,574.2969 L75.1406,561.9063 L82.8594,561.9063 L82.8594,564.0625 L77.5938,564.0625 L77.5938,566.7344 L82.3594,566.7344 L82.3594,568.8906 L77.5938,568.8906 L77.5938,572.1406 L82.8594,572.1406 L82.8594,574.2969 Z " fill="#000000"/><text fill="#000000" font-family="Arial" font-size="14" lengthAdjust="spacing" textLength="55" x="99.25" y="573.1436">rol_user</text><line style="stroke:#181818;stroke-width:0.5;" x1="14.5" x2="206.5" y1="584.2969" y2="584.2969"/><ellipse cx="24.5" cy="597.9453" fill="#000000" rx="3" ry="3" style="stroke:#000000;stroke-width:1.0;"/><text fill="#000000" font-family="Arial" font-size="14" lengthAdjust="spacing" textLength="77" x="33.5" y="601.292">id: UUID PK</text><line style="stroke:#181818;stroke-width:1.0;" x1="14.5" x2="206.5" y1="608.5938" y2="608.5938"/><ellipse cx="24.5" cy="622.2422" fill="#000000" rx="3" ry="3" style="stroke:#000000;stroke-width:1.0;"/><text fill="#000000" font-family="Arial" font-size="14" lengthAdjust="spacing" textLength="114" x="33.5" y="625.5889">user_id: UUID FK</text><ellipse cx="24.5" cy="638.5391" fill="#000000" rx="3" ry="3" style="stroke:#000000;stroke-width:1.0;"/><text fill="#000000" font-family="Arial" font-size="14" lengthAdjust="spacing" textLength="100" x="33.5" y="641.8857">rol_id: UUID FK</text><ellipse cx="24.5" cy="654.8359" fill="#000000" rx="3" ry="3" style="stroke:#000000;stroke-width:1.0;"/><text fill="#000000" font-family="Arial" font-size="14" lengthAdjust="spacing" textLength="134" x="33.5" y="658.1826">is_active: BOOLEAN</text><text fill="#000000" font-family="Arial" font-size="14" lengthAdjust="spacing" textLength="163" x="33.5" y="674.4795">created_at: TIMESTAMP</text><text fill="#000000" font-family="Arial" font-size="14" lengthAdjust="spacing" textLength="168" x="33.5" y="690.7764">updated_at: TIMESTAMP</text></g><!--class user_permits--><g id="elem_user_permits"><rect codeLine="65" fill="#F1F1F1" filter="url(#fg8rn6rzrfi29)" height="145.7813" id="user_permits" rx="2.5" ry="2.5" style="stroke:#181818;stroke-width:0.5;" width="194" x="1173.5" y="552.2969"/><ellipse cx="1221.25" cy="568.2969" fill="#ADD1B2" rx="11" ry="11" style="stroke:#181818;stroke-width:1.0;"/><path d="M1225.3594,574.2969 L1217.6406,574.2969 L1217.6406,561.9063 L1225.3594,561.9063 L1225.3594,564.0625 L1220.0938,564.0625 L1220.0938,566.7344 L1224.8594,566.7344 L1224.8594,568.8906 L1220.0938,568.8906 L1220.0938,572.1406 L1225.3594,572.1406 L1225.3594,574.2969 Z " fill="#000000"/><text fill="#000000" font-family="Arial" font-size="14" lengthAdjust="spacing" textLength="90" x="1241.75" y="573.1436">user_permits</text><line style="stroke:#181818;stroke-width:0.5;" x1="1174.5" x2="1366.5" y1="584.2969" y2="584.2969"/><ellipse cx="1184.5" cy="597.9453" fill="#000000" rx="3" ry="3" style="stroke:#000000;stroke-width:1.0;"/><text fill="#000000" font-family="Arial" font-size="14" lengthAdjust="spacing" textLength="77" x="1193.5" y="601.292">id: UUID PK</text><line style="stroke:#181818;stroke-width:1.0;" x1="1174.5" x2="1366.5" y1="608.5938" y2="608.5938"/><ellipse cx="1184.5" cy="622.2422" fill="#000000" rx="3" ry="3" style="stroke:#000000;stroke-width:1.0;"/><text fill="#000000" font-family="Arial" font-size="14" lengthAdjust="spacing" textLength="114" x="1193.5" y="625.5889">user_id: UUID FK</text><ellipse cx="1184.5" cy="638.5391" fill="#000000" rx="3" ry="3" style="stroke:#000000;stroke-width:1.0;"/><text fill="#000000" font-family="Arial" font-size="14" lengthAdjust="spacing" textLength="127" x="1193.5" y="641.8857">permit_id: UUID FK</text><ellipse cx="1184.5" cy="654.8359" fill="#000000" rx="3" ry="3" style="stroke:#000000;stroke-width:1.0;"/><text fill="#000000" font-family="Arial" font-size="14" lengthAdjust="spacing" textLength="134" x="1193.5" y="658.1826">is_active: BOOLEAN</text><text fill="#000000" font-family="Arial" font-size="14" lengthAdjust="spacing" textLength="163" x="1193.5" y="674.4795">created_at: TIMESTAMP</text><text fill="#000000" font-family="Arial" font-size="14" lengthAdjust="spacing" textLength="168" x="1193.5" y="690.7764">updated_at: TIMESTAMP</text></g><!--class user_sessions--><g id="elem_user_sessions"><rect codeLine="75" fill="#F1F1F1" filter="url(#fg8rn6rzrfi29)" height="210.9688" id="user_sessions" rx="2.5" ry="2.5" style="stroke:#181818;stroke-width:0.5;" width="271" x="561" y="519.7969"/><ellipse cx="642.25" cy="535.7969" fill="#ADD1B2" rx="11" ry="11" style="stroke:#181818;stroke-width:1.0;"/><path d="M646.3594,541.7969 L638.6406,541.7969 L638.6406,529.4063 L646.3594,529.4063 L646.3594,531.5625 L641.0938,531.5625 L641.0938,534.2344 L645.8594,534.2344 L645.8594,536.3906 L641.0938,536.3906 L641.0938,539.6406 L646.3594,539.6406 L646.3594,541.7969 Z " fill="#000000"/><text fill="#000000" font-family="Arial" font-size="14" lengthAdjust="spacing" textLength="100" x="662.75" y="540.6436">user_sessions</text><line style="stroke:#181818;stroke-width:0.5;" x1="562" x2="831" y1="551.7969" y2="551.7969"/><ellipse cx="572" cy="565.4453" fill="#000000" rx="3" ry="3" style="stroke:#000000;stroke-width:1.0;"/><text fill="#000000" font-family="Arial" font-size="14" lengthAdjust="spacing" textLength="77" x="581" y="568.792">id: UUID PK</text><line style="stroke:#181818;stroke-width:1.0;" x1="562" x2="831" y1="576.0938" y2="576.0938"/><ellipse cx="572" cy="589.7422" fill="#000000" rx="3" ry="3" style="stroke:#000000;stroke-width:1.0;"/><text fill="#000000" font-family="Arial" font-size="14" lengthAdjust="spacing" textLength="114" x="581" y="593.0889">user_id: UUID FK</text><ellipse cx="572" cy="606.0391" fill="#000000" rx="3" ry="3" style="stroke:#000000;stroke-width:1.0;"/><text fill="#000000" font-family="Arial" font-size="14" lengthAdjust="spacing" textLength="194" x="581" y="609.3857">token_hash: VARCHAR(255)</text><ellipse cx="572" cy="622.3359" fill="#000000" rx="3" ry="3" style="stroke:#000000;stroke-width:1.0;"/><text fill="#000000" font-family="Arial" font-size="14" lengthAdjust="spacing" textLength="160" x="581" y="625.6826">expires_at: TIMESTAMP</text><text fill="#000000" font-family="Arial" font-size="14" lengthAdjust="spacing" textLength="245" x="581" y="641.9795">ip_address: VARCHAR(45) (hashed)</text><text fill="#000000" font-family="Arial" font-size="14" lengthAdjust="spacing" textLength="123" x="581" y="658.2764">user_agent: TEXT</text><text fill="#000000" font-family="Arial" font-size="14" lengthAdjust="spacing" textLength="235" x="581" y="674.5732">device_fingerprint: VARCHAR(255)</text><ellipse cx="572" cy="687.5234" fill="#000000" rx="3" ry="3" style="stroke:#000000;stroke-width:1.0;"/><text fill="#000000" font-family="Arial" font-size="14" lengthAdjust="spacing" textLength="162" x="581" y="690.8701">is_active: VARCHAR(20)</text><text fill="#000000" font-family="Arial" font-size="14" lengthAdjust="spacing" textLength="163" x="581" y="707.167">created_at: TIMESTAMP</text><text fill="#000000" font-family="Arial" font-size="14" lengthAdjust="spacing" textLength="168" x="581" y="723.4639">updated_at: TIMESTAMP</text></g><!--class audit_logs--><g id="elem_audit_logs"><rect codeLine="89" fill="#F1F1F1" filter="url(#fg8rn6rzrfi29)" height="292.4531" id="audit_logs" rx="2.5" ry="2.5" style="stroke:#181818;stroke-width:0.5;" width="271" x="867" y="479.2969"/><ellipse cx="963.25" cy="495.2969" fill="#ADD1B2" rx="11" ry="11" style="stroke:#181818;stroke-width:1.0;"/><path d="M967.3594,501.2969 L959.6406,501.2969 L959.6406,488.9063 L967.3594,488.9063 L967.3594,491.0625 L962.0938,491.0625 L962.0938,493.7344 L966.8594,493.7344 L966.8594,495.8906 L962.0938,495.8906 L962.0938,499.1406 L967.3594,499.1406 L967.3594,501.2969 Z " fill="#000000"/><text fill="#000000" font-family="Arial" font-size="14" lengthAdjust="spacing" textLength="70" x="983.75" y="500.1436">audit_logs</text><line style="stroke:#181818;stroke-width:0.5;" x1="868" x2="1137" y1="511.2969" y2="511.2969"/><ellipse cx="878" cy="524.9453" fill="#000000" rx="3" ry="3" style="stroke:#000000;stroke-width:1.0;"/><text fill="#000000" font-family="Arial" font-size="14" lengthAdjust="spacing" textLength="77" x="887" y="528.292">id: UUID PK</text><line style="stroke:#181818;stroke-width:1.0;" x1="868" x2="1137" y1="535.5938" y2="535.5938"/><text fill="#000000" font-family="Arial" font-size="14" lengthAdjust="spacing" textLength="181" x="887" y="552.5889">user_id: UUID FK (nullable)</text><text fill="#000000" font-family="Arial" font-size="14" lengthAdjust="spacing" textLength="245" x="887" y="568.8857">ip_address: VARCHAR(45) (hashed)</text><ellipse cx="878" cy="581.8359" fill="#000000" rx="3" ry="3" style="stroke:#000000;stroke-width:1.0;"/><text fill="#000000" font-family="Arial" font-size="14" lengthAdjust="spacing" textLength="175" x="887" y="585.1826">endpoint: VARCHAR(255)</text><ellipse cx="878" cy="598.1328" fill="#000000" rx="3" ry="3" style="stroke:#000000;stroke-width:1.0;"/><text fill="#000000" font-family="Arial" font-size="14" lengthAdjust="spacing" textLength="158" x="887" y="601.4795">method: VARCHAR(10)</text><ellipse cx="878" cy="614.4297" fill="#000000" rx="3" ry="3" style="stroke:#000000;stroke-width:1.0;"/><text fill="#000000" font-family="Arial" font-size="14" lengthAdjust="spacing" textLength="155" x="887" y="617.7764">status_code: INTEGER</text><text fill="#000000" font-family="Arial" font-size="14" lengthAdjust="spacing" textLength="156" x="887" y="634.0732">response_time: FLOAT</text><text fill="#000000" font-family="Arial" font-size="14" lengthAdjust="spacing" textLength="159" x="887" y="650.3701">request_size: INTEGER</text><text fill="#000000" font-family="Arial" font-size="14" lengthAdjust="spacing" textLength="171" x="887" y="666.667">response_size: INTEGER</text><text fill="#000000" font-family="Arial" font-size="14" lengthAdjust="spacing" textLength="180" x="887" y="682.9639">event_type: VARCHAR(50)</text><text fill="#000000" font-family="Arial" font-size="14" lengthAdjust="spacing" textLength="137" x="887" y="699.2607">details: TEXT (JSON)</text><text fill="#000000" font-family="Arial" font-size="14" lengthAdjust="spacing" textLength="123" x="887" y="715.5576">user_agent: TEXT</text><text fill="#000000" font-family="Arial" font-size="14" lengthAdjust="spacing" textLength="235" x="887" y="731.8545">device_fingerprint: VARCHAR(255)</text><text fill="#000000" font-family="Arial" font-size="14" lengthAdjust="spacing" textLength="163" x="887" y="748.1514">created_at: TIMESTAMP</text><text fill="#000000" font-family="Arial" font-size="14" lengthAdjust="spacing" textLength="168" x="887" y="764.4482">updated_at: TIMESTAMP</text></g><g id="elem_GMN15"><path d="M680.5,43.2969 L680.5,113.8281 A0,0 0 0 0 680.5,113.8281 L785.5,113.8281 L789.5,175.1569 L793.5,113.8281 L898.5,113.8281 A0,0 0 0 0 898.5,113.8281 L898.5,53.2969 L888.5,43.2969 L680.5,43.2969 A0,0 0 0 0 680.5,43.2969 " fill="#FEFFDD" filter="url(#fg8rn6rzrfi29)" style="stroke:#181818;stroke-width:0.5;"/><path d="M888.5,43.2969 L888.5,53.2969 L898.5,53.2969 L888.5,43.2969 " fill="#FEFFDD" style="stroke:#181818;stroke-width:0.5;"/><text fill="#000000" font-family="Arial" font-size="13" font-weight="bold" lengthAdjust="spacing" textLength="80" x="686.5" y="60.3638">User Entity</text><text fill="#000000" font-family="Arial" font-size="13" lengthAdjust="spacing" textLength="175" x="686.5" y="75.4966">- Core authentication entity</text><text fill="#000000" font-family="Arial" font-size="13" lengthAdjust="spacing" textLength="170" x="686.5" y="90.6294">- Encrypted sensitive fields</text><text fill="#000000" font-family="Arial" font-size="13" lengthAdjust="spacing" textLength="197" x="686.5" y="105.7622">- Admin flag for system access</text></g><g id="elem_GMN18"><path d="M1138.5,43.2969 L1138.5,113.8281 A0,0 0 0 0 1138.5,113.8281 L1266.5,113.8281 L1270.5,190.9369 L1274.5,113.8281 L1402.5,113.8281 A0,0 0 0 0 1402.5,113.8281 L1402.5,53.2969 L1392.5,43.2969 L1138.5,43.2969 A0,0 0 0 0 1138.5,43.2969 " fill="#FEFFDD" filter="url(#fg8rn6rzrfi29)" style="stroke:#181818;stroke-width:0.5;"/><path d="M1392.5,43.2969 L1392.5,53.2969 L1402.5,53.2969 L1392.5,43.2969 " fill="#FEFFDD" style="stroke:#181818;stroke-width:0.5;"/><text fill="#000000" font-family="Arial" font-size="13" font-weight="bold" lengthAdjust="spacing" textLength="128" x="1144.5" y="60.3638">Permission Entity</text><text fill="#000000" font-family="Arial" font-size="13" lengthAdjust="spacing" textLength="184" x="1144.5" y="75.4966">- Fine-grained access control</text><text fill="#000000" font-family="Arial" font-size="13" lengthAdjust="spacing" textLength="243" x="1144.5" y="90.6294">- HTTP method and endpoint mapping</text><text fill="#000000" font-family="Arial" font-size="13" lengthAdjust="spacing" textLength="235" x="1144.5" y="105.7622">- Operation ID for API documentation</text></g><g id="elem_GMN21"><path d="M910,832.2969 L910,902.8281 A0,0 0 0 0 910,902.8281 L1095,902.8281 A0,0 0 0 0 1095,902.8281 L1095,842.2969 L1085,832.2969 L1006.5,832.2969 L1002.5,771.3969 L998.5,832.2969 L910,832.2969 A0,0 0 0 0 910,832.2969 " fill="#FEFFDD" filter="url(#fg8rn6rzrfi29)" style="stroke:#181818;stroke-width:0.5;"/><path d="M1085,832.2969 L1085,842.2969 L1095,842.2969 L1085,832.2969 " fill="#FEFFDD" style="stroke:#181818;stroke-width:0.5;"/><text fill="#000000" font-family="Arial" font-size="13" font-weight="bold" lengthAdjust="spacing" textLength="75" x="916" y="849.3638">Audit Trail</text><text fill="#000000" font-family="Arial" font-size="13" lengthAdjust="spacing" textLength="155" x="916" y="864.4966">- All API requests logged</text><text fill="#000000" font-family="Arial" font-size="13" lengthAdjust="spacing" textLength="156" x="916" y="879.6294">- Security event tracking</text><text fill="#000000" font-family="Arial" font-size="13" lengthAdjust="spacing" textLength="164" x="916" y="894.7622">- Performance monitoring</text></g><g id="elem_GMN24"><path d="M243,589.7969 L243,621.2969 L207.63,625.2969 L243,629.2969 L243,660.3281 A0,0 0 0 0 243,660.3281 L526,660.3281 A0,0 0 0 0 526,660.3281 L526,599.7969 L516,589.7969 L243,589.7969 A0,0 0 0 0 243,589.7969 " fill="#FEFFDD" filter="url(#fg8rn6rzrfi29)" style="stroke:#181818;stroke-width:0.5;"/><path d="M516,589.7969 L516,599.7969 L526,599.7969 L516,589.7969 " fill="#FEFFDD" style="stroke:#181818;stroke-width:0.5;"/><text fill="#000000" font-family="Arial" font-size="13" font-weight="bold" lengthAdjust="spacing" textLength="103" x="249" y="606.8638">Many-to-Many</text><text fill="#000000" font-family="Arial" font-size="13" lengthAdjust="spacing" textLength="198" x="249" y="621.9966">- Users can have multiple roles</text><text fill="#000000" font-family="Arial" font-size="13" lengthAdjust="spacing" textLength="262" x="249" y="637.1294">- Roles can be assigned to multiple users</text><text fill="#000000" font-family="Arial" font-size="13" lengthAdjust="spacing" textLength="179" x="249" y="652.2622">- Active flag for soft deletion</text></g><!--link users to rol_user--><g id="link_users_rol_user"><path codeLine="109" d="M657.9896,311.737 C537.0896,336.257 359.91,384.9069 225.5,479.2969 C198.15,498.4969 184.6853,511.5048 165.6953,537.4348 " fill="none" id="users-rol_user" style="stroke:#181818;stroke-width:1.0;"/><line style="stroke:#181818;stroke-width:1.0;" x1="661.1147" x2="662.7049" y1="307.0217" y2="314.8621"/><line style="stroke:#181818;stroke-width:1.0;" x1="658.1746" x2="659.7647" y1="307.618" y2="315.4584"/><line style="stroke:#181818;stroke-width:1.0;" x1="657.9896" x2="665.83" y1="311.737" y2="310.1469"/><line style="stroke:#181818;stroke-width:1.0;" x1="159.7868" x2="159.9007" y1="545.5026" y2="555.502"/><line style="stroke:#181818;stroke-width:1.0;" x1="159.7868" x2="150.2193" y1="545.5026" y2="548.4118"/><line style="stroke:#181818;stroke-width:1.0;" x1="159.7868" x2="155.06" y1="545.5026" y2="551.9569"/><ellipse cx="163.3319" cy="540.6619" fill="none" rx="4" ry="4" style="stroke:#181818;stroke-width:1.0;"/><text fill="#000000" font-family="Arial" font-size="13" lengthAdjust="spacing" textLength="23" x="295.5" y="445.3638">has</text></g><!--link roles to rol_user--><g id="link_roles_rol_user"><path codeLine="110" d="M110.5,369.9669 C110.5,426.2369 110.5,478.0169 110.5,534.2569 " fill="none" id="roles-rol_user" style="stroke:#181818;stroke-width:1.0;"/><line style="stroke:#181818;stroke-width:1.0;" x1="106.5" x2="114.5" y1="365.9669" y2="365.9669"/><line style="stroke:#181818;stroke-width:1.0;" x1="106.5" x2="114.5" y1="368.9669" y2="368.9669"/><line style="stroke:#181818;stroke-width:1.0;" x1="110.5" x2="110.5" y1="369.9669" y2="361.9669"/><line style="stroke:#181818;stroke-width:1.0;" x1="110.5" x2="116.5" y1="544.2569" y2="552.2569"/><line style="stroke:#181818;stroke-width:1.0;" x1="110.5" x2="104.5" y1="544.2569" y2="552.2569"/><line style="stroke:#181818;stroke-width:1.0;" x1="110.5" x2="110.5" y1="544.2569" y2="552.2569"/><ellipse cx="110.5" cy="538.2569" fill="none" rx="4" ry="4" style="stroke:#181818;stroke-width:1.0;"/><text fill="#000000" font-family="Arial" font-size="13" lengthAdjust="spacing" textLength="74" x="111.5" y="445.3638">assigned to</text></g><!--link users to user_permits--><g id="link_users_user_permits"><path codeLine="112" d="M920.3644,341.2446 C995.2544,374.1446 1082.73,419.3569 1155.5,479.2969 C1180.67,500.0269 1193.1289,512.7402 1212.0689,537.8802 " fill="none" id="users-user_permits" style="stroke:#181818;stroke-width:1.0;"/><line style="stroke:#181818;stroke-width:1.0;" x1="915.0933" x2="918.311" y1="343.2979" y2="335.9735"/><line style="stroke:#181818;stroke-width:1.0;" x1="917.84" x2="921.0577" y1="344.5045" y2="337.1802"/><line style="stroke:#181818;stroke-width:1.0;" x1="920.3644" x2="913.04" y1="341.2446" y2="338.0269"/><line style="stroke:#181818;stroke-width:1.0;" x1="1218.0862" x2="1227.6922" y1="545.8673" y2="548.6465"/><line style="stroke:#181818;stroke-width:1.0;" x1="1218.0862" x2="1218.1078" y1="545.8673" y2="555.8672"/><line style="stroke:#181818;stroke-width:1.0;" x1="1218.0862" x2="1222.9" y1="545.8673" y2="552.2569"/><ellipse cx="1214.4758" cy="541.075" fill="none" rx="4" ry="4" style="stroke:#181818;stroke-width:1.0;"/><text fill="#000000" font-family="Arial" font-size="13" lengthAdjust="spacing" textLength="23" x="1111.5" y="445.3638">has</text></g><!--link permissions to user_permits--><g id="link_permissions_user_permits"><path codeLine="113" d="M1270.5,394.5469 C1270.5,447.4169 1270.5,485.7869 1270.5,534.2069 " fill="none" id="permissions-user_permits" style="stroke:#181818;stroke-width:1.0;"/><line style="stroke:#181818;stroke-width:1.0;" x1="1266.5" x2="1274.5" y1="390.5469" y2="390.5469"/><line style="stroke:#181818;stroke-width:1.0;" x1="1266.5" x2="1274.5" y1="393.5469" y2="393.5469"/><line style="stroke:#181818;stroke-width:1.0;" x1="1270.5" x2="1270.5" y1="394.5469" y2="386.5469"/><line style="stroke:#181818;stroke-width:1.0;" x1="1270.5" x2="1276.5" y1="544.2069" y2="552.2069"/><line style="stroke:#181818;stroke-width:1.0;" x1="1270.5" x2="1264.5" y1="544.2069" y2="552.2069"/><line style="stroke:#181818;stroke-width:1.0;" x1="1270.5" x2="1270.5" y1="544.2069" y2="552.2069"/><ellipse cx="1270.5" cy="538.2069" fill="none" rx="4" ry="4" style="stroke:#181818;stroke-width:1.0;"/><text fill="#000000" font-family="Arial" font-size="13" lengthAdjust="spacing" textLength="67" x="1271.5" y="445.3638">granted to</text></g><!--link users to user_sessions--><g id="link_users_user_sessions"><path codeLine="115" d="M755.9972,410.2846 C745.4772,448.1246 740.7617,465.0847 730.4217,502.2747 " fill="none" id="users-user_sessions" style="stroke:#181818;stroke-width:1.0;"/><line style="stroke:#181818;stroke-width:1.0;" x1="753.2147" x2="760.9224" y1="405.3593" y2="407.5021"/><line style="stroke:#181818;stroke-width:1.0;" x1="752.4112" x2="760.1189" y1="408.2497" y2="410.3925"/><line style="stroke:#181818;stroke-width:1.0;" x1="755.9972" x2="758.14" y1="410.2846" y2="402.5769"/><line style="stroke:#181818;stroke-width:1.0;" x1="727.743" x2="731.3807" y1="511.9092" y2="521.2241"/><line style="stroke:#181818;stroke-width:1.0;" x1="727.743" x2="719.8193" y1="511.9092" y2="518.0096"/><line style="stroke:#181818;stroke-width:1.0;" x1="727.743" x2="725.6" y1="511.9092" y2="519.6169"/><ellipse cx="729.3502" cy="506.1285" fill="none" rx="4" ry="4" style="stroke:#181818;stroke-width:1.0;"/><text fill="#000000" font-family="Arial" font-size="13" lengthAdjust="spacing" textLength="23" x="749.5" y="445.3638">has</text></g><!--link users to audit_logs--><g id="link_users_audit_logs"><path codeLine="116" d="M865.6171,409.3248 C881.2571,433.8848 884.0536,438.2727 900.3636,463.8927 " fill="none" id="users-audit_logs" style="stroke:#181818;stroke-width:1.0;"/><line style="stroke:#181818;stroke-width:1.0;" x1="860.0946" x2="866.8425" y1="408.0994" y2="403.8023"/><line style="stroke:#181818;stroke-width:1.0;" x1="861.706" x2="868.454" y1="410.6299" y2="406.3327"/><line style="stroke:#181818;stroke-width:1.0;" x1="865.6171" x2="861.32" y1="409.3248" y2="402.5769"/><line style="stroke:#181818;stroke-width:1.0;" x1="905.7338" x2="915.0914" y1="472.3283" y2="475.8547"/><line style="stroke:#181818;stroke-width:1.0;" x1="905.7338" x2="904.9686" y1="472.3283" y2="482.299"/><line style="stroke:#181818;stroke-width:1.0;" x1="905.7338" x2="910.03" y1="472.3283" y2="479.0769"/><ellipse cx="902.5117" cy="467.2669" fill="none" rx="4" ry="4" style="stroke:#181818;stroke-width:1.0;"/><text fill="#000000" font-family="Arial" font-size="13" lengthAdjust="spacing" textLength="58" x="890.5" y="445.3638">performs</text></g><!--SRC=[lLPDR-Cs4BtxLmpIGnCZ1h91qkxcfetb96rY6uvSz2RGujWc8f4gIILrT_lVEwGaIqfiP143jG5RcZSSFiudhR0fmWsp-C8sC6IMBPX126Sm56obMTRhcISXSqQFi639qqghGl9hbIeDFuq-ZxwCWfQ6MJEkNeHSWTK5jW2EIrQaTgIa7RCC8T22fMtRAAsm6_ZM0_fyVRrH-7bqCHgMcD8STIN_zENNNuRdlN_RbZIcp0ebpLhabRrx8R5QSN7klbxgo7IbPAVYSLGOrEO8c07_L1dg2tu5y_dT4AQ_Uy5WKCgTagI3NS4VmUpwDfWTNvwTmBnKwcF6HDf0dyvQMCwCUQ4pnMjcretE-UNbIRMbYLbYnJFP_ZgPt8V1k97pJCYkU5caQLmoYS8_8pX6cUXDRf6NvlAralimnhb6O_QWYKPA4nupImft3-5Z53nCFLBaV0VISgPMAPREz4_lELEgRA5tkvAZIRJ84uflIRDSuHsakfuuW6-EEXF6k2Joh5llxt57oNCbfEr4-wmAfTtaTAnmF7yu9dByz4KBYwSSKwI_abMbkROsZnhjcp0wdKuUwMSUdGx3-p0AJwT1T7rxqlQAzLvvkwzbgrrYHSVobNB7Ty67nJjs5L67tB_yI0d5Mt1KbOTR_KQufoGEOEmtzs6sJTNNWeynBnV_R-GDjXAs8_aOVQkUKEvjIlXtBgXNx60hydZRH-fr5vSdSEnCrRt4RybMwEfaMyKSdqM2yPB61-fSTufePplSWeTdB2iunIfLgz9_pUixpdljEpYMr83P8gqA-OUyiQDfDEVDqAvLfq0hm5Xc2nCdYfChxiPHU1FEF4AxvHHsZArmOs1qFmcY2lYhG6DZ8_xPj-GjXC_aexZiNAs6N4NCqc3R3epV7YVZG-FxWHZ-3BFMo3UzSc1__puOg6zDzxc28_BvKQ-SG3jGciDY9P63LKUzhf5ECwWDjOV27ZswG4cxt-AsG6kJ7PLM3bxvaRHKEYCbEkzOMJGzIRzaEWUrB2yfvAP-V-wE4_gqxlT9Ce1hfP6isRLBziGxghfkUJYinpmOb4QuqeAbm9GR3mVkZW7BbAs0283P68iPi2GXybG-71oDNeTCopEUqdJxtYKseclPW7madDTBYv3GfOoYul7RA9f2cV_0QAUwJ21ZUKvPv9KczHG3Aa37C9ZU0LT9aT4PFV2QvK9Pgp97j76nvncuLuY8K5en3DBKswignm3fhf1xx16JGhlcuIk4BhnqQQr9JSjeCPaWP4eAgxI3NX7HOhMsZaUTXfx50vERWLK3zr_HcFkyI9Y4DQFeP7IJ5ZdTstqkUusPpsgdiQ1ODvdSwDOPGeTAoXXlGwgM5lmbfEEi_m00]--></g></svg>