<?xml version="1.0" encoding="us-ascii" standalone="no"?><svg xmlns="http://www.w3.org/2000/svg" xmlns:xlink="http://www.w3.org/1999/xlink" contentStyleType="text/css" height="448px" preserveAspectRatio="none" style="width:670px;height:448px;background:#FFFFFF;" version="1.1" viewBox="0 0 670 448" width="670px" zoomAndPan="magnify"><defs/><g><text fill="#000000" font-family="sans-serif" font-size="14" font-weight="bold" lengthAdjust="spacing" textLength="201" x="227.5" y="22.9951">RF-03 - Registro de carga</text><!--cluster Sistema Logistico--><g id="cluster_Sistema Logistico"><rect fill="none" height="277" rx="2.5" ry="2.5" style="stroke:#181818;stroke-width:1.0;" width="485" x="179" y="145.2969"/><text fill="#000000" font-family="sans-serif" font-size="14" font-weight="bold" lengthAdjust="spacing" textLength="138" x="352.5" y="160.292">Sistema Logistico</text></g><g id="elem_CU09"><ellipse cx="283.0244" cy="380.3441" fill="#F1F1F1" rx="85.0244" ry="26.0473" style="stroke:#181818;stroke-width:0.5;"/><text fill="#000000" font-family="sans-serif" font-size="14" lengthAdjust="spacing" textLength="43" x="261.5244" y="375.0424">CU-09</text><text fill="#000000" font-family="sans-serif" font-size="14" lengthAdjust="spacing" textLength="104" x="231.0244" y="391.3393">Registrar carga</text></g><g id="elem_CU10"><ellipse cx="571.2462" cy="369.3678" fill="#F1F1F1" rx="77.2462" ry="37.5709" style="stroke:#181818;stroke-width:0.5;"/><text fill="#000000" font-family="sans-serif" font-size="14" lengthAdjust="spacing" textLength="43" x="549.7462" y="355.9176">CU-10</text><text fill="#000000" font-family="sans-serif" font-size="14" lengthAdjust="spacing" textLength="92" x="525.2462" y="372.2144">Asociar carga</text><text fill="#000000" font-family="sans-serif" font-size="14" lengthAdjust="spacing" textLength="93" x="524.7462" y="388.5113">a contenedor</text></g><g id="elem_CU11"><ellipse cx="282.8528" cy="206.3441" fill="#F1F1F1" rx="87.8528" ry="26.0473" style="stroke:#181818;stroke-width:0.5;"/><text fill="#000000" font-family="sans-serif" font-size="14" lengthAdjust="spacing" textLength="43" x="261.3528" y="201.0424">CU-11</text><text fill="#000000" font-family="sans-serif" font-size="14" lengthAdjust="spacing" textLength="108" x="228.8528" y="217.3393">Consultar carga</text></g><g id="elem_CU12"><ellipse cx="282.8528" cy="293.3441" fill="#F1F1F1" rx="87.8528" ry="26.0473" style="stroke:#181818;stroke-width:0.5;"/><text fill="#000000" font-family="sans-serif" font-size="14" lengthAdjust="spacing" textLength="43" x="261.3528" y="288.0424">CU-12</text><text fill="#000000" font-family="sans-serif" font-size="14" lengthAdjust="spacing" textLength="108" x="228.8528" y="304.3393">Actualizar carga</text></g><!--entity Admin--><g id="elem_Admin"><ellipse cx="69" cy="239.7969" fill="#F1F1F1" rx="8" ry="8" style="stroke:#181818;stroke-width:0.5;"/><path d="M69,247.7969 L69,274.7969 M56,255.7969 L82,255.7969 M69,274.7969 L56,289.7969 M69,274.7969 L82,289.7969 " fill="none" style="stroke:#181818;stroke-width:0.5;"/><text fill="#000000" font-family="sans-serif" font-size="14" lengthAdjust="spacing" textLength="95" x="21.5" y="304.292">Administrador</text></g><!--entity Gerente--><g id="elem_Gerente"><ellipse cx="69" cy="128.7969" fill="#F1F1F1" rx="8" ry="8" style="stroke:#181818;stroke-width:0.5;"/><path d="M69,136.7969 L69,163.7969 M56,144.7969 L82,144.7969 M69,163.7969 L56,178.7969 M69,163.7969 L82,178.7969 " fill="none" style="stroke:#181818;stroke-width:0.5;"/><text fill="#000000" font-family="sans-serif" font-size="14" lengthAdjust="spacing" textLength="118" x="10" y="193.292">Gerente de sede</text></g><!--entity Operador--><g id="elem_Operador"><ellipse cx="69" cy="350.7969" fill="#F1F1F1" rx="8" ry="8" style="stroke:#181818;stroke-width:0.5;"/><path d="M69,358.7969 L69,385.7969 M56,366.7969 L82,366.7969 M69,385.7969 L56,400.7969 M69,385.7969 L82,400.7969 " fill="none" style="stroke:#181818;stroke-width:0.5;"/><text fill="#000000" font-family="sans-serif" font-size="14" lengthAdjust="spacing" textLength="126" x="6" y="415.292">Operador logistico</text></g><g id="elem_GMN18"><path d="M499.5,43.2969 L499.5,128.9609 L642.5,128.9609 L642.5,53.2969 L632.5,43.2969 L499.5,43.2969 " fill="#FEFFDD" style="stroke:#181818;stroke-width:0.5;"/><path d="M632.5,43.2969 L632.5,53.2969 L642.5,53.2969 L632.5,43.2969 " fill="#FEFFDD" style="stroke:#181818;stroke-width:1.0;"/><text fill="#000000" font-family="sans-serif" font-size="13" lengthAdjust="spacing" textLength="122" x="505.5" y="60.3638">Actualiza datos de:</text><text fill="#000000" font-family="sans-serif" font-size="13" lengthAdjust="spacing" textLength="40" x="505.5" y="75.4966">- peso</text><text fill="#000000" font-family="sans-serif" font-size="13" lengthAdjust="spacing" textLength="64" x="505.5" y="90.6294">- volumen</text><text fill="#000000" font-family="sans-serif" font-size="13" lengthAdjust="spacing" textLength="68" x="505.5" y="105.7622">- embalaje</text><text fill="#000000" font-family="sans-serif" font-size="13" lengthAdjust="spacing" textLength="112" x="505.5" y="120.895">- cliente asociado</text></g><!--link Operador to CU09--><g id="link_Operador_CU09"><path d="M132.17,380.2969 C152.7,380.2969 169.89,380.2969 191.78,380.2969 " fill="none" id="Operador-to-CU09" style="stroke:#181818;stroke-width:1.0;"/><polygon fill="#181818" points="197.78,380.2969,188.78,376.2969,192.78,380.2969,188.78,384.2969,197.78,380.2969" style="stroke:#181818;stroke-width:1.0;"/></g><!--link Operador to CU10--><g id="link_Operador_CU10"><path d="M132.05,411.2969 C144.65,416.2669 158.02,420.6469 171,423.2969 C258.09,441.0669 282.89,435.0369 371,423.2969 C417.66,417.0769 463.1671,404.7993 501.9671,392.5793 " fill="none" id="Operador-to-CU10" style="stroke:#181818;stroke-width:1.0;"/><polygon fill="#181818" points="507.69,390.7769,497.9041,389.6652,502.9209,392.2789,500.3073,397.2957,507.69,390.7769" style="stroke:#181818;stroke-width:1.0;"/></g><!--link Operador to CU11--><g id="link_Operador_CU11"><path d="M116.26,341.9769 C121.89,336.3469 127.3,330.3769 132,324.2969 C154.97,294.5669 143.01,274.3669 171,249.2969 C183.7,237.9169 194.1626,231.6289 210.0726,225.3189 " fill="none" id="Operador-to-CU11" style="stroke:#181818;stroke-width:1.0;"/><polygon fill="#181818" points="215.65,223.1069,205.8093,222.7067,211.0022,224.9502,208.7586,230.1431,215.65,223.1069" style="stroke:#181818;stroke-width:1.0;"/></g><!--link Operador to CU12--><g id="link_Operador_CU12"><path d="M132.06,352.7869 C144.89,347.2269 158.35,341.4969 171,336.2969 C189.44,328.7069 204.1619,322.8959 222.3119,315.8959 " fill="none" id="Operador-to-CU12" style="stroke:#181818;stroke-width:1.0;"/><polygon fill="#181818" points="227.91,313.7369,218.0735,313.2434,223.2449,315.5361,220.9522,320.7075,227.91,313.7369" style="stroke:#181818;stroke-width:1.0;"/></g><!--link Gerente to CU11--><g id="link_Gerente_CU11"><path d="M128.21,171.4769 C154.32,177.3869 179.468,183.0826 206.778,189.2626 " fill="none" id="Gerente-to-CU11" style="stroke:#181818;stroke-width:1.0;"/><polygon fill="#181818" points="212.63,190.5869,204.7348,184.6991,207.7533,189.4833,202.9691,192.5018,212.63,190.5869" style="stroke:#181818;stroke-width:1.0;"/></g><!--link Admin to CU11--><g id="link_Admin_CU11"><path d="M116.59,247.3769 C130.93,241.2269 146.91,234.9469 162,230.2969 C176.11,225.9469 185.5331,223.4435 200.3331,220.2735 " fill="none" id="Admin-to-CU11" style="stroke:#181818;stroke-width:1.0;"/><polygon fill="#181818" points="206.2,219.0169,196.5618,216.9905,201.3109,220.0641,198.2374,224.8131,206.2,219.0169" style="stroke:#181818;stroke-width:1.0;"/></g><!--link Admin to CU12--><g id="link_Admin_CU12"><path d="M116.52,274.5669 C141.15,277.3469 166.1381,280.1821 194.5881,283.4021 " fill="none" id="Admin-to-CU12" style="stroke:#181818;stroke-width:1.0;"/><polygon fill="#181818" points="200.55,284.0769,192.0569,279.0901,195.5817,283.5146,191.1572,287.0393,200.55,284.0769" style="stroke:#181818;stroke-width:1.0;"/></g><!--link CU09 to CU10--><g id="link_CU09_CU10"><path d="M367.49,377.0869 C407.56,375.5469 449.2145,373.9489 488.2245,372.4389 " fill="none" id="CU09-to-CU10" style="stroke:#181818;stroke-width:1.0;stroke-dasharray:7.0,7.0;"/><polygon fill="#181818" points="494.22,372.2069,485.072,368.558,489.2237,372.4003,485.3815,376.552,494.22,372.2069" style="stroke:#181818;stroke-width:1.0;"/><text fill="#000000" font-family="sans-serif" font-size="13" lengthAdjust="spacing" textLength="61" x="402" y="370.3638">&#171;include&#187;</text></g><!--link CU12 to GMN18--><g id="link_CU12_GMN18"><path d="M331.55,271.5969 C344.66,264.9869 358.66,257.3369 371,249.2969 C426.39,213.2269 484.24,164.3869 523.2,129.5869 " fill="none" id="CU12-GMN18" style="stroke:#181818;stroke-width:1.0;stroke-dasharray:7.0,7.0;"/></g><!--SRC=[PP8nJyCm48LdxbUSkgTAojIggeGYmOA4rAfRbyE-fgQE7TaE213_7STfKXgcsE- -T_TiH_CnOB3eL7KAA9LZ4PGruC_ADEIeneR4cIhUXK_Ds9N9L9h_0Fv4qdueK-6Hj6U0e494juzPVeyPRhbIFZYBab6GgmY0HB0EPm-oLgQhHR-R8NbCob1-OiScSEVpB3a15sr0NXfEPjIs6wA4JTGW0unvSRQB0DU4prVq6-vQpu9yB9VxB5yUp2KjkJvhQbVky-KjMUG7y-2jK0DtC8J2ncI6XxEK-oAVk8g3AQtnhGwJ_aKn8HUnlmWjQVKrHHVm0p0UFCisVRw94cTFbUAViW0OBdba8Bt1TN-pZOPk6Cxd_GnSuNgjZD2jvCq6mDZOgl-LxB4tZCT0IS7w-9ehoB1XR-FdtUgsPXDNNB-IfZUEIw5LYaJfWgK5DXAxpl0B]--></g></svg>